<svg width="30" height="30" viewBox="0 0 30 30" fill="none" xmlns="http://www.w3.org/2000/svg">
<path d="M15.0009 12.4137C14.1475 12.4137 13.4492 11.7154 13.4492 10.862C13.4492 10.0086 14.1475 9.3103 15.0009 9.3103C15.8544 9.3103 16.5526 10.0086 16.5526 10.862C16.5526 11.7154 15.8544 12.4137 15.0009 12.4137ZM15.0009 10.3448C14.7164 10.3448 14.4837 10.5775 14.4837 10.862C14.4837 11.1465 14.7164 11.3792 15.0009 11.3792C15.2854 11.3792 15.5182 11.1465 15.5182 10.862C15.5182 10.5775 15.2854 10.3448 15.0009 10.3448Z" fill="black"/>
<path d="M1.55171 7.24135C0.698268 7.24135 0 6.54308 0 5.68965C0 4.83621 0.698268 4.13794 1.55171 4.13794C2.40514 4.13794 3.10341 4.83621 3.10341 5.68965C3.10341 6.54308 2.40514 7.24135 1.55171 7.24135ZM1.55171 5.17241C1.26723 5.17241 1.03447 5.40517 1.03447 5.68965C1.03447 5.97413 1.26723 6.20688 1.55171 6.20688C1.83619 6.20688 2.06894 5.97413 2.06894 5.68965C2.06894 5.40517 1.83619 5.17241 1.55171 5.17241Z" fill="black"/>
<path d="M21.204 3.10341C20.3506 3.10341 19.6523 2.40514 19.6523 1.55171C19.6523 0.698268 20.3506 0 21.204 0C22.0575 0 22.7558 0.698268 22.7558 1.55171C22.7558 2.40514 22.0575 3.10341 21.204 3.10341ZM21.204 1.03447C20.9196 1.03447 20.6868 1.26723 20.6868 1.55171C20.6868 1.83619 20.9196 2.06894 21.204 2.06894C21.4885 2.06894 21.7213 1.83619 21.7213 1.55171C21.7213 1.26723 21.4885 1.03447 21.204 1.03447Z" fill="black"/>
<path d="M28.4462 7.24123C27.5928 7.24123 26.8945 6.54296 26.8945 5.68952C26.8945 4.83609 27.5928 4.13782 28.4462 4.13782C29.2997 4.13782 29.9979 4.83609 29.9979 5.68952C29.9979 6.54296 29.2997 7.24123 28.4462 7.24123ZM28.4462 5.17229C28.1618 5.17229 27.929 5.40504 27.929 5.68952C27.929 5.974 28.1618 6.20676 28.4462 6.20676C28.7307 6.20676 28.9635 5.974 28.9635 5.68952C28.9635 5.40504 28.7307 5.17229 28.4462 5.17229Z" fill="black"/>
<path d="M28.4462 22.2411C27.5928 22.2411 26.8945 21.5428 26.8945 20.6894C26.8945 19.836 27.5928 19.1377 28.4462 19.1377C29.2997 19.1377 29.9979 19.836 29.9979 20.6894C29.9979 21.5428 29.2997 22.2411 28.4462 22.2411ZM28.4462 20.1722C28.1618 20.1722 27.929 20.4049 27.929 20.6894C27.929 20.9739 28.1618 21.2066 28.4462 21.2066C28.7307 21.2066 28.9635 20.9739 28.9635 20.6894C28.9635 20.4049 28.7307 20.1722 28.4462 20.1722Z" fill="black"/>
<path d="M23.2744 25.8617C22.4209 25.8617 21.7227 25.1634 21.7227 24.31C21.7227 23.4566 22.4209 22.7583 23.2744 22.7583C24.1278 22.7583 24.8261 23.4566 24.8261 24.31C24.8261 25.1634 24.1278 25.8617 23.2744 25.8617ZM23.2744 23.7928C22.9899 23.7928 22.7571 24.0255 22.7571 24.31C22.7571 24.5945 22.9899 24.8272 23.2744 24.8272C23.5588 24.8272 23.7916 24.5945 23.7916 24.31C23.7916 24.0255 23.5588 23.7928 23.2744 23.7928Z" fill="black"/>
<path d="M27.9306 29.9998C27.0772 29.9998 26.3789 29.3015 26.3789 28.4481C26.3789 27.5946 27.0772 26.8964 27.9306 26.8964C28.7841 26.8964 29.4823 27.5946 29.4823 28.4481C29.4823 29.3015 28.7841 29.9998 27.9306 29.9998ZM27.9306 27.9308C27.6461 27.9308 27.4134 28.1636 27.4134 28.4481C27.4134 28.7325 27.6461 28.9653 27.9306 28.9653C28.2151 28.9653 28.4478 28.7325 28.4478 28.4481C28.4478 28.1636 28.2151 27.9308 27.9306 27.9308Z" fill="black"/>
<path d="M1.55171 16.5515C0.698268 16.5515 0 15.8533 0 14.9998C0 14.1464 0.698268 13.4481 1.55171 13.4481C2.40514 13.4481 3.10341 14.1464 3.10341 14.9998C3.10341 15.8533 2.40514 16.5515 1.55171 16.5515ZM1.55171 14.4826C1.26723 14.4826 1.03447 14.7153 1.03447 14.9998C1.03447 15.2843 1.26723 15.5171 1.55171 15.5171C1.83619 15.5171 2.06894 15.2843 2.06894 14.9998C2.06894 14.7153 1.83619 14.4826 1.55171 14.4826Z" fill="black"/>
<path d="M1.55171 22.2412C0.698268 22.2412 0 21.543 0 20.6895C0 19.8361 0.698268 19.1378 1.55171 19.1378C2.40514 19.1378 3.10341 19.8361 3.10341 20.6895C3.10341 21.543 2.40514 22.2412 1.55171 22.2412ZM1.55171 20.1723C1.26723 20.1723 1.03447 20.405 1.03447 20.6895C1.03447 20.974 1.26723 21.2068 1.55171 21.2068C1.83619 21.2068 2.06894 20.974 2.06894 20.6895C2.06894 20.405 1.83619 20.1723 1.55171 20.1723Z" fill="black"/>
<path d="M15.0006 17.0687C13.8575 17.0687 12.9316 16.1428 12.9316 14.9997C12.9316 13.8566 13.8575 12.9308 15.0006 12.9308C16.1437 12.9308 17.0695 13.8566 17.0695 14.9997C17.0695 16.1428 16.1437 17.0687 15.0006 17.0687ZM15.0006 13.9653C14.4316 13.9653 13.9661 14.4308 13.9661 14.9997C13.9661 15.5687 14.4316 16.0342 15.0006 16.0342C15.5695 16.0342 16.0351 15.5687 16.0351 14.9997C16.0351 14.4308 15.5695 13.9653 15.0006 13.9653Z" fill="black"/>
<path d="M14.9983 22.7584C13.5707 22.7584 12.4121 21.5998 12.4121 20.1722C12.4121 18.7447 13.5707 17.5861 14.9983 17.5861C16.4259 17.5861 17.5845 18.7447 17.5845 20.1722C17.5845 21.5998 16.4259 22.7584 14.9983 22.7584ZM14.9983 18.6205C14.1448 18.6205 13.4466 19.3188 13.4466 20.1722C13.4466 21.0257 14.1448 21.7239 14.9983 21.7239C15.8517 21.7239 16.55 21.0257 16.55 20.1722C16.55 19.3188 15.8517 18.6205 14.9983 18.6205Z" fill="black"/>
<path d="M15 25.8618C14.9121 25.8618 14.8242 25.8411 14.7466 25.7945C10.2208 23.2497 7.0915 18.6619 6.37255 13.5205C6.33117 13.2361 6.52772 12.9774 6.8122 12.9361C7.0915 12.8947 7.35529 13.0912 7.39667 13.3757C8.05873 18.1032 10.8932 22.3342 15 24.7497C19.7948 21.936 22.7586 16.7688 22.7586 11.1982V8.61715L15 5.22408L7.2415 8.61715V9.31024C7.2415 9.59472 7.00875 9.82748 6.72427 9.82748C6.43979 9.82748 6.20703 9.59472 6.20703 9.31024V8.27577C6.20703 8.06888 6.33117 7.88267 6.51737 7.79992L14.7931 4.17927C14.9276 4.12237 15.0776 4.12237 15.2069 4.17927L23.4827 7.79992C23.6689 7.88267 23.793 8.06888 23.793 8.27577V11.193C23.793 17.2343 20.5189 22.8308 15.2535 25.7945C15.1759 25.8411 15.088 25.8618 15 25.8618Z" fill="black"/>
<path d="M10.3429 11.8965H4.65332C4.48263 11.8965 4.31711 11.8086 4.22401 11.6637L1.1206 7.00862C0.960255 6.77069 1.0275 6.45001 1.26542 6.28966C1.50335 6.12932 1.82404 6.19656 1.98438 6.43449L4.93262 10.8569H10.1308L10.4981 10.4896C10.5912 10.4017 10.7205 10.3448 10.8601 10.3448H13.9636C14.248 10.3448 14.4808 10.5775 14.4808 10.862C14.4808 11.1465 14.248 11.3793 13.9636 11.3793H11.0722L10.705 11.7465C10.6119 11.8396 10.4826 11.8965 10.3429 11.8965Z" fill="black"/>
<path d="M1.54988 14.4827C1.48781 14.4827 1.42057 14.4724 1.3585 14.4465C1.09471 14.3379 0.965401 14.0379 1.06885 13.7741L2.10332 11.1879C2.1809 10.9914 2.37228 10.8621 2.58435 10.8621H4.65329C4.93777 10.8621 5.17052 11.0948 5.17052 11.3793C5.17052 11.6638 4.93777 11.8965 4.65329 11.8965H2.93607L2.03091 14.1569C1.94815 14.3586 1.75677 14.4827 1.54988 14.4827Z" fill="black"/>
<path d="M2.587 21.2067C2.47321 21.2067 2.35942 21.1705 2.26632 21.0929C2.04391 20.9171 2.0077 20.5912 2.18356 20.3636L4.13871 17.9223V12.931C4.13871 12.7913 4.1956 12.662 4.28871 12.5637L5.84041 11.012C6.04214 10.8103 6.36799 10.8103 6.56972 11.012C6.77144 11.2137 6.77144 11.5396 6.56972 11.7413L5.17318 13.143V18.1033C5.17318 18.2223 5.1318 18.3361 5.05939 18.424L2.99045 21.0102C2.887 21.1395 2.737 21.2067 2.587 21.2067Z" fill="black"/>
<path d="M22.2414 6.72414H18.6208C18.3363 6.72414 18.1035 6.49138 18.1035 6.2069C18.1035 5.92242 18.3363 5.68966 18.6208 5.68966H22.0293L24.8276 2.89142V2.06902H22.2414C21.9569 2.06902 21.7242 1.83626 21.7242 1.55178C21.7242 1.2673 21.9569 1.03455 22.2414 1.03455H25.3448C25.6293 1.03455 25.862 1.2673 25.862 1.55178V3.10349C25.862 3.24314 25.8052 3.37245 25.712 3.47072L22.6086 6.57414C22.5104 6.66724 22.3811 6.72414 22.2414 6.72414Z" fill="black"/>
<path d="M27.413 6.20691H25.344C25.2044 6.20691 25.0751 6.15001 24.9768 6.05691L23.9423 5.02244C23.7406 4.82072 23.7406 4.49486 23.9423 4.29314C24.144 4.09142 24.4699 4.09142 24.6716 4.29314L25.5561 5.17244H27.413C27.6974 5.17244 27.9302 5.40519 27.9302 5.68967C27.9302 5.97415 27.6974 6.20691 27.413 6.20691Z" fill="black"/>
<path d="M27.4122 21.2066C27.3036 21.2066 27.195 21.1756 27.1019 21.1032L25.033 19.5515C24.9037 19.4532 24.8261 19.298 24.8261 19.1377V17.586H22.2399C21.9554 17.586 21.7227 17.3532 21.7227 17.0687C21.7227 16.7843 21.9554 16.5515 22.2399 16.5515H25.3433C25.6278 16.5515 25.8605 16.7843 25.8605 17.0687V18.8791L27.7226 20.2756C27.9502 20.4463 27.9967 20.7722 27.826 20.9997C27.7226 21.1342 27.5674 21.2066 27.4122 21.2066Z" fill="black"/>
<path d="M23.2746 23.793C23.1401 23.793 23.0108 23.7412 22.9074 23.643L21.5108 22.2413H19.654C19.3695 22.2413 19.1367 22.0085 19.1367 21.724C19.1367 21.4395 19.3695 21.2068 19.654 21.2068H21.7229C21.8625 21.2068 21.9919 21.2637 22.0901 21.3568L23.6418 22.9085C23.8436 23.1102 23.8436 23.4361 23.6418 23.6378C23.5384 23.7412 23.4091 23.793 23.2746 23.793Z" fill="black"/>
<path d="M26.8962 28.9652H22.7583C22.6186 28.9652 22.4893 28.9083 22.3911 28.8152L21.5118 27.9307H18.1032C17.8187 27.9307 17.5859 27.6979 17.5859 27.4135V25.8618C17.5859 25.7221 17.6428 25.5928 17.7359 25.4945L20.1721 23.0635V22.2411C20.1721 21.9566 20.4049 21.7239 20.6893 21.7239C20.9738 21.7239 21.2066 21.9566 21.2066 22.2411V23.2756C21.2066 23.4152 21.1497 23.5445 21.0566 23.6428L18.6204 26.0738V26.8962H21.7238C21.8635 26.8962 21.9928 26.9531 22.0911 27.0462L22.9704 27.9307H26.8962C27.1807 27.9307 27.4134 28.1635 27.4134 28.4479C27.4134 28.7324 27.1807 28.9652 26.8962 28.9652Z" fill="black"/>
</svg>
