<svg width="31" height="29" viewBox="0 0 31 29" fill="none" xmlns="http://www.w3.org/2000/svg">
<path fill-rule="evenodd" clip-rule="evenodd" d="M18.1299 11.6684L17.8154 12.2073C17.768 12.2906 17.7532 12.3881 17.7739 12.4815C17.7945 12.5748 17.8492 12.6573 17.9274 12.7134L17.9342 12.718C17.9416 12.723 17.949 12.7273 17.9564 12.7317L19.6442 13.6959C19.7314 13.7444 19.834 13.7582 19.9312 13.7345C20.0283 13.7109 20.1127 13.6515 20.1671 13.5685L20.1739 13.5542L20.4886 13.0156C20.4907 13.0104 20.4907 13.0045 20.4886 12.9993C20.4871 12.9937 20.4835 12.9888 20.4785 12.9857L18.177 11.6717L18.1578 11.6614C18.1525 11.6593 18.1466 11.6593 18.1413 11.6614C18.1359 11.6624 18.131 11.6654 18.1275 11.6697L18.1299 11.6684ZM15.1032 16.8532L14.7888 17.3918C14.7866 17.3976 14.7866 17.404 14.7888 17.4098C14.7895 17.4125 14.7908 17.4151 14.7925 17.4174C14.7942 17.4197 14.7964 17.4216 14.7989 17.4231L17.1193 18.7477C17.1246 18.7498 17.1305 18.7498 17.1358 18.7477C17.1403 18.7465 17.1443 18.744 17.1472 18.7404L17.462 18.2018L17.4694 18.1895C17.512 18.1068 17.5234 18.0118 17.5015 17.9215C17.4796 17.8312 17.4259 17.7517 17.35 17.697L17.3436 17.6927C17.3362 17.6877 17.3285 17.6831 17.3208 17.6784L15.6329 16.7142L15.6205 16.7069C15.5315 16.662 15.4286 16.6521 15.3327 16.6794C15.2367 16.7067 15.1548 16.7691 15.1036 16.8539L15.1032 16.8532ZM26.7504 22.7914L25.1846 24.2511L24.9203 24.4978C24.9056 24.5115 24.8937 24.5279 24.8855 24.5462C24.8772 24.5645 24.8727 24.5842 24.8722 24.6042C24.8715 24.6245 24.8748 24.6448 24.8821 24.6639C24.8894 24.683 24.9004 24.7004 24.9146 24.7152L27.1943 27.1045L27.2014 27.1125C27.4106 27.3303 27.6982 27.4581 28.0019 27.4681C28.3057 27.4781 28.6012 27.3696 28.8247 27.166L28.8327 27.1593L29.2104 26.8069C29.4321 26.5988 29.5615 26.3123 29.5703 26.0102C29.5791 25.708 29.4665 25.4147 29.2571 25.1943L26.9774 22.8051L26.9707 22.7971C26.9434 22.769 26.9064 22.7521 26.8671 22.7498C26.8278 22.7474 26.789 22.7598 26.7585 22.7845L26.7504 22.7914ZM22.3527 17.1169L19.0681 15.483L18.5973 16.29L21.6468 18.2699C21.9341 17.9191 22.1717 17.5311 22.353 17.1169H22.3527ZM23.1208 17.0504C23.1174 17.061 23.1137 17.0713 23.1094 17.0816C22.8049 17.9076 22.3098 18.6521 21.6633 19.2558L21.6552 19.2624C20.5486 20.294 19.0733 20.8495 17.5529 20.8069C16.0325 20.7643 14.5913 20.1272 13.5455 19.0353L13.5388 19.027C12.4954 17.9329 11.9336 16.4743 11.9766 14.9712C12.0197 13.4681 12.6641 12.0433 13.7685 11.0094L13.7766 11.0027C14.8832 9.97109 16.3586 9.41563 17.8789 9.4582C19.3993 9.50077 20.8405 10.1379 21.8863 11.2298L21.893 11.2381C22.6196 12.0009 23.1188 12.9474 23.3356 13.9731C23.5524 14.9988 23.4783 16.0637 23.1215 17.0504H23.1208ZM19.4145 14.8892L19.6893 14.4184C19.8976 14.4471 20.1098 14.415 20.3 14.326C20.4901 14.2371 20.6497 14.0951 20.7593 13.9176C20.7641 13.9107 20.7688 13.9033 20.7731 13.896L21.0758 13.3777C21.0869 13.3614 21.0966 13.3441 21.1047 13.3261C21.1857 13.1701 21.205 12.9898 21.1589 12.8205C21.1128 12.6511 21.0045 12.5048 20.8552 12.4101C20.8372 12.3973 20.8181 12.3862 20.798 12.3769L18.5243 11.0802L18.5069 11.0692C18.4256 11.0228 18.336 10.9927 18.243 10.9806C18.15 10.9685 18.0555 10.9747 17.9649 10.9987C17.8743 11.0228 17.7894 11.0643 17.7151 11.1208C17.6407 11.1773 17.5784 11.2478 17.5316 11.3282L17.2172 11.8669C17.11 12.0507 17.0607 12.2621 17.0756 12.4738C17.0905 12.6856 17.169 12.8881 17.3009 13.0555L15.5878 15.9894C15.375 15.9599 15.158 15.994 14.9649 16.0873C14.7718 16.1806 14.6112 16.3289 14.504 16.5131L14.1895 17.0517C14.1424 17.1319 14.1118 17.2205 14.0994 17.3124C14.087 17.4043 14.093 17.4977 14.1173 17.5873C14.1415 17.6769 14.1833 17.7609 14.2405 17.8344C14.2976 17.908 14.3689 17.9697 14.4502 18.0159L16.7706 19.3405C16.8517 19.3871 16.9413 19.4174 17.0343 19.4296C17.1273 19.4419 17.2218 19.4358 17.3124 19.4119C17.403 19.3879 17.488 19.3465 17.5624 19.2899C17.6367 19.2334 17.6991 19.1629 17.7458 19.0825L18.0606 18.5439C18.065 18.5362 18.069 18.5286 18.073 18.5206C18.174 18.3382 18.2187 18.1304 18.2015 17.9231C18.1844 17.7158 18.1062 17.5181 17.9765 17.3542L18.252 16.8828L21.1706 18.778C20.1957 19.6827 18.8975 20.1682 17.5609 20.1279C16.2244 20.0875 14.9586 19.5247 14.0412 18.5628L14.0342 18.5549C13.118 17.5911 12.626 16.3073 12.6663 14.9852C12.7066 13.6632 13.2758 12.4109 14.2491 11.5034L14.2571 11.4968C15.2319 10.591 16.5303 10.1046 17.8674 10.1444C19.2045 10.1842 20.471 10.7469 21.3889 11.7089L21.3956 11.7172C21.9892 12.342 22.4103 13.1072 22.6184 13.9394C22.8264 14.7715 22.8145 15.6426 22.5837 16.4688L19.4142 14.8922L19.4145 14.8892ZM18.6236 14.8789L17.4183 16.9433L16.2248 16.2617L17.8595 13.4628L19.0527 14.1441L18.6444 14.8423C18.6369 14.853 18.6301 14.8641 18.6239 14.8755L18.6236 14.8789ZM6.64481 6.15669L7.05609 5.71315C7.08666 5.68012 7.1235 5.65337 7.16452 5.63441C7.20554 5.61546 7.24993 5.60468 7.29516 5.60269C7.3404 5.6007 7.38558 5.60753 7.42814 5.62281C7.4707 5.63808 7.50981 5.66149 7.54321 5.69171C7.57662 5.72192 7.60369 5.75835 7.62286 5.7989C7.64203 5.83946 7.65293 5.88335 7.65495 5.92807C7.65696 5.97279 7.65005 6.01747 7.6346 6.05955C7.61915 6.10163 7.59547 6.14029 7.56491 6.17332L7.08636 6.69001C7.41734 7.22609 7.53032 7.86635 7.40251 8.48157C7.2747 9.0968 6.91562 9.64119 6.39772 10.0049C5.87983 10.3686 5.24167 10.5246 4.61202 10.4413C3.98238 10.358 3.40813 10.0417 3.00514 9.55616C2.60216 9.07064 2.40044 8.45207 2.4407 7.82526C2.48096 7.19846 2.7602 6.61008 3.22206 6.17887C3.68393 5.74765 4.29404 5.5057 4.92928 5.50183C5.56452 5.49796 6.1776 5.73247 6.64481 6.15802V6.15669ZM3.88418 8.06418C3.80966 8.01456 3.7576 7.93821 3.73904 7.85129C3.72048 7.76437 3.73687 7.67373 3.78474 7.59856C3.83262 7.52338 3.90821 7.46959 3.99551 7.44858C4.08281 7.42757 4.17496 7.44098 4.25242 7.48598L4.98722 7.94482L6.17635 6.66175C5.84628 6.36033 5.41459 6.19111 4.96528 6.187C4.51598 6.18289 4.0812 6.3442 3.74555 6.63953C3.40989 6.93486 3.19737 7.34309 3.14934 7.78478C3.1013 8.22648 3.22119 8.67004 3.48567 9.02917C3.75016 9.3883 4.14032 9.63729 4.58023 9.72772C5.02015 9.81814 5.47836 9.74351 5.8657 9.51836C6.25304 9.29321 6.5418 8.93364 6.6758 8.50961C6.8098 8.08559 6.77946 7.62744 6.59066 7.22432L5.31275 8.60115C5.25945 8.6659 5.18401 8.70913 5.10068 8.72266C5.01736 8.7362 4.9319 8.71911 4.86044 8.67463L3.8825 8.06418H3.88418ZM6.64481 13.2739L7.05609 12.8304C7.08666 12.7974 7.1235 12.7706 7.16452 12.7517C7.20554 12.7327 7.24993 12.7219 7.29516 12.7199C7.3404 12.7179 7.38558 12.7248 7.42814 12.7401C7.4707 12.7553 7.50981 12.7787 7.54321 12.809C7.57662 12.8392 7.60369 12.8756 7.62286 12.9162C7.64203 12.9567 7.65293 13.0006 7.65495 13.0453C7.65696 13.09 7.65005 13.1347 7.6346 13.1768C7.61915 13.2189 7.59547 13.2575 7.56491 13.2906L7.08636 13.8069C7.41756 14.3433 7.53065 14.9839 7.40281 15.5995C7.27496 16.2151 6.91571 16.7598 6.39753 17.1237C5.87935 17.4876 5.24084 17.6437 4.61084 17.5604C3.98084 17.4771 3.40626 17.1606 3.00305 16.6748C2.59984 16.189 2.39802 15.5701 2.43831 14.9429C2.47861 14.3158 2.75802 13.7271 3.22016 13.2956C3.6823 12.8642 4.29277 12.6221 4.92837 12.6183C5.56396 12.6144 6.17737 12.8491 6.64481 13.2749V13.2739ZM3.88418 15.1811C3.8458 15.1572 3.81257 15.1261 3.78636 15.0894C3.76016 15.0528 3.74151 15.0115 3.73147 14.9678C3.72143 14.924 3.7202 14.8788 3.72785 14.8346C3.7355 14.7904 3.75188 14.7481 3.77606 14.7101C3.80024 14.6722 3.83174 14.6393 3.86877 14.6134C3.90579 14.5875 3.94762 14.5691 3.99185 14.5591C4.03608 14.5492 4.08186 14.548 4.12657 14.5556C4.17128 14.5631 4.21404 14.5793 4.25242 14.6032L4.98722 15.0617L6.17635 13.779C5.84628 13.4776 5.41459 13.3084 4.96528 13.3043C4.51598 13.3001 4.0812 13.4615 3.74555 13.7568C3.40989 14.0521 3.19737 14.4603 3.14934 14.902C3.1013 15.3437 3.22119 15.7873 3.48567 16.1464C3.75016 16.5056 4.14032 16.7545 4.58023 16.845C5.02015 16.9354 5.47836 16.8608 5.8657 16.6356C6.25304 16.4105 6.5418 16.0509 6.6758 15.6269C6.8098 15.2028 6.77946 14.7447 6.59066 14.3416L5.31275 15.7181C5.25954 15.7829 5.18412 15.8263 5.10077 15.8399C5.01742 15.8535 4.93192 15.8364 4.86044 15.7919L3.88418 15.1811ZM6.64481 20.3912L7.05609 19.9473C7.11859 19.8835 7.20378 19.8463 7.29358 19.8437C7.38337 19.841 7.47068 19.873 7.53694 19.933C7.60321 19.993 7.6432 20.0761 7.64842 20.1648C7.65364 20.2535 7.62368 20.3407 7.56491 20.4078L7.08636 20.9242C7.41756 21.4605 7.53065 22.1012 7.40281 22.7167C7.27496 23.3323 6.91571 23.877 6.39753 24.241C5.87935 24.6049 5.24084 24.7609 4.61084 24.6776C3.98084 24.5943 3.40626 24.2778 3.00305 23.792C2.59984 23.3062 2.39802 22.6873 2.43831 22.0602C2.47861 21.433 2.75802 20.8443 3.22016 20.4129C3.6823 19.9814 4.29277 19.7394 4.92837 19.7355C5.56396 19.7317 6.17737 19.9664 6.64481 20.3922V20.3912ZM3.88418 22.2984C3.84427 22.2752 3.80947 22.2443 3.78186 22.2076C3.75424 22.1708 3.73437 22.129 3.72342 22.0845C3.71247 22.04 3.71066 21.9939 3.71811 21.9487C3.72555 21.9035 3.7421 21.8603 3.76677 21.8215C3.79144 21.7828 3.82372 21.7494 3.8617 21.7232C3.89969 21.697 3.9426 21.6787 3.9879 21.6692C4.03319 21.6598 4.07994 21.6594 4.12538 21.6682C4.17082 21.6769 4.21402 21.6946 4.25242 21.7202L4.98722 22.179L6.17635 20.8963C5.84628 20.5948 5.41459 20.4256 4.96528 20.4215C4.51598 20.4174 4.0812 20.5787 3.74555 20.874C3.40989 21.1694 3.19737 21.5776 3.14934 22.0193C3.1013 22.461 3.22119 22.9046 3.48567 23.2637C3.75016 23.6228 4.14032 23.8718 4.58023 23.9622C5.02015 24.0526 5.47836 23.978 5.8657 23.7529C6.25304 23.5277 6.5418 23.1681 6.6758 22.7441C6.8098 22.3201 6.77946 21.8619 6.59066 21.4588L5.31275 22.8353C5.25949 22.9001 5.18408 22.9434 5.10075 22.957C5.01742 22.9706 4.93194 22.9536 4.86044 22.9091L3.8825 22.2984H3.88418ZM1.07849 3.73584H2.77206C2.88862 3.73523 3.00023 3.68918 3.08265 3.60769C3.16507 3.5262 3.21165 3.41586 3.21227 3.30062V1.17967L1.07849 3.73584ZM9.21476 23.6762C9.16834 23.6776 9.1221 23.6698 9.0788 23.6532C9.03549 23.6367 8.99599 23.6117 8.96264 23.5797C8.9293 23.5477 8.90278 23.5095 8.88468 23.4672C8.86657 23.4249 8.85724 23.3795 8.85724 23.3336C8.85724 23.2876 8.86657 23.2422 8.88468 23.1999C8.90278 23.1576 8.9293 23.1194 8.96264 23.0874C8.99599 23.0555 9.03549 23.0305 9.0788 23.0139C9.1221 22.9973 9.16834 22.9895 9.21476 22.9909H17.8447C17.8911 22.9895 17.9374 22.9973 17.9807 23.0139C18.024 23.0305 18.0635 23.0555 18.0968 23.0874C18.1302 23.1194 18.1567 23.1576 18.1748 23.1999C18.1929 23.2422 18.2022 23.2876 18.2022 23.3336C18.2022 23.3795 18.1929 23.4249 18.1748 23.4672C18.1567 23.5095 18.1302 23.5477 18.0968 23.5797C18.0635 23.6117 18.024 23.6367 17.9807 23.6532C17.9374 23.6698 17.8911 23.6776 17.8447 23.6762H9.21476ZM9.21476 7.20304C9.16834 7.20447 9.1221 7.19666 9.0788 7.18009C9.03549 7.16351 8.99599 7.1385 8.96264 7.10655C8.9293 7.07459 8.90278 7.03633 8.88468 6.99405C8.86657 6.95177 8.85724 6.90632 8.85724 6.86041C8.85724 6.81449 8.86657 6.76904 8.88468 6.72676C8.90278 6.68448 8.9293 6.64623 8.96264 6.61427C8.99599 6.58231 9.03549 6.5573 9.0788 6.54073C9.1221 6.52415 9.16834 6.51635 9.21476 6.51778H17.8447C17.8911 6.51635 17.9374 6.52415 17.9807 6.54073C18.024 6.5573 18.0635 6.58231 18.0968 6.61427C18.1302 6.64623 18.1567 6.68448 18.1748 6.72676C18.1929 6.76904 18.2022 6.81449 18.2022 6.86041C18.2022 6.90632 18.1929 6.95177 18.1748 6.99405C18.1567 7.03633 18.1302 7.07459 18.0968 7.10655C18.0635 7.1385 18.024 7.16351 17.9807 7.18009C17.9374 7.19666 17.8911 7.20447 17.8447 7.20304H9.21476ZM9.21476 9.44202H13.1494C12.9864 9.57014 12.8277 9.70601 12.6732 9.84965C11.6344 10.8155 10.9038 12.0605 10.5714 13.4315H9.21476C9.16834 13.4301 9.1221 13.4379 9.0788 13.4545C9.03549 13.4711 8.99599 13.4961 8.96264 13.528C8.9293 13.56 8.90278 13.5983 8.88468 13.6405C8.86657 13.6828 8.85724 13.7283 8.85724 13.7742C8.85724 13.8201 8.86657 13.8655 8.88468 13.9078C8.90278 13.9501 8.9293 13.9884 8.96264 14.0203C8.99599 14.0523 9.03549 14.0773 9.0788 14.0939C9.1221 14.1104 9.16834 14.1182 9.21476 14.1168H10.4385C10.3647 14.6312 10.347 15.152 10.3857 15.6702H9.21476C9.16834 15.6688 9.1221 15.6766 9.0788 15.6931C9.03549 15.7097 8.99599 15.7347 8.96264 15.7667C8.9293 15.7986 8.90278 15.8369 8.88468 15.8792C8.86657 15.9215 8.85724 15.9669 8.85724 16.0128C8.85724 16.0587 8.86657 16.1042 8.88468 16.1465C8.90278 16.1887 8.9293 16.227 8.96264 16.259C8.99599 16.2909 9.03549 16.3159 9.0788 16.3325C9.1221 16.3491 9.16834 16.3569 9.21476 16.3555H10.4695C10.7107 17.7694 11.3718 19.0805 12.3688 20.1219C12.5824 20.3464 12.8101 20.5574 13.0505 20.7536H9.21476C9.16834 20.7522 9.1221 20.76 9.0788 20.7766C9.03549 20.7931 8.99599 20.8181 8.96264 20.8501C8.9293 20.8821 8.90278 20.9203 8.88468 20.9626C8.86657 21.0049 8.85724 21.0503 8.85724 21.0962C8.85724 21.1422 8.86657 21.1876 8.88468 21.2299C8.90278 21.2722 8.9293 21.3104 8.96264 21.3424C8.99599 21.3743 9.03549 21.3993 9.0788 21.4159C9.1221 21.4325 9.16834 21.4403 9.21476 21.4389H14.0513C15.0748 22.0196 16.2246 22.3485 17.4036 22.3979C18.5826 22.4473 19.7564 22.2158 20.8259 21.7228V25.6139C20.8261 25.6709 20.8149 25.7274 20.7929 25.78C20.7709 25.8327 20.7386 25.8805 20.6978 25.9208C20.6571 25.9614 20.6087 25.9936 20.5554 26.0156C20.5021 26.0377 20.4449 26.0491 20.3871 26.0492H1.13163C1.01487 26.0491 0.90289 26.0033 0.820218 25.9218C0.779173 25.8816 0.746598 25.8338 0.724375 25.781C0.702151 25.7283 0.690721 25.6717 0.690745 25.6146V4.4211H2.77139C3.07176 4.42058 3.35968 4.30234 3.57205 4.09232C3.78442 3.88229 3.90391 3.5976 3.90436 3.30062V0.684262H20.3857C20.4435 0.684238 20.5007 0.695539 20.5541 0.717511C20.6074 0.739483 20.6558 0.77169 20.6965 0.81227C20.7008 0.816592 20.7052 0.820915 20.7099 0.824905C20.7846 0.905251 20.826 1.01039 20.8259 1.11949V8.54795C19.7793 8.0662 18.6328 7.83434 17.4789 7.87107C16.325 7.9078 15.1959 8.21209 14.1828 8.75942C14.163 8.75608 14.143 8.75441 14.1229 8.75443H9.21476C9.16834 8.753 9.1221 8.7608 9.0788 8.77738C9.03549 8.79395 8.99599 8.81896 8.96264 8.85092C8.9293 8.88288 8.90278 8.92113 8.88468 8.96341C8.86657 9.0057 8.85724 9.05114 8.85724 9.09706C8.85724 9.14297 8.86657 9.18842 8.88468 9.2307C8.90278 9.27298 8.9293 9.31124 8.96264 9.3432C8.99599 9.37515 9.03549 9.40016 9.0788 9.41674C9.1221 9.43331 9.16834 9.44112 9.21476 9.43969V9.44202ZM2.72195 26.7351V27.8805C2.72257 27.9957 2.76911 28.1059 2.85147 28.1874C2.93383 28.2688 3.04535 28.3148 3.16182 28.3154H22.4163C22.5327 28.3148 22.6443 28.2688 22.7266 28.1874C22.809 28.1059 22.8555 27.9957 22.8561 27.8805V22.3087L22.8534 22.306C22.801 22.3129 22.748 22.3157 22.6951 22.3143C22.5704 22.311 22.4476 22.2834 22.3337 22.2331C22.2199 22.1828 22.1172 22.1107 22.0315 22.0211L21.519 21.4838V25.6139C21.5188 25.761 21.4892 25.9065 21.432 26.0422C21.3748 26.1779 21.2911 26.3012 21.1858 26.4049C21.0807 26.5091 20.956 26.5918 20.8186 26.6482C20.6812 26.7046 20.5338 26.7337 20.3851 26.7338L2.72195 26.7351ZM23.5492 21.8957L24.2746 21.2191L25.7594 22.7751L24.9617 23.5193L23.5492 22.039V21.8957ZM22.8561 9.94108V3.38507C22.8555 3.26988 22.809 3.15959 22.7266 3.07811C22.6443 2.99663 22.5328 2.95054 22.4163 2.94984H21.519V8.91369C22.0034 9.20342 22.4521 9.54774 22.8561 9.93975V9.94108ZM22.9459 11.0602C23.8433 12.1874 24.3441 13.5734 24.3723 15.0076C24.4004 16.4418 23.9544 17.8459 23.102 19.0067L22.9338 19.2358L23.9155 20.2649L23.9222 20.2728C23.9656 20.3224 23.9881 20.3866 23.9849 20.452C23.9818 20.5175 23.9533 20.5793 23.9054 20.6246L23.897 20.6313L22.9833 21.4834C22.9713 21.4938 22.9601 21.5049 22.9496 21.5167L22.9002 21.5629C22.8755 21.5859 22.8465 21.6039 22.8147 21.6158C22.783 21.6276 22.7492 21.6332 22.7152 21.6321C22.6817 21.6312 22.6486 21.6238 22.6179 21.6102C22.5873 21.5966 22.5596 21.5771 22.5367 21.5529L21.5537 20.5222L21.3126 20.6755C21.2164 20.7367 21.1191 20.7951 21.0206 20.8507C21.0083 20.8566 20.9964 20.8634 20.985 20.871C19.972 21.4347 18.8274 21.7264 17.6649 21.7171C16.5025 21.7077 15.3628 21.3977 14.3592 20.8178C13.3556 20.2379 12.523 19.4083 11.9443 18.4115C11.3655 17.4148 11.0608 16.2856 11.0604 15.1363C11.06 13.987 11.3639 12.8576 11.942 11.8605C12.52 10.8633 13.352 10.0332 14.3552 9.45256C15.3584 8.87195 16.4979 8.56113 17.6603 8.55099C18.8227 8.54086 19.9676 8.83177 20.981 9.3948C20.9947 9.40387 21.0091 9.41198 21.024 9.41907C21.5926 9.74126 22.11 10.1446 22.5595 10.616C22.6864 10.749 22.8065 10.8856 22.9197 11.0257C22.9281 11.0372 22.9372 11.0484 22.9469 11.0589L22.9459 11.0602ZM21.519 2.26392H22.4163C22.7166 2.26471 23.0043 2.38302 23.2166 2.59299C23.4289 2.80296 23.5485 3.0875 23.5492 3.3844V10.7138C24.4833 11.9189 25.0121 13.383 25.0615 14.9005C25.1109 16.4179 24.6784 17.9126 23.8247 19.1746L24.4112 19.7891L24.4179 19.797C24.5032 19.8865 24.5698 19.9917 24.6139 20.1067C24.658 20.2217 24.6787 20.3441 24.6748 20.467C24.6732 20.5197 24.6673 20.5722 24.657 20.6239L26.2621 22.3063L26.2682 22.301L26.2762 22.294C26.4388 22.1436 26.6545 22.0623 26.8771 22.0675C27.0996 22.0728 27.3112 22.1641 27.4664 22.322L27.4731 22.3299L29.7599 24.7269C30.0946 25.0794 30.2744 25.5487 30.2601 26.0321C30.2457 26.5154 30.0383 26.9734 29.6832 27.306L29.3133 27.6511L29.3049 27.6577C28.9499 27.9875 28.4776 28.1655 27.9906 28.1531C27.5036 28.1406 27.0413 27.9387 26.704 27.5912L26.6973 27.5833L24.4105 25.1864C24.257 25.0244 24.1746 24.809 24.1812 24.5872C24.1878 24.3653 24.2829 24.1551 24.4458 24.0024L24.4586 23.9904L23.5506 23.0375V27.8798C23.5499 28.1767 23.4303 28.4612 23.218 28.6711C23.0056 28.8811 22.7179 28.9993 22.4176 29H3.16182C2.86156 28.9993 2.5738 28.8811 2.36148 28.6711C2.14916 28.4612 2.02956 28.1767 2.02885 27.8798V26.7351H1.13163C0.983062 26.7348 0.836008 26.7056 0.698893 26.6491C0.561779 26.5925 0.4373 26.5098 0.332593 26.4056C0.227212 26.3018 0.143589 26.1784 0.0865167 26.0425C0.0294443 25.9067 4.39596e-05 25.761 0 25.6139V4.06867C0 4.05969 0 4.05138 0 4.04273C0.00530281 3.99223 0.0218401 3.94353 0.0484262 3.90009C0.0624974 3.87779 0.0789587 3.85706 0.0975249 3.83825L3.19747 0.124351C3.22987 0.0854317 3.27059 0.0540946 3.3167 0.0325932C3.36281 0.0110918 3.41317 -3.9459e-05 3.46415 1.05098e-07H20.3857C20.5345 4.35674e-05 20.6818 0.0291115 20.8192 0.0855383C20.9566 0.141965 21.0814 0.224642 21.1864 0.328832C21.1935 0.336146 21.2002 0.343461 21.207 0.351108C21.4069 0.558127 21.5186 0.833249 21.519 1.11949V2.26392Z" fill="black"/>
</svg>
