<svg width="28" height="29" viewBox="0 0 28 29" fill="none" xmlns="http://www.w3.org/2000/svg">
<path d="M25.5409 4.32376H21.0335V1.95039C21.0335 1.7196 20.8717 1.5203 20.6461 1.47275L13.7071 0.0104493C13.6408 -0.00348311 13.5723 -0.00348311 13.5057 0.0104493L6.56703 1.47275C6.34109 1.5203 6.17965 1.7196 6.17965 1.95039V4.32406H2.45908C1.10309 4.32406 0 5.42715 0 6.78314V20.5935C0 21.9495 1.10309 23.0526 2.45908 23.0526H10.7586V24.5964H5.94159C4.88696 24.5964 4.0289 25.4545 4.0289 26.5091C4.0289 27.5637 4.88696 28.4218 5.94159 28.4218H22.0587C23.1133 28.4218 23.9714 27.5637 23.9714 26.5091C23.9714 25.4545 23.1133 24.5964 22.0587 24.5964H16.7986V23.0526H25.5409C26.8969 23.0526 28 21.9495 28 20.5935V6.78284C27.9997 5.42715 26.8969 4.32376 25.5409 4.32376ZM23.2745 13.05C23.5898 13.5734 24.1604 13.8947 24.7704 13.8947C24.7819 13.8947 24.7934 13.8947 24.8046 13.8944C24.8767 13.8917 24.9309 13.9402 24.9424 14.0089C25.0139 14.4421 25.0227 14.8815 24.9682 15.3153C24.9594 15.3846 24.9046 15.4337 24.8346 15.4349C24.2113 15.4455 23.637 15.7905 23.3357 16.3357C23.0343 16.8808 23.0476 17.5508 23.3702 18.0842C23.4062 18.1441 23.3938 18.2168 23.3399 18.2611C23.0016 18.5379 22.6248 18.7644 22.2201 18.9341C22.1556 18.961 22.086 18.938 22.0499 18.8783C21.7346 18.3537 21.1634 18.0315 20.5531 18.0315C20.5425 18.0315 20.5316 18.0315 20.521 18.0318C19.8986 18.0433 19.3249 18.3898 19.0245 18.9356C18.9905 18.9968 18.9215 19.0222 18.8561 18.9977C18.6528 18.9207 18.4529 18.8281 18.2618 18.7226C18.0707 18.6169 17.8859 18.497 17.7127 18.3659C17.657 18.3238 17.6418 18.2514 17.6757 18.1905C17.978 17.6456 17.9662 16.9759 17.6449 16.4423C17.3296 15.9189 16.7586 15.5975 16.1489 15.5975C16.1374 15.5975 16.1262 15.5975 16.1147 15.5978C16.0435 15.5981 15.9881 15.5521 15.9769 15.4834C15.9054 15.0502 15.8966 14.6108 15.9511 14.177C15.9599 14.1077 16.0148 14.0583 16.0847 14.0574C16.708 14.0468 17.2823 13.7018 17.5837 13.1566C17.885 12.6114 17.8717 11.9415 17.5491 11.4081C17.5131 11.3484 17.5255 11.2758 17.5797 11.2315C17.9177 10.9547 18.2945 10.7281 18.6995 10.5585C18.7637 10.5316 18.8337 10.5543 18.8697 10.6143C19.1904 11.1482 19.778 11.4729 20.3986 11.4611C21.021 11.4496 21.5947 11.1031 21.8952 10.5573C21.9288 10.4961 21.9981 10.4707 22.0636 10.4952C22.2665 10.5722 22.4664 10.6645 22.6578 10.7702C22.8492 10.8763 23.034 10.9962 23.2069 11.127C23.2627 11.1691 23.2778 11.2415 23.2439 11.3024C22.9413 11.847 22.9531 12.5166 23.2745 13.05ZM7.15583 2.34626L13.6066 0.986933L20.0573 2.34626V8.72066C20.0573 9.24252 19.9913 9.77013 19.8613 10.2947C19.8011 10.2423 19.7483 10.1808 19.7062 10.1106C19.4188 9.63202 18.8361 9.44181 18.3215 9.65746C17.8296 9.86373 17.372 10.139 16.961 10.4755C16.5281 10.8299 16.4242 11.4345 16.7138 11.913C16.8562 12.1483 16.8622 12.4437 16.7292 12.6838C16.5963 12.924 16.3431 13.0761 16.0681 13.0809C15.5089 13.0903 15.0522 13.5001 14.9825 14.055C14.9162 14.5823 14.9268 15.1163 15.0137 15.6424C15.0216 15.6893 15.0328 15.7344 15.0458 15.7787C14.5718 15.971 14.09 16.1097 13.6066 16.1915C10.1022 15.6006 7.15613 12.1977 7.15613 8.72096L7.15583 2.34626ZM16.3104 25.5723H22.0584C22.5748 25.5723 22.9949 25.9924 22.9949 26.5088C22.9949 27.0252 22.5748 27.4453 22.0584 27.4453H5.94159C5.42518 27.4453 5.00508 27.0252 5.00508 26.5088C5.00508 25.9924 5.42518 25.5723 5.94159 25.5723H11.2468C11.5164 25.5723 11.7351 25.3536 11.7351 25.084V23.052H15.8224V25.084C15.8221 25.3536 16.0408 25.5723 16.3104 25.5723ZM27.0235 20.5932C27.0235 21.4107 26.3584 22.0758 25.5409 22.0758H2.45908C1.64161 22.0758 0.976484 21.4107 0.976484 20.5932V6.78284C0.976484 5.96536 1.64161 5.30024 2.45908 5.30024H6.17965V8.72066C6.17965 10.6718 6.96683 12.6351 8.39643 14.2485C9.77937 15.8092 11.6509 16.8736 13.5311 17.168C13.5563 17.1719 13.5814 17.1737 13.6066 17.1737C13.6317 17.1737 13.6571 17.1719 13.682 17.168C14.391 17.0568 15.0952 16.8396 15.7794 16.5234C15.8842 16.5555 15.9954 16.5737 16.1108 16.5737C16.1183 16.5737 16.1259 16.5737 16.1335 16.5734C16.4076 16.5664 16.6665 16.7106 16.8083 16.9454C16.9497 17.1804 16.9549 17.4757 16.8216 17.7162C16.5502 18.2056 16.6772 18.8059 17.1233 19.1437C17.3335 19.3027 17.5573 19.4483 17.7893 19.5765C18.021 19.7046 18.2636 19.817 18.5102 19.9102C18.6419 19.9602 18.7767 19.9838 18.9097 19.9838C19.304 19.9838 19.6772 19.7727 19.8792 19.4062C20.0119 19.1655 20.2648 19.0128 20.5389 19.0077C20.5437 19.0077 20.5483 19.0077 20.5531 19.0077C20.8221 19.0077 21.0738 19.15 21.2131 19.3814C21.5005 19.86 22.0829 20.0505 22.5975 19.8345C23.0894 19.6283 23.5471 19.3529 23.9581 19.0164C24.3909 18.6621 24.4948 18.0575 24.2052 17.579C24.0629 17.3436 24.0568 17.0483 24.1898 16.8081C24.3224 16.568 24.5759 16.4159 24.8507 16.4114C25.4098 16.402 25.8665 15.9922 25.9365 15.4373C26.0028 14.9103 25.9922 14.376 25.9053 13.8499C25.8141 13.2993 25.344 12.9074 24.7849 12.9186C24.5096 12.9252 24.2519 12.7814 24.1101 12.5466C23.9687 12.3116 23.9635 12.0163 24.0968 11.7758C24.3682 11.2867 24.2413 10.6863 23.7951 10.3483C23.5852 10.1893 23.3611 10.0439 23.1291 9.91552C22.8971 9.7874 22.6548 9.67503 22.4082 9.58175C21.8849 9.38366 21.3091 9.59568 21.0392 10.0857C20.9929 10.1696 20.9314 10.242 20.8599 10.3023C20.9738 9.77589 21.0326 9.24646 21.0326 8.72096V5.30024H25.54C26.3575 5.30024 27.0226 5.96536 27.0226 6.78284V20.5932H27.0235ZM10.4512 8.4935C10.2606 8.30299 10.2606 7.99375 10.4512 7.80324C10.642 7.61273 10.9509 7.61273 11.1414 7.80324L12.6698 9.33157L16.0717 5.92962C16.2625 5.73911 16.5714 5.73911 16.762 5.92962C16.9525 6.12014 16.9525 6.42938 16.762 6.61989L13.015 10.3668C12.9196 10.4622 12.7948 10.5098 12.6698 10.5098C12.5447 10.5098 12.4199 10.4622 12.3245 10.3668L10.4512 8.4935ZM21.5244 12.8198C20.4622 12.2328 19.1208 12.6193 18.5338 13.6812C17.9468 14.7431 18.3333 16.0849 19.3952 16.6719C19.7256 16.8545 20.0891 16.9475 20.4568 16.9475C20.6612 16.9475 20.8672 16.9187 21.0689 16.8605C21.6338 16.6979 22.1014 16.3251 22.3858 15.8105C22.6702 15.2959 22.7372 14.7016 22.5745 14.1367C22.4116 13.5719 22.0387 13.1042 21.5244 12.8198ZM21.5314 15.3383C21.373 15.6245 21.1128 15.832 20.7987 15.9225C20.4846 16.0131 20.1539 15.9758 19.8677 15.8174C19.2768 15.4909 19.0617 14.7443 19.3885 14.1534C19.6118 13.7497 20.0306 13.5216 20.4622 13.5216C20.6624 13.5216 20.8654 13.5707 21.0525 13.6743C21.3388 13.8324 21.5462 14.0928 21.6368 14.4069C21.7268 14.7213 21.6895 15.0521 21.5314 15.3383Z" fill="black"/>
</svg>
