<svg width="29" height="29" viewBox="0 0 29 29" fill="none" xmlns="http://www.w3.org/2000/svg">
<path fill-rule="evenodd" clip-rule="evenodd" d="M14.8301 4.7128C15.656 4.74036 16.4752 4.87241 17.268 5.1058V1.74596C17.2729 1.65879 17.311 1.57682 17.3745 1.51691C17.438 1.457 17.522 1.42369 17.6093 1.42383H20.2694C20.3533 1.03519 20.5779 0.691316 20.9 0.458383C21.2221 0.22545 21.619 0.119921 22.0142 0.162104C22.4094 0.204288 22.7751 0.391203 23.0408 0.686878C23.3066 0.982552 23.4536 1.36609 23.4536 1.76368C23.4536 2.16126 23.3066 2.5448 23.0408 2.84048C22.7751 3.13615 22.4094 3.32307 22.0142 3.36525C21.619 3.40743 21.2221 3.3019 20.9 3.06897C20.5779 2.83604 20.3533 2.49216 20.2694 2.10353H17.9475V5.33452C19.2482 5.82657 20.4294 6.58971 21.4127 7.5733C22.396 8.55688 23.1589 9.73842 23.6509 11.0395H26.8971V8.71691C26.5085 8.63302 26.1648 8.40835 25.9319 8.08615C25.699 7.76394 25.5935 7.36696 25.6357 6.97162C25.6779 6.57628 25.8647 6.21051 26.1603 5.9447C26.4559 5.6789 26.8393 5.53185 27.2368 5.53185C27.6343 5.53185 28.0177 5.6789 28.3133 5.9447C28.6089 6.21051 28.7958 6.57628 28.8379 6.97162C28.8801 7.36696 28.7746 7.76394 28.5417 8.08615C28.3089 8.40835 27.9651 8.63302 27.5766 8.71691V11.3777C27.5767 11.465 27.5434 11.5491 27.4835 11.6126C27.4236 11.6761 27.3417 11.7142 27.2545 11.7192H23.8795C24.1142 12.5174 24.2462 13.3422 24.2724 14.1738H28.6619C28.7515 14.1738 28.8375 14.2095 28.901 14.2729C28.9644 14.3363 29 14.4224 29 14.5121C29 14.6018 28.9644 14.6878 28.901 14.7513C28.8375 14.8147 28.7515 14.8503 28.6619 14.8503H24.2724C24.2449 15.6765 24.1128 16.4959 23.8795 17.2889H27.2384C27.3256 17.2938 27.4075 17.332 27.4674 17.3955C27.5273 17.459 27.5606 17.543 27.5605 17.6303V20.2911C27.8598 20.3553 28.134 20.5053 28.3495 20.7228C28.604 20.9752 28.767 21.3053 28.8128 21.6608C28.8586 22.0163 28.7845 22.377 28.6023 22.6856C28.42 22.9943 28.1401 23.2333 27.8067 23.3649C27.4733 23.4964 27.1056 23.513 26.7618 23.4119C26.418 23.3109 26.1177 23.0979 25.9085 22.8069C25.6992 22.5159 25.5931 22.1633 25.6067 21.8051C25.6204 21.4469 25.7532 21.1035 25.984 20.8293C26.2148 20.5551 26.5304 20.3657 26.881 20.2911V17.9525H23.6509C23.1589 19.2535 22.396 20.4351 21.4127 21.4186C20.4294 22.4022 19.2482 23.1654 17.9475 23.6574V26.9045H20.2694C20.3533 26.5159 20.5779 26.172 20.9 25.9391C21.2221 25.7061 21.619 25.6006 22.0142 25.6428C22.4094 25.685 22.7751 25.8719 23.0408 26.1676C23.3066 26.4633 23.4536 26.8468 23.4536 27.2444C23.4536 27.642 23.3066 28.0255 23.0408 28.3212C22.7751 28.6168 22.4094 28.8038 22.0142 28.8459C21.619 28.8881 21.2221 28.7826 20.9 28.5497C20.5779 28.3167 20.3533 27.9729 20.2694 27.5842H17.6093C17.522 27.5844 17.438 27.5511 17.3745 27.4911C17.311 27.4312 17.2729 27.3493 17.268 27.2621V23.8861C16.4752 24.1195 15.656 24.2516 14.8301 24.2791V28.6698C14.8301 28.7574 14.7953 28.8414 14.7334 28.9033C14.6715 28.9652 14.5875 29 14.5 29C14.4125 29 14.3285 28.9652 14.2666 28.9033C14.2047 28.8414 14.1699 28.7574 14.1699 28.6698V24.2791C13.344 24.2516 12.5248 24.1195 11.732 23.8861V27.246C11.7271 27.3332 11.689 27.4151 11.6255 27.475C11.562 27.5349 11.478 27.5683 11.3907 27.5681H8.71449C8.63062 27.9568 8.40602 28.3006 8.0839 28.5336C7.76178 28.7665 7.36492 28.872 6.96969 28.8298C6.57445 28.7877 6.20878 28.6007 5.94305 28.3051C5.67732 28.0094 5.53031 27.6259 5.53031 27.2283C5.53031 26.8307 5.67732 26.4471 5.94305 26.1515C6.20878 25.8558 6.57445 25.6689 6.96969 25.6267C7.36492 25.5845 7.76178 25.69 8.0839 25.923C8.40602 26.1559 8.63062 26.4998 8.71449 26.8884H11.0364V23.6574C9.73572 23.1654 8.55451 22.4022 7.57119 21.4186C6.58788 20.4351 5.82495 19.2535 5.33304 17.9525H2.08684V20.275C2.47537 20.3589 2.81915 20.5836 3.05202 20.9058C3.28488 21.228 3.39038 21.625 3.34821 22.0203C3.30604 22.4157 3.11918 22.7814 2.82359 23.0472C2.52799 23.313 2.14456 23.4601 1.74709 23.4601C1.34961 23.4601 0.966177 23.313 0.670585 23.0472C0.374993 22.7814 0.188129 22.4157 0.145957 22.0203C0.103785 21.625 0.209286 21.228 0.442154 20.9058C0.675022 20.5836 1.0188 20.3589 1.40733 20.275V17.6142C1.40719 17.5269 1.44049 17.4429 1.50039 17.3794C1.56028 17.3158 1.64223 17.2777 1.72937 17.2728H5.10439C4.87105 16.4798 4.73904 15.6604 4.71149 14.8342H0.338145C0.248464 14.8342 0.162455 14.7986 0.0990405 14.7351C0.0356259 14.6717 0 14.5857 0 14.496C0 14.4063 0.0356259 14.3202 0.0990405 14.2568C0.162455 14.1934 0.248464 14.1577 0.338145 14.1577H4.71149C4.73904 13.3316 4.87105 12.5122 5.10439 11.7192H1.74547C1.65833 11.7142 1.57639 11.6761 1.51649 11.6126C1.45659 11.5491 1.42329 11.465 1.42343 11.3777V8.71691C1.12407 8.6528 0.849891 8.50279 0.634425 8.28525C0.379933 8.03287 0.216883 7.70278 0.171094 7.34725C0.125305 6.99172 0.199394 6.63107 0.381628 6.32241C0.563862 6.01375 0.843827 5.77472 1.17719 5.64317C1.51056 5.51162 1.87827 5.49507 2.22209 5.59613C2.56592 5.6972 2.86622 5.91011 3.07544 6.20114C3.28466 6.49218 3.39083 6.84472 3.37716 7.20292C3.36348 7.56113 3.23073 7.90454 2.99993 8.17876C2.76914 8.45299 2.45348 8.64237 2.10294 8.71691V11.0395H5.33304C5.82495 9.73842 6.58788 8.55688 7.57119 7.5733C8.55451 6.58971 9.73572 5.82657 11.0364 5.33452V2.08742H8.71449C8.63062 2.47606 8.40602 2.81993 8.0839 3.05286C7.76178 3.2858 7.36492 3.39133 6.96969 3.34914C6.57445 3.30696 6.20878 3.12004 5.94305 2.82437C5.67732 2.52869 5.53031 2.14516 5.53031 1.74757C5.53031 1.34998 5.67732 0.966446 5.94305 0.670771C6.20878 0.375097 6.57445 0.188181 6.96969 0.145998C7.36492 0.103814 7.76178 0.209344 8.0839 0.442277C8.40602 0.67521 8.63062 1.01908 8.71449 1.40772H11.3746C11.4619 1.40758 11.5459 1.44089 11.6094 1.5008C11.6729 1.56072 11.711 1.64268 11.7159 1.72985V5.1058C12.5139 4.87106 13.3385 4.739 14.1699 4.7128V0.338239C14.1699 0.248533 14.2055 0.1625 14.2689 0.099068C14.3324 0.0356358 14.4184 0 14.5081 0C14.5977 0 14.6837 0.0356358 14.7472 0.099068C14.8106 0.1625 14.8462 0.248533 14.8462 0.338239V4.7128H14.8301ZM14.5081 15.1821C14.3 15.1888 14.1006 15.2664 13.9428 15.4022C13.785 15.538 13.6785 15.7237 13.6408 15.9285C13.6032 16.1332 13.6368 16.3447 13.736 16.5277C13.8351 16.7107 13.994 16.8543 14.186 16.9345V17.466C14.186 17.5557 14.2216 17.6418 14.285 17.7052C14.3485 17.7686 14.4345 17.8043 14.5242 17.8043C14.6138 17.8043 14.6998 17.7686 14.7633 17.7052C14.8267 17.6418 14.8623 17.5557 14.8623 17.466V16.9345C15.0575 16.8569 15.2197 16.7139 15.3213 16.5301C15.423 16.3462 15.4578 16.1328 15.4198 15.9262C15.3819 15.7196 15.2735 15.5325 15.1131 15.3968C14.9527 15.2611 14.7503 15.1853 14.5403 15.1821H14.5081ZM14.6691 15.9295C14.6481 15.908 14.623 15.891 14.5954 15.8794C14.5677 15.8678 14.538 15.8618 14.5081 15.8618C14.4781 15.8618 14.4484 15.8678 14.4207 15.8794C14.3931 15.891 14.368 15.908 14.347 15.9295C14.3041 15.9721 14.2797 16.03 14.2794 16.0905C14.2794 16.1512 14.3035 16.2094 14.3464 16.2523C14.3893 16.2951 14.4474 16.3192 14.5081 16.3192C14.5687 16.3192 14.6269 16.2951 14.6697 16.2523C14.7126 16.2094 14.7367 16.1512 14.7367 16.0905C14.7364 16.03 14.712 15.9721 14.6691 15.9295ZM12.0927 13.4619H11.9639C11.7162 13.4619 11.4787 13.5603 11.3035 13.7355C11.1284 13.9107 11.03 14.1483 11.03 14.3961V18.5838C11.03 18.8316 11.1284 19.0692 11.3035 19.2444C11.4787 19.4196 11.7162 19.518 11.9639 19.518H17.0393C17.287 19.518 17.5246 19.4196 17.6997 19.2444C17.8748 19.0692 17.9732 18.8316 17.9732 18.5838V14.3961C17.9732 14.1483 17.8748 13.9107 17.6997 13.7355C17.5246 13.5603 17.287 13.4619 17.0393 13.4619H16.9105V11.8867C16.8785 11.2675 16.6101 10.6842 16.1606 10.2573C15.7112 9.83033 15.115 9.59228 14.4952 9.59228C13.8753 9.59228 13.2792 9.83033 12.8297 10.2573C12.3802 10.6842 12.1118 11.2675 12.0798 11.8867V13.4619H12.0927ZM16.2503 13.4619V11.8867C16.2503 11.4253 16.0671 10.9829 15.741 10.6567C15.4148 10.3305 14.9725 10.1472 14.5113 10.1472C14.0501 10.1472 13.6077 10.3305 13.2816 10.6567C12.9555 10.9829 12.7722 11.4253 12.7722 11.8867V13.4619H16.2503ZM17.0586 14.1416H11.9446C11.9111 14.1415 11.878 14.148 11.847 14.1607C11.8161 14.1734 11.788 14.1921 11.7642 14.2157C11.7177 14.2644 11.6913 14.3288 11.6902 14.3961V18.5838C11.6901 18.6173 11.6965 18.6505 11.7092 18.6814C11.722 18.7124 11.7406 18.7405 11.7642 18.7642C11.7875 18.7884 11.8156 18.8075 11.8466 18.8203C11.8777 18.833 11.911 18.8392 11.9446 18.8383H17.0393C17.0729 18.8392 17.1062 18.833 17.1373 18.8203C17.1683 18.8075 17.1964 18.7884 17.2197 18.7642C17.2433 18.7405 17.2619 18.7124 17.2747 18.6814C17.2874 18.6505 17.2938 18.6173 17.2937 18.5838V14.3961C17.2926 14.3288 17.2662 14.2644 17.2197 14.2157C17.1959 14.1921 17.1678 14.1734 17.1369 14.1607C17.1059 14.148 17.0728 14.1415 17.0393 14.1416H17.0586ZM14.492 6.51674C12.6447 6.51538 10.8541 7.15484 9.42535 8.32615C7.99663 9.49747 7.0182 11.1281 6.65683 12.9402C6.29546 14.7523 6.5735 16.6337 7.44358 18.2637C8.31366 19.8937 9.72192 21.1714 11.4283 21.8791C13.1348 22.5869 15.0337 22.6807 16.8016 22.1448C18.5695 21.6089 20.0968 20.4762 21.1234 18.94C22.1499 17.4038 22.6121 15.559 22.4311 13.7201C22.2501 11.8812 21.4372 10.162 20.1309 8.85543C19.3914 8.11325 18.5125 7.52457 17.5448 7.12322C16.577 6.72187 15.5396 6.51576 14.492 6.51674ZM19.6446 9.34185C18.4508 8.14854 16.8802 7.40627 15.2004 7.24155C13.5207 7.07683 11.8359 7.49984 10.4331 8.4385C9.03025 9.37716 7.99624 10.7734 7.50728 12.3892C7.01831 14.005 7.10465 15.7405 7.75157 17.2997C8.39849 18.859 9.56597 20.1457 11.055 20.9404C12.5441 21.7351 14.2626 21.9887 15.9176 21.658C17.5727 21.3273 19.0619 20.4327 20.1314 19.1267C21.201 17.8207 21.7846 16.1842 21.783 14.496C21.7833 13.5384 21.5946 12.5901 21.2276 11.7056C20.8607 10.8212 20.3227 10.0179 19.6446 9.34185ZM1.74547 22.7522C1.95799 22.7538 2.16446 22.6815 2.32963 22.5477C2.49481 22.414 2.60846 22.227 2.65118 22.0188C2.69391 21.8105 2.66306 21.5939 2.56391 21.4059C2.46476 21.2178 2.30345 21.07 2.10751 20.9877C1.91157 20.9054 1.69314 20.8937 1.4895 20.9545C1.28586 21.0153 1.10963 21.1449 0.990892 21.3212C0.872152 21.4975 0.818259 21.7096 0.838411 21.9212C0.858562 22.1329 0.951509 22.3309 1.10139 22.4816C1.27183 22.6535 1.50344 22.7508 1.74547 22.7522ZM2.38956 6.5103C2.2396 6.35959 2.04198 6.26562 1.83046 6.24444C1.61893 6.22326 1.40662 6.27619 1.22976 6.39417C1.05291 6.51216 0.922486 6.6879 0.86076 6.89138C0.799034 7.09486 0.809835 7.31346 0.891318 7.50986C0.972801 7.70626 1.11991 7.86827 1.30754 7.96824C1.49516 8.06821 1.71166 8.09994 1.92006 8.058C2.12847 8.01606 2.31586 7.90306 2.45023 7.73829C2.58461 7.57352 2.65764 7.36721 2.65686 7.15457C2.65667 6.91286 2.56052 6.68112 2.38956 6.5103ZM22.7459 27.246C22.7475 27.0334 22.6752 26.8269 22.5415 26.6617C22.4077 26.4964 22.2208 26.3828 22.0126 26.34C21.8045 26.2973 21.5879 26.3281 21.3999 26.4273C21.2119 26.5265 21.0642 26.6879 20.9819 26.8838C20.8996 27.0798 20.8879 27.2983 20.9487 27.502C21.0095 27.7057 21.1391 27.882 21.3153 28.0008C21.4916 28.1196 21.7036 28.1735 21.9151 28.1533C22.1267 28.1331 22.3247 28.0402 22.4754 27.8903C22.6472 27.7198 22.7445 27.4881 22.7459 27.246ZM6.50849 26.6017C6.35782 26.7517 6.26388 26.9494 6.24271 27.161C6.22154 27.3726 6.27444 27.5849 6.3924 27.7618C6.51035 27.9387 6.68604 28.0692 6.88947 28.1309C7.09289 28.1927 7.31143 28.1819 7.50777 28.1004C7.70412 28.0189 7.86609 27.8717 7.96603 27.684C8.06598 27.4964 8.09769 27.2798 8.05576 27.0714C8.01384 26.8629 7.90087 26.6754 7.73614 26.541C7.57142 26.4066 7.36516 26.3336 7.15258 26.3344C6.91101 26.3349 6.67947 26.431 6.50849 26.6017ZM27.2384 6.24293C27.0276 6.24277 26.8232 6.31574 26.6601 6.44943C26.497 6.58311 26.3853 6.76923 26.344 6.97606C26.3027 7.1829 26.3344 7.39766 26.4336 7.58375C26.5329 7.76983 26.6936 7.91573 26.8884 7.99657C27.0831 8.07742 27.2999 8.08821 27.5017 8.02712C27.7035 7.96602 27.8779 7.83681 27.9952 7.66151C28.1124 7.48621 28.1653 7.27566 28.1448 7.06574C28.1242 6.85582 28.0315 6.65953 27.8825 6.5103C27.7117 6.33929 27.4801 6.24312 27.2384 6.24293ZM26.5943 22.4816C26.7443 22.6324 26.9419 22.7263 27.1534 22.7475C27.365 22.7687 27.5773 22.7158 27.7541 22.5978C27.931 22.4798 28.0614 22.304 28.1231 22.1006C28.1849 21.8971 28.1741 21.6785 28.0926 21.4821C28.0111 21.2857 27.864 21.1237 27.6764 21.0237C27.4887 20.9237 27.2722 20.892 27.0638 20.9339C26.8554 20.9759 26.668 21.0889 26.5337 21.2537C26.3993 21.4184 26.3263 21.6247 26.327 21.8374C26.3276 22.079 26.4237 22.3106 26.5943 22.4816ZM6.23798 1.74596C6.23645 1.95854 6.30871 2.16506 6.44244 2.33028C6.57617 2.4955 6.76307 2.60918 6.97126 2.65192C7.17944 2.69466 7.396 2.6638 7.58398 2.56463C7.77196 2.46545 7.9197 2.30409 8.002 2.10809C8.08429 1.9121 8.09604 1.69361 8.03523 1.48991C7.97443 1.28622 7.84484 1.10994 7.66858 0.991167C7.49232 0.872394 7.28032 0.818486 7.06875 0.838643C6.85718 0.8588 6.65917 0.951773 6.50849 1.10169C6.33665 1.27219 6.23938 1.50386 6.23798 1.74596ZM22.4754 2.39022C22.6261 2.24022 22.72 2.04255 22.7412 1.83097C22.7624 1.61938 22.7095 1.40701 22.5915 1.23011C22.4735 1.0532 22.2979 0.922742 22.0944 0.860999C21.891 0.799256 21.6725 0.810059 21.4761 0.891565C21.2798 0.973071 21.1178 1.12022 21.0179 1.3079C20.9179 1.49557 20.8862 1.71213 20.9281 1.92059C20.9701 2.12906 21.083 2.3165 21.2478 2.45091C21.4125 2.58533 21.6187 2.65838 21.8313 2.65759C22.0729 2.65705 22.3044 2.56093 22.4754 2.39022ZM20.9328 8.05332C19.4428 6.56197 17.4818 5.63358 15.3842 5.42635C13.2865 5.21912 11.1819 5.74587 9.42896 6.91685C7.67605 8.08783 6.38329 9.83057 5.77098 11.8481C5.15867 13.8657 5.2647 16.0332 6.07099 17.9813C6.87729 19.9294 8.33396 21.5376 10.1928 22.5318C12.0516 23.526 14.1976 23.8447 16.265 23.4336C18.3324 23.0225 20.1934 21.9071 21.5308 20.2773C22.8681 18.6476 23.5992 16.6044 23.5993 14.496C23.6012 13.2993 23.3665 12.1141 22.9089 11.0084C22.4513 9.90278 21.7797 8.89849 20.9328 8.05332Z" fill="black"/>
</svg>
