<svg width="21" height="29" viewBox="0 0 21 29" fill="none" xmlns="http://www.w3.org/2000/svg">
<path d="M0.506542 28.9995H19.8525C19.9817 28.9995 20.1056 28.9482 20.1969 28.8568C20.2883 28.7655 20.3396 28.6416 20.3396 28.5124V1.60242C20.3396 1.47324 20.2883 1.34935 20.1969 1.25801C20.1056 1.16667 19.9817 1.11536 19.8525 1.11536H15.469C15.3678 1.14486 15.279 1.20639 15.2157 1.2907C15.1525 1.37501 15.1183 1.47755 15.1183 1.58293C15.1183 1.68832 15.1525 1.79086 15.2157 1.87517C15.279 1.95948 15.3678 2.021 15.469 2.05051H19.3655V28.0692H0.974119V2.06999H4.87059C4.94318 2.09116 5.0197 2.09514 5.0941 2.08162C5.16849 2.06809 5.23871 2.03743 5.2992 1.99206C5.3597 1.9467 5.40879 1.88787 5.44261 1.82024C5.47642 1.7526 5.49403 1.67803 5.49403 1.60242C5.49403 1.5268 5.47642 1.45223 5.44261 1.3846C5.40879 1.31697 5.3597 1.25814 5.2992 1.21277C5.23871 1.1674 5.16849 1.13674 5.0941 1.12321C5.0197 1.10969 4.94318 1.11367 4.87059 1.13484H0.487059C0.357883 1.13484 0.233997 1.18615 0.142656 1.2775C0.0513147 1.36884 0 1.49272 0 1.6219V28.5563C0.0111619 28.6811 0.0700442 28.7969 0.164394 28.8795C0.258744 28.962 0.381294 29.005 0.506542 28.9995Z" fill="black"/>
<path d="M13.589 0H6.77013C6.5238 0.00127967 6.28792 0.0997023 6.11373 0.273888C5.93955 0.448073 5.84112 0.683951 5.83984 0.930283V2.20638C5.84112 2.45271 5.93955 2.68859 6.11373 2.86277C6.28792 3.03696 6.5238 3.13538 6.77013 3.13666H13.589C13.8353 3.13538 14.0712 3.03696 14.2454 2.86277C14.4195 2.68859 14.518 2.45271 14.5192 2.20638V0.930283C14.518 0.683951 14.4195 0.448073 14.2454 0.273888C14.0712 0.0997023 13.8353 0.00127967 13.589 0ZM6.77013 2.20638V0.930283H13.589V2.20638H6.77013Z" fill="black"/>
<path d="M5.59122 5.87878C5.48778 5.81226 5.36299 5.78734 5.24193 5.80902C5.12087 5.8307 5.0125 5.89738 4.93857 5.99567L3.65273 7.84649L2.87343 7.19384C2.83196 7.12927 2.77582 7.07541 2.70958 7.03666C2.64335 6.9979 2.56889 6.97535 2.49228 6.97083C2.41568 6.96632 2.33909 6.97997 2.26875 7.01067C2.19842 7.04137 2.13634 7.08826 2.08757 7.14751C2.0388 7.20676 2.00472 7.2767 1.98811 7.35162C1.9715 7.42654 1.97283 7.50432 1.99198 7.57863C2.01114 7.65295 2.04759 7.72168 2.09835 7.77923C2.14911 7.83678 2.21276 7.88153 2.28409 7.90981L3.44816 8.88393C3.53091 8.95452 3.63651 8.99261 3.74527 8.99108H3.80859C3.87214 8.98285 3.93321 8.96123 3.98779 8.92764C4.04236 8.89406 4.08919 8.84928 4.12518 8.79626L5.70325 6.53631C5.77173 6.43302 5.79826 6.30752 5.77745 6.18536C5.75664 6.06319 5.69004 5.95356 5.59122 5.87878Z" fill="black"/>
<path d="M7.68076 6.84812H13.73C13.8312 6.81861 13.9201 6.75708 13.9833 6.67278C14.0465 6.58847 14.0807 6.48593 14.0807 6.38054C14.0807 6.27516 14.0465 6.17261 13.9833 6.08831C13.9201 6.004 13.8312 5.94247 13.73 5.91296H7.68076C7.57959 5.94247 7.49072 6.004 7.42749 6.08831C7.36426 6.17261 7.33008 6.27516 7.33008 6.38054C7.33008 6.48593 7.36426 6.58847 7.42749 6.67278C7.49072 6.75708 7.57959 6.81861 7.68076 6.84812Z" fill="black"/>
<path d="M17.779 7.94392H7.68231C7.60941 7.92128 7.53222 7.91608 7.45695 7.92876C7.38169 7.94144 7.31045 7.97162 7.24899 8.01689C7.18754 8.06215 7.13758 8.12123 7.10315 8.18935C7.06872 8.25747 7.05078 8.33273 7.05078 8.40906C7.05078 8.48538 7.06872 8.56064 7.10315 8.62876C7.13758 8.69688 7.18754 8.75596 7.24899 8.80122C7.31045 8.84649 7.38169 8.87668 7.45695 8.88935C7.53222 8.90203 7.60941 8.89684 7.68231 8.8742H17.779C17.8519 8.89684 17.9291 8.90203 18.0044 8.88935C18.0797 8.87668 18.1509 8.84649 18.2124 8.80122C18.2738 8.75596 18.3238 8.69688 18.3582 8.62876C18.3926 8.56064 18.4106 8.48538 18.4106 8.40906C18.4106 8.33273 18.3926 8.25747 18.3582 8.18935C18.3238 8.12123 18.2738 8.06215 18.2124 8.01689C18.1509 7.97162 18.0797 7.94144 18.0044 7.92876C17.9291 7.91608 17.8519 7.92128 17.779 7.94392Z" fill="black"/>
<path d="M5.58748 11.4848C5.48445 11.4197 5.36077 11.3956 5.24085 11.4173C5.12092 11.4389 5.01347 11.5047 4.93969 11.6017L3.65385 13.4477L2.87456 12.8096C2.82788 12.7702 2.77377 12.7405 2.71543 12.7223C2.6571 12.7041 2.5957 12.6978 2.53488 12.7037C2.47405 12.7096 2.41502 12.7276 2.36127 12.7567C2.30752 12.7857 2.26013 12.8253 2.2219 12.873C2.14931 12.9701 2.11557 13.0908 2.12728 13.2115C2.13899 13.3322 2.19531 13.4442 2.28522 13.5256L3.44929 14.4997C3.53367 14.5675 3.63821 14.6052 3.7464 14.6069H3.80971C3.93685 14.5864 4.05068 14.5163 4.1263 14.4121L5.70437 12.1472C5.77381 12.043 5.8004 11.916 5.77863 11.7926C5.75686 11.6693 5.6884 11.559 5.58748 11.4848Z" fill="black"/>
<path d="M7.68231 12.4493H13.7316C13.8045 12.4719 13.8817 12.4771 13.9569 12.4644C14.0322 12.4517 14.1034 12.4216 14.1649 12.3763C14.2263 12.331 14.2763 12.272 14.3107 12.2038C14.3452 12.1357 14.3631 12.0605 14.3631 11.9841C14.3631 11.9078 14.3452 11.8325 14.3107 11.7644C14.2763 11.6963 14.2263 11.6372 14.1649 11.592C14.1034 11.5467 14.0322 11.5165 13.9569 11.5038C13.8817 11.4912 13.8045 11.4963 13.7316 11.519H7.68231C7.60941 11.4963 7.53222 11.4912 7.45695 11.5038C7.38169 11.5165 7.31045 11.5467 7.24899 11.592C7.18754 11.6372 7.13758 11.6963 7.10315 11.7644C7.06872 11.8325 7.05078 11.9078 7.05078 11.9841C7.05078 12.0605 7.06872 12.1357 7.10315 12.2038C7.13758 12.272 7.18754 12.331 7.24899 12.3763C7.31045 12.4216 7.38169 12.4517 7.45695 12.4644C7.53222 12.4771 7.60941 12.4719 7.68231 12.4493Z" fill="black"/>
<path d="M17.7775 13.5256H7.68076C7.57959 13.5551 7.49072 13.6167 7.42749 13.701C7.36426 13.7853 7.33008 13.8878 7.33008 13.9932C7.33008 14.0986 7.36426 14.2011 7.42749 14.2854C7.49072 14.3698 7.57959 14.4313 7.68076 14.4608H17.7775C17.8787 14.4313 17.9675 14.3698 18.0308 14.2854C18.094 14.2011 18.1282 14.0986 18.1282 13.9932C18.1282 13.8878 18.094 13.7853 18.0308 13.701C17.9675 13.6167 17.8787 13.5551 17.7775 13.5256Z" fill="black"/>
<path d="M4.93992 17.2029L3.65409 19.0537L2.87479 18.3962C2.82811 18.3567 2.77401 18.327 2.71567 18.3088C2.65733 18.2906 2.59594 18.2843 2.53511 18.2902C2.47429 18.2961 2.41526 18.3141 2.3615 18.3432C2.30775 18.3723 2.26036 18.4118 2.22213 18.4595C2.14813 18.557 2.11356 18.6788 2.12529 18.8006C2.13702 18.9225 2.1942 19.0354 2.28545 19.117L3.44952 20.0911C3.53454 20.1571 3.63901 20.1931 3.74663 20.1934H3.80995C3.87349 20.1852 3.93457 20.1636 3.98915 20.13C4.04372 20.0964 4.09055 20.0516 4.12653 19.9986L5.70461 17.7386C5.73782 17.6391 5.738 17.5315 5.70511 17.4318C5.67222 17.3322 5.60802 17.2458 5.52207 17.1856C5.43612 17.1254 5.33302 17.0945 5.22813 17.0976C5.12323 17.1007 5.02214 17.1377 4.93992 17.2029Z" fill="black"/>
<path d="M7.68231 18.0552H13.7316C13.8045 18.0779 13.8817 18.0831 13.9569 18.0704C14.0322 18.0577 14.1034 18.0275 14.1649 17.9823C14.2263 17.937 14.2763 17.8779 14.3107 17.8098C14.3452 17.7417 14.3631 17.6664 14.3631 17.5901C14.3631 17.5138 14.3452 17.4385 14.3107 17.3704C14.2763 17.3023 14.2263 17.2432 14.1649 17.1979C14.1034 17.1527 14.0322 17.1225 13.9569 17.1098C13.8817 17.0971 13.8045 17.1023 13.7316 17.1249H7.68231C7.60941 17.1023 7.53222 17.0971 7.45695 17.1098C7.38169 17.1225 7.31045 17.1527 7.24899 17.1979C7.18754 17.2432 7.13758 17.3023 7.10315 17.3704C7.06872 17.4385 7.05078 17.5138 7.05078 17.5901C7.05078 17.6664 7.06872 17.7417 7.10315 17.8098C7.13758 17.8779 7.18754 17.937 7.24899 17.9823C7.31045 18.0275 7.38169 18.0577 7.45695 18.0704C7.53222 18.0831 7.60941 18.0779 7.68231 18.0552Z" fill="black"/>
<path d="M17.779 19.1512H7.68231C7.60941 19.1286 7.53222 19.1234 7.45695 19.136C7.38169 19.1487 7.31045 19.1789 7.24899 19.2242C7.18754 19.2694 7.13758 19.3285 7.10315 19.3966C7.06872 19.4647 7.05078 19.54 7.05078 19.6163C7.05078 19.6927 7.06872 19.7679 7.10315 19.836C7.13758 19.9042 7.18754 19.9632 7.24899 20.0085C7.31045 20.0538 7.38169 20.084 7.45695 20.0966C7.53222 20.1093 7.60941 20.1041 7.68231 20.0815H17.779C17.8519 20.1041 17.9291 20.1093 18.0044 20.0966C18.0797 20.084 18.1509 20.0538 18.2124 20.0085C18.2738 19.9632 18.3238 19.9042 18.3582 19.836C18.3926 19.7679 18.4106 19.6927 18.4106 19.6163C18.4106 19.54 18.3926 19.4647 18.3582 19.3966C18.3238 19.3285 18.2738 19.2694 18.2124 19.2242C18.1509 19.1789 18.0797 19.1487 18.0044 19.136C17.9291 19.1234 17.8519 19.1286 17.779 19.1512Z" fill="black"/>
<path d="M3.45013 25.7022C3.53451 25.7699 3.63904 25.8076 3.74723 25.8093H3.81055C3.93769 25.7888 4.05152 25.7188 4.12714 25.6145L5.70521 23.3497C5.77082 23.2472 5.79571 23.1239 5.77497 23.004C5.75424 22.8842 5.68939 22.7764 5.59319 22.7019C5.48974 22.6354 5.36496 22.6105 5.2439 22.6321C5.12284 22.6538 5.01446 22.7205 4.94053 22.8188L3.65469 24.655L2.8754 24.017C2.78017 23.9802 2.6758 23.9743 2.57703 24C2.47826 24.0258 2.39008 24.0819 2.32494 24.1605C2.2598 24.2391 2.22101 24.3362 2.21403 24.438C2.20705 24.5399 2.23225 24.6413 2.28605 24.7281L3.45013 25.7022Z" fill="black"/>
<path d="M7.68231 23.6564H13.7316C13.8045 23.6791 13.8817 23.6843 13.9569 23.6716C14.0322 23.6589 14.1034 23.6287 14.1649 23.5835C14.2263 23.5382 14.2763 23.4791 14.3107 23.411C14.3452 23.3429 14.3631 23.2676 14.3631 23.1913C14.3631 23.115 14.3452 23.0397 14.3107 22.9716C14.2763 22.9035 14.2263 22.8444 14.1649 22.7991C14.1034 22.7539 14.0322 22.7237 13.9569 22.711C13.8817 22.6983 13.8045 22.7035 13.7316 22.7261H7.68231C7.60941 22.7035 7.53222 22.6983 7.45695 22.711C7.38169 22.7237 7.31045 22.7539 7.24899 22.7991C7.18754 22.8444 7.13758 22.9035 7.10315 22.9716C7.06872 23.0397 7.05078 23.115 7.05078 23.1913C7.05078 23.2676 7.06872 23.3429 7.10315 23.411C7.13758 23.4791 7.18754 23.5382 7.24899 23.5835C7.31045 23.6287 7.38169 23.6589 7.45695 23.6716C7.53222 23.6843 7.60941 23.6791 7.68231 23.6564Z" fill="black"/>
<path d="M7.68008 25.7021H17.7768C17.878 25.6726 17.9669 25.611 18.0301 25.5267C18.0933 25.4424 18.1275 25.3399 18.1275 25.2345C18.1275 25.1291 18.0933 25.0266 18.0301 24.9423C17.9669 24.858 17.878 24.7964 17.7768 24.7669H7.68008C7.60749 24.7457 7.53097 24.7418 7.45657 24.7553C7.38218 24.7688 7.31196 24.7995 7.25146 24.8448C7.19097 24.8902 7.14188 24.949 7.10806 25.0167C7.07424 25.0843 7.05664 25.1589 7.05664 25.2345C7.05664 25.3101 7.07424 25.3847 7.10806 25.4523C7.14188 25.5199 7.19097 25.5788 7.25146 25.6241C7.31196 25.6695 7.38218 25.7002 7.45657 25.7137C7.53097 25.7272 7.60749 25.7232 7.68008 25.7021Z" fill="black"/>
</svg>
