<svg width="31" height="27" viewBox="0 0 31 27" fill="none" xmlns="http://www.w3.org/2000/svg">
<path d="M15.4999 24.0546C14.67 24.0546 13.5867 23.8355 12.8042 23.5093C12.5513 23.4038 12.4255 23.0974 12.5235 22.8252C12.6215 22.5532 12.9062 22.4181 13.1589 22.523C13.8389 22.8064 14.7798 22.997 15.4999 22.997C18.7056 22.997 21.3138 20.19 21.3138 16.7394C21.3138 15.2013 20.7904 13.7224 19.84 12.5759C19.6595 12.3581 19.6772 12.0237 19.8795 11.8295C20.0819 11.6357 20.3923 11.6542 20.5731 11.872C21.6841 13.2127 22.2962 14.9415 22.2962 16.7397C22.2962 20.7732 19.2474 24.0546 15.4999 24.0546Z" fill="black"/>
<path d="M10.826 21.8241C10.6922 21.8241 10.5591 21.7654 10.4621 21.6504C9.32767 20.3034 8.70312 18.5596 8.70312 16.7399C8.70312 12.7065 11.7519 9.42505 15.4994 9.42505C16.4845 9.42505 17.574 9.64048 18.3427 9.98729C18.5929 10.1002 18.7106 10.41 18.6057 10.6793C18.5008 10.9484 18.2132 11.0755 17.9627 10.9624C17.3166 10.6708 16.3497 10.4824 15.4994 10.4824C12.2937 10.4824 9.6855 13.2896 9.6855 16.7399C9.6855 18.2966 10.2199 19.7882 11.19 20.9407C11.3722 21.1569 11.357 21.4913 11.1559 21.6872C11.0618 21.7789 10.9437 21.8241 10.826 21.8241Z" fill="black"/>
<path d="M16.8745 11.7962C16.7045 11.7962 16.5395 11.7013 16.4486 11.5316C16.3131 11.2786 16.3936 10.9553 16.6287 10.8097L17.4806 10.281L16.9639 9.31648C16.8283 9.06352 16.9089 8.74024 17.1439 8.59459C17.3787 8.44868 17.6793 8.53564 17.8146 8.78834L18.5767 10.2107C18.6418 10.332 18.6595 10.4764 18.6256 10.612C18.5917 10.7476 18.5094 10.8628 18.3964 10.9329L17.1191 11.7256C17.0422 11.7735 16.9577 11.7962 16.8745 11.7962Z" fill="black"/>
<path d="M13.832 24.8748C13.6758 24.8748 13.5221 24.7947 13.427 24.6459L12.5768 23.3163C12.4231 23.0757 12.4795 22.7466 12.703 22.5812L13.8971 21.6964C14.1206 21.5307 14.4261 21.5918 14.5801 21.8323C14.7338 22.0726 14.6774 22.4019 14.4539 22.5674L13.6645 23.1524L14.2365 24.0466C14.3903 24.2872 14.3338 24.6163 14.1103 24.7817C14.0251 24.8446 13.9281 24.8748 13.832 24.8748Z" fill="black"/>
<path d="M30.5086 27H0.491186C0.220052 27 0 26.7632 0 26.4713V0.528665C0 0.236842 0.220052 0 0.491186 0H30.5088C30.7799 0 31 0.236842 31 0.528665V26.4713C30.9998 26.7634 30.7799 27 30.5086 27ZM0.982373 25.9427H30.0176V1.05733H0.982373V25.9427Z" fill="black"/>
<path d="M30.5086 7.6678H0.491186C0.220052 7.6678 0 7.43096 0 7.13914C0 6.84732 0.220052 6.61047 0.491186 6.61047H30.5088C30.7799 6.61047 31 6.84732 31 7.13914C31 7.43096 30.7799 7.6678 30.5086 7.6678Z" fill="black"/>
<path d="M19.7092 3.42358H2.21875V4.48091H19.7092V3.42358Z" fill="black"/>
<path d="M28.7263 4.53237H28.4033C28.1322 4.53237 27.9121 4.29553 27.9121 4.0037V3.65611C27.9121 3.36428 28.1322 3.12744 28.4033 3.12744H28.7263C28.9974 3.12744 29.2174 3.36428 29.2174 3.65611V4.0037C29.2174 4.29553 28.9976 4.53237 28.7263 4.53237Z" fill="black"/>
<path d="M25.6169 4.53237H25.2939C25.0228 4.53237 24.8027 4.29553 24.8027 4.0037V3.65611C24.8027 3.36428 25.0228 3.12744 25.2939 3.12744H25.6169C25.888 3.12744 26.1081 3.36428 26.1081 3.65611V4.0037C26.1081 4.29553 25.8883 4.53237 25.6169 4.53237Z" fill="black"/>
<path d="M22.5075 4.53237H22.1845C21.9134 4.53237 21.6934 4.29553 21.6934 4.0037V3.65611C21.6934 3.36428 21.9134 3.12744 22.1845 3.12744H22.5075C22.7786 3.12744 22.9987 3.36428 22.9987 3.65611V4.0037C22.9987 4.29553 22.7789 4.53237 22.5075 4.53237Z" fill="black"/>
</svg>
