
<svg xmlns="http://www.w3.org/2000/svg" xmlns:xlink="http://www.w3.org/1999/xlink" viewBox="0 0 1350 550" width="1350" height="550" preserveAspectRatio="xMidYMid meet" style="width: 100%; height: 100%; transform: translate3d(0px, 0px, 0px);">
    <defs>
        <clipPath id="__lottie_element_3">
            <rect width="1350" height="550" x="0" y="0"></rect>
        </clipPath>
        <!-- Masks and Gradients definitions remain unchanged -->
        <mask id="__lottie_element_10" mask-type="alpha">
            <g style="display: none;" transform="matrix(0.1498221606016159,0,0,0.1498221606016159,563.711181640625,343.24053955078125)" opacity="0.0010846537928878774">
                <g opacity="1" transform="matrix(1,0,0,1,-262,-34)">
                    <path fill="rgb(198,31,63)" fill-opacity="1" d=" M0,-133 C73.12674713134766,-133 132.5,-73.40270233154297 132.5,0 C132.5,73.40270233154297 73.12674713134766,133 0,133 C-73.12674713134766,133 -132.5,73.40270233154297 -132.5,0 C-132.5,-73.40270233154297 -73.12674713134766,-133 0,-133z"></path>
                </g>
            </g>
        </mask>
        <mask id="__lottie_element_22" mask-type="alpha">
            <g style="display: none;" transform="matrix(0.1499999463558197,0,0,0.1499999463558197,563.9432983398438,343.3500061035156)" opacity="1">
                <g opacity="1" transform="matrix(1,0,0,1,-262,-34)">
                    <path fill="rgb(198,31,63)" fill-opacity="1" d=" M0,-133 C73.12674713134766,-133 132.5,-73.40270233154297 132.5,0 C132.5,73.40270233154297 73.12674713134766,133 0,133 C-73.12674713134766,133 -132.5,73.40270233154297 -132.5,0 C-132.5,-73.40270233154297 -73.12674713134766,-133 0,-133z"></path>
                </g>
            </g>
        </mask>
        <linearGradient id="__lottie_element_61" spreadMethod="pad" gradientUnits="userSpaceOnUse" x1="15" y1="0" x2="105" y2="0">
            <stop offset="0%" stop-color="rgb(199,31,63)"></stop>
            <stop offset="51%" stop-color="rgb(227,143,159)"></stop>
            <stop offset="100%" stop-color="rgb(255,255,255)"></stop>
        </linearGradient>
        <linearGradient id="__lottie_element_62" spreadMethod="pad" gradientUnits="userSpaceOnUse" x1="15" y1="0" x2="105" y2="0">
            <stop offset="0%" stop-color="rgb(199,31,63)"></stop>
            <stop offset="51%" stop-color="rgb(227,143,159)"></stop>
            <stop offset="100%" stop-color="rgb(255,255,255)"></stop>
        </linearGradient>
        <linearGradient id="__lottie_element_63" spreadMethod="pad" gradientUnits="userSpaceOnUse" x1="1" y1="15" x2="1" y2="114">
            <stop offset="0%" stop-color="rgb(138,140,143)"></stop>
            <stop offset="51%" stop-color="rgb(197,198,199)"></stop>
            <stop offset="100%" stop-color="rgb(255,255,255)"></stop>
        </linearGradient>
        <linearGradient id="__lottie_element_64" spreadMethod="pad" gradientUnits="userSpaceOnUse" x1="1" y1="15" x2="1" y2="114">
            <stop offset="0%" stop-color="rgb(138,140,143)"></stop>
            <stop offset="51%" stop-color="rgb(197,198,199)"></stop>
            <stop offset="100%" stop-color="rgb(255,255,255)"></stop>
        </linearGradient>
    </defs>
    <g clip-path="url(#__lottie_element_3)">
        <!-- Text Element 1: devEdge Consulting (was AUDIT) -->
        <g fill="rgb(199,31,63)" font-size="100" font-family="Gordita" font-style="normal" font-weight="700" aria-label="devEdge Consulting" style="display: block;" transform="matrix(0.4050008952617645,0,0,0.4050008952617645,483.6150207519531,291.06500244140625)" opacity="1">
             <path stroke-linecap="butt" stroke-linejoin="round" stroke-miterlimit="4" d=" M40.46,0 C40.46,0 54.95,-39.46 54.95,-39.46 C54.95,-39.46 141.61,-39.46 141.61,-39.46 C141.61,-39.46 156.35,0 156.35,0 C156.35,0 198.06,0 198.06,0 C198.06,0 123.13,-195.56 123.13,-195.56 C123.13,-195.56 74.43,-195.56 74.43,-195.56 C74.43,-195.56 -0.25,0 -0.25,0 C-0.25,0 40.46,0 40.46,0z M98.4,-156.35 C98.4,-156.35 127.88,-76.92 127.88,-76.92 C127.88,-76.92 68.93,-76.92 68.93,-76.92 C68.93,-76.92 98.4,-156.35 98.4,-156.35z M310.72,-195.56 C310.72,-195.56 310.72,-77.42 310.72,-77.42 C310.72,-52.2 296.73,-36.22 272.01,-36.22 C249.78,-36.22 234.05,-50.7 234.05,-78.42 C234.05,-78.42 234.3,-195.56 234.3,-195.56 C234.3,-195.56 193.59,-195.56 193.59,-195.56 C193.59,-195.56 193.59,-77.42 193.59,-77.42 C193.59,-28.22 219.56,2.75 271.76,2.75 C323.71,2.75 350.68,-27.72 350.68,-78.92 C350.68,-78.92 350.68,-195.56 350.68,-195.56 C350.68,-195.56 310.72,-195.56 310.72,-195.56z M539.52,-98.15 C539.52,-128.87 529.78,-152.6 510.05,-169.83 C490.32,-187.07 463.34,-195.56 429.12,-195.56 C429.12,-195.56 369.18,-195.56 369.18,-195.56 C369.18,-195.56 369.18,0 369.18,0 C369.18,0 428.38,0 428.38,0 C462.59,0 489.56,-8.99 509.55,-26.97 C529.53,-44.95 539.52,-68.68 539.52,-98.15z M498.06,-98.15 C498.06,-79.42 491.81,-64.69 479.33,-53.95 C466.84,-43.46 450.36,-38.21 429.63,-38.21 C429.63,-38.21 409.64,-38.21 409.64,-38.21 C409.64,-38.21 409.64,-157.35 409.64,-157.35 C409.64,-157.35 430.12,-157.35 430.12,-157.35 C450.11,-157.35 466.34,-152.1 479.08,-141.61 C491.81,-131.37 498.06,-116.88 498.06,-98.15z M588.95,-195.56 C588.95,-195.56 548.49,-195.56 548.49,-195.56 C548.49,-195.56 548.49,0 548.49,0 C548.49,0 588.95,0 588.95,0 C588.95,0 588.95,-195.56 588.95,-195.56z M651.7,0 C651.7,0 691.91,0 691.91,0 C691.91,0 691.91,-156.35 691.91,-156.35 C691.91,-156.35 750.6,-156.35 750.6,-156.35 C750.6,-156.35 750.6,-195.56 750.6,-195.56 C750.6,-195.56 593.01,-195.56 593.01,-195.56 C593.01,-195.56 593.01,-156.35 593.01,-156.35 C593.01,-156.35 651.7,-156.35 651.7,-156.35 C651.7,-156.35 651.7,0 651.7,0z" style="display: inherit;"></path>
        </g>
        <!-- Text Element 2: internal audit (was CORPORATE) -->
        <g fill="rgb(89,93,98)" font-size="40" font-family="Gordita" font-style="normal" font-weight="400" aria-label="internal audit" style="display: block;" transform="matrix(0.4049999713897705,0,0,0.4049999713897705,504.6750183105469,373.68499755859375)" opacity="1">
             <path stroke-linecap="butt" stroke-linejoin="round" stroke-miterlimit="4" d=" M45.74,-15.41 C44.71,-12.69 43.08,-9.97 40.12,-6.89 C37.16,-3.81 32.33,-1.75 26.77,-1.75 C20.79,-1.75 15.83,-3.93 11.9,-8.22 C8.04,-12.51 6.1,-17.7 6.1,-23.81 C6.1,-29.85 8.04,-34.99 11.9,-39.22 C15.83,-43.45 20.73,-45.56 26.71,-45.56 C32.03,-45.56 36.62,-43.75 39.58,-40.91 C42.54,-38.19 44.47,-35.23 45.62,-32.03 C45.62,-32.03 47.8,-33.05 47.8,-33.05 C46.59,-36.62 44.35,-39.94 40.97,-42.9 C37.64,-45.86 32.57,-47.86 26.83,-47.86 C20.12,-47.86 14.56,-45.5 10.15,-40.79 C5.74,-36.13 3.57,-30.39 3.57,-23.63 C3.57,-16.8 5.74,-11.12 10.09,-6.47 C14.44,-1.81 20,0.48 26.71,0.48 C32.57,0.48 37.83,-1.57 41.15,-4.65 C44.53,-7.73 46.71,-11 47.92,-14.38 C47.92,-14.38 45.74,-15.41 45.74,-15.41z M75.43,0.48 C82.14,0.48 87.69,-1.87 92.11,-6.53 C96.52,-11.18 98.75,-16.92 98.75,-23.75 C98.75,-30.45 96.58,-36.19 92.17,-40.85 C87.75,-45.5 82.2,-47.86 75.49,-47.86 C68.78,-47.86 63.22,-45.5 58.81,-40.79 C54.4,-36.13 52.23,-30.39 52.23,-23.63 C52.23,-16.86 54.4,-11.12 58.81,-6.47 C63.22,-1.81 68.72,0.48 75.43,0.48z M75.43,-45.56 C81.41,-45.56 86.37,-43.38 90.29,-39.09 C94.22,-34.8 96.21,-29.61 96.21,-23.57 C96.21,-17.52 94.28,-12.39 90.35,-8.1 C86.43,-3.87 81.53,-1.75 75.55,-1.75 C69.57,-1.75 64.55,-3.87 60.62,-8.16 C56.7,-12.45 54.76,-17.7 54.76,-23.81 C54.76,-29.85 56.7,-34.99 60.62,-39.22 C64.55,-43.45 69.45,-45.56 75.43,-45.56z M107.33,0 C107.33,0 109.87,0 109.87,0 C109.87,0 109.87,-20.06 109.87,-20.06 C109.87,-20.06 121.17,-20.06 121.17,-20.06 C121.17,-20.06 136.82,0 136.82,0 C136.82,0 140.02,0 140.02,0 C140.02,0 124.13,-20.3 124.13,-20.3 C133.55,-21.33 138.57,-26.41 138.57,-33.84 C138.57,-37.64 137.18,-40.79 134.46,-43.38 C131.74,-45.98 127.39,-47.31 121.53,-47.31 C121.53,-47.31 107.33,-47.31 107.33,-47.31 C107.33,-47.31 107.33,0 107.33,0z M109.87,-45.08 C109.87,-45.08 121.35,-45.08 121.35,-45.08 C126.54,-45.08 130.29,-43.99 132.59,-41.75 C134.94,-39.58 136.09,-36.92 136.09,-33.78 C136.09,-30.7 134.82,-27.98 132.35,-25.74 C129.87,-23.51 126.06,-22.36 120.92,-22.36 C120.92,-22.36 109.87,-22.36 109.87,-22.36 C109.87,-22.36 109.87,-45.08 109.87,-45.08z M147.65,0 C147.65,0 150.19,0 150.19,0 C150.19,0 150.19,-19.4 150.19,-19.4 C150.19,-19.4 160.46,-19.4 160.46,-19.4 C166.32,-19.4 170.79,-20.73 173.81,-23.38 C176.83,-26.04 178.35,-29.43 178.35,-33.54 C178.35,-37.46 176.96,-40.73 174.12,-43.32 C171.28,-45.98 166.92,-47.31 161,-47.31 C161,-47.31 147.65,-47.31 147.65,-47.31 C147.65,-47.31 147.65,0 147.65,0z M150.19,-45.08 C150.19,-45.08 160.76,-45.08 160.76,-45.08 C166.02,-45.08 169.83,-43.93 172.18,-41.69 C174.6,-39.46 175.81,-36.74 175.81,-33.48 C175.81,-30.15 174.54,-27.31 172.06,-25.08 C169.58,-22.84 165.72,-21.75 160.52,-21.75 C160.52,-21.75 150.19,-21.75 150.19,-21.75 C150.19,-21.75 150.19,-45.08 150.19,-45.08z M205.57,0.48 C212.28,0.48 217.83,-1.87 222.25,-6.53 C226.66,-11.18 228.89,-16.92 228.89,-23.75 C228.89,-30.45 226.72,-36.19 222.31,-40.85 C217.89,-45.5 212.34,-47.86 205.63,-47.86 C198.92,-47.86 193.36,-45.5 188.95,-40.79 C184.54,-36.13 182.37,-30.39 182.37,-23.63 C182.37,-16.86 184.54,-11.12 188.95,-6.47 C193.36,-1.81 198.86,0.48 205.57,0.48z M205.57,-45.56 C211.55,-45.56 216.51,-43.38 220.43,-39.09 C224.36,-34.8 226.35,-29.61 226.35,-23.57 C226.35,-17.52 224.42,-12.39 220.49,-8.1 C216.57,-3.87 211.67,-1.75 205.69,-1.75 C199.71,-1.75 194.69,-3.87 190.76,-8.16 C186.84,-12.45 184.9,-17.7 184.9,-23.81 C184.9,-29.85 186.84,-34.99 190.76,-39.22 C194.69,-43.45 199.59,-45.56 205.57,-45.56z M237.47,0 C237.47,0 240.01,0 240.01,0 C240.01,0 240.01,-20.06 240.01,-20.06 C240.01,-20.06 251.31,-20.06 251.31,-20.06 C251.31,-20.06 266.96,0 266.96,0 C266.96,0 270.16,0 270.16,0 C270.16,0 254.27,-20.3 254.27,-20.3 C263.69,-21.33 268.71,-26.41 268.71,-33.84 C268.71,-37.64 267.32,-40.79 264.6,-43.38 C261.88,-45.98 257.53,-47.31 251.67,-47.31 C251.67,-47.31 237.47,-47.31 237.47,-47.31 C237.47,-47.31 237.47,0 237.47,0z M240.01,-45.08 C240.01,-45.08 251.49,-45.08 251.49,-45.08 C256.68,-45.08 260.43,-43.99 262.73,-41.75 C265.08,-39.58 266.23,-36.92 266.23,-33.78 C266.23,-30.7 264.96,-27.98 262.49,-25.74 C260.01,-23.51 256.2,-22.36 251.06,-22.36 C251.06,-22.36 240.01,-22.36 240.01,-22.36 C240.01,-22.36 240.01,-45.08 240.01,-45.08z M294.83,-47.31 C294.83,-47.31 292.11,-47.31 292.11,-47.31 C292.11,-47.31 271.2,0 271.2,0 C271.2,0 273.8,0 273.8,0 C273.8,0 279.72,-13.47 279.72,-13.47 C279.72,-13.47 307.16,-13.47 307.16,-13.47 C307.16,-13.47 313.02,0 313.02,0 C313.02,0 315.74,0 315.74,0 C315.74,0 294.83,-47.31 294.83,-47.31z M280.75,-15.77 C280.75,-15.77 293.38,-44.59 293.38,-44.59 C293.38,-44.59 306.13,-15.77 306.13,-15.77 C306.13,-15.77 280.75,-15.77 280.75,-15.77z M349.75,-47.31 C349.75,-47.31 315.67,-47.31 315.67,-47.31 C315.67,-47.31 315.67,-45.08 315.67,-45.08 C315.67,-45.08 331.62,-45.08 331.62,-45.08 C331.62,-45.08 331.62,0 331.62,0 C331.62,0 334.1,0 334.1,0 C334.1,0 334.1,-45.08 334.1,-45.08 C334.1,-45.08 349.75,-45.08 349.75,-45.08 C349.75,-45.08 349.75,-47.31 349.75,-47.31z M358.87,-25.26 C358.87,-25.26 358.87,-45.08 358.87,-45.08 C358.87,-45.08 384.73,-45.08 384.73,-45.08 C384.73,-45.08 384.73,-47.31 384.73,-47.31 C384.73,-47.31 356.33,-47.31 356.33,-47.31 C356.33,-47.31 356.33,0 356.33,0 C356.33,0 385.03,0 385.03,0 C385.03,0 385.03,-2.3 385.03,-2.3 C385.03,-2.3 358.87,-2.3 358.87,-2.3 C358.87,-2.3 358.87,-22.96 358.87,-22.96 C358.87,-22.96 382.67,-22.96 382.67,-22.96 C382.67,-22.96 382.67,-25.26 382.67,-25.26 C382.67,-25.26 358.87,-25.26 358.87,-25.26z" style="display: inherit;"></path>
        </g>
        <!-- Text Element 3: cybersecurity (was GOVERNANCE) -->
        <g fill="rgb(199,31,63)" font-size="40" font-family="Gordita" font-style="normal" font-weight="400" aria-label="cybersecurity" style="display: block;" transform="matrix(0.4050009250640869,0,0,0.4050009250640869,457.69500732421875,408.5150146484375)" opacity="1">
             <path stroke-linecap="butt" stroke-linejoin="round" stroke-miterlimit="4" d=" M14.66,-27.63 C14.66,-32.64 16.28,-36.8 19.6,-40.18 C22.91,-43.57 26.93,-45.26 31.65,-45.26 C35.67,-45.26 38.84,-44.27 41.24,-42.3 C43.71,-40.39 45.4,-38.14 46.46,-35.53 C46.46,-35.53 56.54,-40.46 56.54,-40.46 C55.06,-44.48 52.17,-48.08 47.87,-51.25 C43.57,-54.42 38.21,-56.04 31.79,-56.04 C23.83,-56.04 17.06,-53.29 11.42,-47.8 C5.85,-42.3 3.03,-35.53 3.03,-27.56 C3.03,-19.6 5.71,-12.83 11,-7.33 C16.35,-1.9 23.26,0.85 31.65,0.85 C40.89,0.85 48.99,-2.89 54,-11 C56.54,-15.09 57.81,-19.88 57.81,-25.38 C57.81,-25.38 57.81,-29.68 57.81,-29.68 C57.81,-29.68 29.11,-29.68 29.11,-29.68 C29.11,-29.68 29.11,-19.32 29.11,-19.32 C29.11,-19.32 45.89,-19.32 45.89,-19.32 C44.48,-13.75 38.98,-10.01 31.65,-10.01 C26.72,-10.01 22.63,-11.7 19.46,-15.16 C16.28,-18.61 14.66,-22.77 14.66,-27.63z M61.13,-27.56 C61.13,-19.6 63.88,-12.9 69.45,-7.4 C75.02,-1.9 81.72,0.85 89.68,0.85 C97.65,0.85 104.42,-1.9 109.98,-7.47 C115.62,-13.04 118.44,-19.88 118.44,-27.85 C118.44,-35.74 115.7,-42.44 110.13,-47.87 C104.63,-53.3 97.93,-56.04 89.96,-56.04 C82,-56.04 75.23,-53.29 69.59,-47.73 C63.95,-42.16 61.13,-35.46 61.13,-27.56z M77.77,-39.9 C81.08,-43.28 85.1,-44.98 89.82,-44.98 C94.55,-44.98 98.56,-43.28 101.88,-39.9 C105.19,-36.52 106.81,-32.43 106.81,-27.63 C106.81,-22.84 105.19,-18.75 101.88,-15.3 C98.56,-11.91 94.55,-10.22 89.82,-10.22 C85.1,-10.22 81.08,-11.91 77.77,-15.3 C74.46,-18.75 72.83,-22.84 72.83,-27.63 C72.83,-32.43 74.46,-36.52 77.77,-39.9z M120.2,-55.2 C120.2,-55.2 140.15,0 140.15,0 C140.15,0 153.33,0 153.33,0 C153.33,0 173.35,-55.2 173.35,-55.2 C173.35,-55.2 161.23,-55.2 161.23,-55.2 C161.23,-55.2 146.84,-13.25 146.84,-13.25 C146.84,-13.25 132.53,-55.2 132.53,-55.2 C132.53,-55.2 120.2,-55.2 120.2,-55.2z M178.54,-55.2 C178.54,-55.2 178.54,0 178.54,0 C178.54,0 214.85,0 214.85,0 C214.85,0 214.85,-10.64 214.85,-10.64 C214.85,-10.64 189.82,-10.64 189.82,-10.64 C189.82,-10.64 189.82,-22.56 189.82,-22.56 C189.82,-22.56 212.1,-22.56 212.1,-22.56 C212.1,-22.56 212.1,-33.27 212.1,-33.27 C212.1,-33.27 189.82,-33.27 189.82,-33.27 C189.82,-33.27 189.82,-44.48 189.82,-44.48 C189.82,-44.48 214.71,-44.48 214.71,-44.48 C214.71,-44.48 214.71,-55.2 214.71,-55.2 C214.71,-55.2 178.54,-55.2 178.54,-55.2z M265.5,0 C265.5,0 253.03,-21.57 253.03,-21.57 C260.57,-24.32 264.38,-29.68 264.38,-37.72 C264.38,-43.28 262.54,-47.58 258.81,-50.62 C255.14,-53.65 250.49,-55.2 244.85,-55.2 C244.85,-55.2 223.06,-55.2 223.06,-55.2 C223.06,-55.2 223.06,0 223.06,0 C223.06,0 234.49,0 234.49,0 C234.49,0 234.49,-19.81 234.49,-19.81 C234.49,-19.81 241.39,-19.81 241.39,-19.81 C241.39,-19.81 252.81,0 252.81,0 C252.81,0 265.5,0 265.5,0z M234.49,-44.41 C234.49,-44.41 243.93,-44.41 243.93,-44.41 C248.94,-44.41 252.81,-42.37 252.81,-37.5 C252.81,-32.71 248.8,-30.38 244,-30.38 C244,-30.38 234.49,-30.38 234.49,-30.38 C234.49,-30.38 234.49,-44.41 234.49,-44.41z M283.62,-38.07 C283.62,-38.07 309,0 309,0 C309,0 320.63,0 320.63,0 C320.63,0 320.63,-55.2 320.63,-55.2 C320.63,-55.2 309.36,-55.2 309.36,-55.2 C309.36,-55.2 309.36,-19.18 309.36,-19.18 C309.36,-19.18 285.39,-55.2 285.39,-55.2 C285.39,-55.2 272.34,-55.2 272.34,-55.2 C272.34,-55.2 272.34,0 272.34,0 C272.34,0 283.62,0 283.62,0 C283.62,0 283.62,-38.07 283.62,-38.07z M336.22,0 C336.22,0 340.31,-11.14 340.31,-11.14 C340.31,-11.14 364.77,-11.14 364.77,-11.14 C364.77,-11.14 368.93,0 368.93,0 C368.93,0 380.7,0 380.7,0 C380.7,0 359.55,-55.2 359.55,-55.2 C359.55,-55.2 345.81,-55.2 345.81,-55.2 C345.81,-55.2 324.73,0 324.73,0 C324.73,0 336.22,0 336.22,0z M352.58,-44.13 C352.58,-44.13 360.89,-21.71 360.89,-21.71 C360.89,-21.71 344.26,-21.71 344.26,-21.71 C344.26,-21.71 352.58,-44.13 352.58,-44.13z M396.04,-38.07 C396.04,-38.07 421.42,0 421.42,0 C421.42,0 433.05,0 433.05,0 C433.05,0 433.05,-55.2 433.05,-55.2 C433.05,-55.2 421.78,-55.2 421.78,-55.2 C421.78,-55.2 421.78,-19.18 421.78,-19.18 C421.78,-19.18 397.81,-55.2 397.81,-55.2 C397.81,-55.2 384.76,-55.2 384.76,-55.2 C384.76,-55.2 384.76,0 384.76,0 C384.76,0 396.04,0 396.04,0 C396.04,0 396.04,-38.07 396.04,-38.07z M440.25,-27.56 C440.25,-19.53 443,-12.76 448.43,-7.33 C453.86,-1.9 460.62,0.78 468.66,0.78 C474.23,0.78 479.45,-0.7 484.17,-3.6 C488.96,-6.56 492.28,-10.57 494.11,-15.65 C494.11,-15.65 483.61,-20.51 483.61,-20.51 C481.14,-14.38 475.57,-10.29 468.8,-10.29 C463.94,-10.29 459.99,-11.98 456.82,-15.3 C453.65,-18.68 452.09,-22.84 452.09,-27.7 C452.09,-32.5 453.72,-36.59 456.89,-39.9 C460.06,-43.21 464.08,-44.91 468.8,-44.91 C475.64,-44.91 481.14,-41.1 483.46,-34.97 C483.46,-34.97 493.9,-39.76 493.9,-39.76 C492.07,-44.76 488.82,-48.78 484.17,-51.67 C479.59,-54.56 474.44,-56.04 468.87,-56.04 C460.91,-56.04 454.14,-53.29 448.57,-47.73 C443,-42.23 440.25,-35.53 440.25,-27.56z M499.98,-55.2 C499.98,-55.2 499.98,0 499.98,0 C499.98,0 536.29,0 536.29,0 C536.29,0 536.29,-10.64 536.29,-10.64 C536.29,-10.64 511.26,-10.64 511.26,-10.64 C511.26,-10.64 511.26,-22.56 511.26,-22.56 C511.26,-22.56 533.54,-22.56 533.54,-22.56 C533.54,-22.56 533.54,-33.27 533.54,-33.27 C533.54,-33.27 511.26,-33.27 511.26,-33.27 C511.26,-33.27 511.26,-44.48 511.26,-44.48 C511.26,-44.48 536.15,-44.48 536.15,-44.48 C536.15,-44.48 536.15,-55.2 536.15,-55.2 C536.15,-55.2 499.98,-55.2 499.98,-55.2z" style="display: inherit;"></path>
        </g>
        <!-- Text Element 4: Business Automation and Transformation Services (was EXCELLENCE) -->
        <g fill="rgb(138,140,143)" font-size="25" font-family="Gordita" font-style="normal" font-weight="400" aria-label="Business Automation and Transformation Services" style="display: block;" transform="matrix(0.4049999713897705,0,0,0.4049999713897705,779.8203125,282.9649963378906)" opacity="1">
             <path stroke-linecap="butt" stroke-linejoin="round" stroke-miterlimit="4" d=" M36.19,-47.31 C36.19,-47.31 6.59,-47.31 6.59,-47.31 C6.59,-47.31 6.59,0 6.59,0 C6.59,0 36.44,0 36.44,0 C36.44,0 36.44,-4.59 36.44,-4.59 C36.44,-4.59 11.54,-4.59 11.54,-4.59 C11.54,-4.59 11.54,-21.75 11.54,-21.75 C11.54,-21.75 34.08,-21.75 34.08,-21.75 C34.08,-21.75 34.08,-26.35 34.08,-26.35 C34.08,-26.35 11.54,-26.35 11.54,-26.35 C11.54,-26.35 11.54,-42.72 11.54,-42.72 C11.54,-42.72 36.19,-42.72 36.19,-42.72 C36.19,-42.72 36.19,-47.31 36.19,-47.31z M44.5,0 C44.5,0 59.79,-20.67 59.79,-20.67 C59.79,-20.67 75.14,0 75.14,0 C75.14,0 80.94,0 80.94,0 C80.94,0 62.81,-24.29 62.81,-24.29 C62.81,-24.29 80.15,-47.31 80.15,-47.31 C80.15,-47.31 74.35,-47.31 74.35,-47.31 C74.35,-47.31 59.91,-27.8 59.91,-27.8 C59.91,-27.8 45.29,-47.31 45.29,-47.31 C45.29,-47.31 39.49,-47.31 39.49,-47.31 C39.49,-47.31 56.83,-24.23 56.83,-24.23 C56.83,-24.23 38.7,0 38.7,0 C38.7,0 44.5,0 44.5,0z M106.33,0.48 C111.71,0.48 116.3,-0.91 119.98,-3.75 C123.73,-6.59 126.33,-10.03 127.72,-14.08 C127.72,-14.08 123.25,-16.19 123.25,-16.19 C120.53,-8.76 114.91,-4.23 106.51,-4.23 C101.13,-4.23 96.72,-6.1 93.22,-9.79 C89.71,-13.47 87.96,-18.19 87.96,-23.81 C87.96,-29.43 89.77,-34.02 93.34,-37.64 C96.96,-41.27 101.31,-43.08 106.45,-43.08 C110.98,-43.08 114.61,-41.93 117.33,-39.64 C120.11,-37.4 122.04,-34.56 123.19,-31.24 C123.19,-31.24 127.66,-33.29 127.66,-33.29 C126.39,-37.28 123.91,-40.67 120.23,-43.51 C116.54,-46.35 112.01,-47.8 106.57,-47.8 C99.98,-47.8 94.37,-45.5 89.71,-40.91 C85.06,-36.38 82.76,-30.57 82.76,-23.51 C82.76,-16.5 85,-10.76 89.53,-6.22 C94.06,-1.75 99.68,0.48 106.33,0.48z M164.29,-47.31 C164.29,-47.31 134.69,-47.31 134.69,-47.31 C134.69,-47.31 134.69,0 134.69,0 C134.69,0 164.54,0 164.54,0 C164.54,0 164.54,-4.59 164.54,-4.59 C164.54,-4.59 139.64,-4.59 139.64,-4.59 C139.64,-4.59 139.64,-21.75 139.64,-21.75 C139.64,-21.75 162.18,-21.75 162.18,-21.75 C162.18,-21.75 162.18,-26.35 162.18,-26.35 C162.18,-26.35 139.64,-26.35 139.64,-26.35 C139.64,-26.35 139.64,-42.72 139.64,-42.72 C139.64,-42.72 164.29,-42.72 164.29,-42.72 C164.29,-42.72 164.29,-47.31 164.29,-47.31z M177.86,-47.31 C177.86,-47.31 172.91,-47.31 172.91,-47.31 C172.91,-47.31 172.91,0 172.91,0 C172.91,0 200.28,0 200.28,0 C200.28,0 200.28,-4.65 200.28,-4.65 C200.28,-4.65 177.86,-4.65 177.86,-4.65 C177.86,-4.65 177.86,-47.31 177.86,-47.31z M211.22,-47.31 C211.22,-47.31 206.27,-47.31 206.27,-47.31 C206.27,-47.31 206.27,0 206.27,0 C206.27,0 233.64,0 233.64,0 C233.64,0 233.64,-4.65 233.64,-4.65 C233.64,-4.65 211.22,-4.65 211.22,-4.65 C211.22,-4.65 211.22,-47.31 211.22,-47.31z M269.23,-47.31 C269.23,-47.31 239.63,-47.31 239.63,-47.31 C239.63,-47.31 239.63,0 239.63,0 C239.63,0 269.48,0 269.48,0 C269.48,0 269.48,-4.59 269.48,-4.59 C269.48,-4.59 244.58,-4.59 244.58,-4.59 C244.58,-4.59 244.58,-21.75 244.58,-21.75 C244.58,-21.75 267.12,-21.75 267.12,-21.75 C267.12,-21.75 267.12,-26.35 267.12,-26.35 C267.12,-26.35 244.58,-26.35 244.58,-26.35 C244.58,-26.35 244.58,-42.72 244.58,-42.72 C244.58,-42.72 269.23,-42.72 269.23,-42.72 C269.23,-42.72 269.23,-47.31 269.23,-47.31z M316.4,-47.31 C316.4,-47.31 311.5,-47.31 311.5,-47.31 C311.5,-47.31 311.5,-7.79 311.5,-7.79 C311.5,-7.79 283.59,-47.31 283.59,-47.31 C283.59,-47.31 277.85,-47.31 277.85,-47.31 C277.85,-47.31 277.85,0 277.85,0 C277.85,0 282.74,0 282.74,0 C282.74,0 282.74,-40.3 282.74,-40.3 C282.74,-40.3 311.08,0 311.08,0 C311.08,0 316.4,0 316.4,0 C316.4,0 316.4,-47.31 316.4,-47.31z M347.83,0.48 C353.21,0.48 357.8,-0.91 361.48,-3.75 C365.23,-6.59 367.83,-10.03 369.22,-14.08 C369.22,-14.08 364.75,-16.19 364.75,-16.19 C362.03,-8.76 356.41,-4.23 348.01,-4.23 C342.63,-4.23 338.22,-6.1 334.72,-9.79 C331.21,-13.47 329.46,-18.19 329.46,-23.81 C329.46,-29.43 331.27,-34.02 334.84,-37.64 C338.46,-41.27 342.81,-43.08 347.95,-43.08 C352.48,-43.08 356.11,-41.93 358.83,-39.64 C361.61,-37.4 363.54,-34.56 364.69,-31.24 C364.69,-31.24 369.16,-33.29 369.16,-33.29 C367.89,-37.28 365.41,-40.67 361.73,-43.51 C358.04,-46.35 353.51,-47.8 348.07,-47.8 C341.48,-47.8 335.87,-45.5 331.21,-40.91 C326.56,-36.38 324.26,-30.57 324.26,-23.51 C324.26,-16.5 326.5,-10.76 331.03,-6.22 C335.56,-1.75 341.18,0.48 347.83,0.48z M405.79,-47.31 C405.79,-47.31 376.19,-47.31 376.19,-47.31 C376.19,-47.31 376.19,0 376.19,0 C376.19,0 406.04,0 406.04,0 C406.04,0 406.04,-4.59 406.04,-4.59 C406.04,-4.59 381.14,-4.59 381.14,-4.59 C381.14,-4.59 381.14,-21.75 381.14,-21.75 C381.14,-21.75 403.68,-21.75 403.68,-21.75 C403.68,-21.75 403.68,-26.35 403.68,-26.35 C403.68,-26.35 381.14,-26.35 381.14,-26.35 C381.14,-26.35 381.14,-42.72 381.14,-42.72 C381.14,-42.72 405.79,-42.72 405.79,-42.72 C405.79,-42.72 405.79,-47.31 405.79,-47.31z" style="display: inherit;"></path>
        </g>
        <!-- Remaining text elements with their aria-labels updated -->
        <!-- Text Element 12: Industrial Control Systems (ICS) & OT Security Services (was BPR) -->
        <g fill="rgb(89,93,98)" font-size="20" font-family="Gordita" font-style="normal" font-weight="400" aria-label="Industrial Control Systems (ICS) & OT Security Services" style="display: block;" transform="matrix(0.0000029045097562629962,-0.4049999713897705,0.4049999713897705,0.0000029045097562629962,498.19500732421875,223.8350067138672)" opacity="1">
             <path stroke-linecap="butt" stroke-linejoin="round" stroke-miterlimit="4" d=" M6.59,0 C6.59,0 24.17,0 24.17,0 C29,0 32.99,-1.09 36.13,-3.26 C39.34,-5.44 40.91,-8.7 40.91,-12.99 C40.91,-15.23 40.12,-17.52 38.61,-19.88 C37.1,-22.24 34.74,-23.81 31.6,-24.59 C34.68,-25.98 36.92,-28.16 37.71,-30.33 C38.61,-32.57 38.79,-33.96 38.79,-35.41 C38.79,-39.16 37.34,-42.06 34.5,-44.17 C31.66,-46.29 28.04,-47.31 23.57,-47.31 C23.57,-47.31 6.59,-47.31 6.59,-47.31 C6.59,-47.31 6.59,0 6.59,0z M11.48,-42.78 C11.48,-42.78 23.14,-42.78 23.14,-42.78 C29.19,-42.78 33.78,-40.24 33.78,-34.87 C33.78,-29.85 30.21,-26.28 22.78,-26.28 C22.78,-26.28 11.48,-26.28 11.48,-26.28 C11.48,-26.28 11.48,-42.78 11.48,-42.78z M11.48,-21.87 C11.48,-21.87 23.38,-21.87 23.38,-21.87 C27.49,-21.87 31.06,-21.21 33.78,-18.49 C35.17,-17.16 35.83,-15.47 35.83,-13.35 C35.83,-10.27 34.68,-8.04 32.33,-6.65 C30.03,-5.26 27.37,-4.53 24.29,-4.53 C24.29,-4.53 11.48,-4.53 11.48,-4.53 C11.48,-4.53 11.48,-21.87 11.48,-21.87z M53.9,0 C53.9,0 53.9,-18.49 53.9,-18.49 C53.9,-18.49 63.93,-18.49 63.93,-18.49 C69.43,-18.49 73.72,-19.88 76.8,-22.6 C79.88,-25.38 81.39,-28.88 81.39,-33.11 C81.39,-37.1 80,-40.48 77.16,-43.2 C74.33,-45.92 70.22,-47.31 64.78,-47.31 C64.78,-47.31 48.95,-47.31 48.95,-47.31 C48.95,-47.31 48.95,0 48.95,0 C48.95,0 53.9,0 53.9,0z M53.9,-42.66 C53.9,-42.66 64.35,-42.66 64.35,-42.66 C68.64,-42.66 71.67,-41.69 73.54,-39.82 C75.41,-37.95 76.32,-35.65 76.32,-32.93 C76.32,-30.27 75.29,-27.98 73.24,-25.98 C71.18,-24.05 68.16,-23.08 64.11,-23.08 C64.11,-23.08 53.9,-23.08 53.9,-23.08 C53.9,-23.08 53.9,-42.66 53.9,-42.66z M102.81,-19.15 C102.81,-19.15 116.77,0 116.77,0 C116.77,0 122.81,0 122.81,0 C122.81,0 108.19,-20 108.19,-20 C111.93,-20.48 115.02,-21.87 117.49,-24.23 C119.97,-26.59 121.18,-29.67 121.18,-33.54 C121.18,-37.46 119.79,-40.79 116.95,-43.38 C114.17,-45.98 110.06,-47.31 104.56,-47.31 C104.56,-47.31 88.19,-47.31 88.19,-47.31 C88.19,-47.31 88.19,0 88.19,0 C88.19,0 93.14,0 93.14,0 C93.14,0 93.14,-19.15 93.14,-19.15 C93.14,-19.15 102.81,-19.15 102.81,-19.15z M93.14,-42.66 C93.14,-42.66 104.26,-42.66 104.26,-42.66 C112.54,-42.66 116.16,-38.67 116.16,-33.35 C116.16,-30.7 115.14,-28.4 113.14,-26.53 C111.15,-24.65 108.13,-23.69 104.14,-23.69 C104.14,-23.69 93.14,-23.69 93.14,-23.69 C93.14,-23.69 93.14,-42.66 93.14,-42.66z" style="display: inherit;"></path>
        </g>
        <!-- Text Element 13: Risk Management & Human Capital Advisory (was SOP) -->
        <g fill="rgb(89,93,98)" font-size="20" font-family="Gordita" font-style="normal" font-weight="400" aria-label="Risk Management & Human Capital Advisory" style="display: block;" transform="matrix(0.0000031610629775968846,-0.4050033986568451,0.4050033986568451,0.0000031610629775968846,466.6050109863281,351.0050048828125)" opacity="1">
             <path stroke-linecap="butt" stroke-linejoin="round" stroke-miterlimit="4" d=" M19.34,0.48 C23.93,0.48 27.61,-0.79 30.39,-3.38 C33.17,-5.98 34.56,-9.12 34.56,-12.75 C34.56,-15.71 33.48,-18.37 31.3,-20.73 C28.94,-23.32 24.96,-25.32 19.4,-26.71 C12.21,-28.58 9.31,-30.88 9.31,-35.17 C9.31,-37.52 10.27,-39.46 12.21,-40.97 C14.14,-42.48 16.44,-43.2 19.09,-43.2 C24.29,-43.2 27.92,-40.67 29.91,-35.65 C29.91,-35.65 34.14,-38.01 34.14,-38.01 C31.9,-43.99 26.71,-47.86 19.22,-47.86 C15.11,-47.86 11.6,-46.65 8.7,-44.29 C5.8,-41.93 4.35,-38.85 4.35,-34.93 C4.35,-28.34 8.82,-24.17 18.49,-21.81 C25.74,-20.06 29.49,-17.22 29.49,-12.39 C29.49,-9.97 28.52,-7.98 26.53,-6.47 C24.59,-4.95 22.18,-4.17 19.34,-4.17 C13.23,-4.17 9.67,-7.43 7.25,-13.29 C7.25,-13.29 2.96,-11.06 2.96,-11.06 C5.86,-3.38 11.3,0.48 19.34,0.48z M86.88,-23.81 C86.88,-30.57 84.58,-36.26 80.05,-40.85 C75.52,-45.5 69.9,-47.8 63.19,-47.8 C56.36,-47.8 50.68,-45.44 46.15,-40.79 C41.62,-36.13 39.32,-30.33 39.32,-23.51 C39.32,-16.74 41.56,-11.06 46.09,-6.41 C50.62,-1.81 56.3,0.48 63.01,0.48 C69.84,0.48 75.52,-1.87 80.05,-6.53 C84.58,-11.18 86.88,-16.98 86.88,-23.81z M81.74,-23.51 C81.74,-18.13 79.99,-13.6 76.48,-9.79 C72.98,-6.04 68.57,-4.17 63.19,-4.17 C57.81,-4.17 53.34,-6.1 49.78,-9.91 C46.21,-13.72 44.46,-18.37 44.46,-23.81 C44.46,-29.19 46.21,-33.72 49.72,-37.46 C53.22,-41.27 57.63,-43.14 63.01,-43.14 C68.39,-43.14 72.86,-41.21 76.42,-37.4 C79.99,-33.6 81.74,-28.94 81.74,-23.51z M99.68,0 C99.68,0 99.68,-18.49 99.68,-18.49 C99.68,-18.49 109.71,-18.49 109.71,-18.49 C115.21,-18.49 119.5,-19.88 122.58,-22.6 C125.66,-25.38 127.17,-28.88 127.17,-33.11 C127.17,-37.1 125.78,-40.48 122.94,-43.2 C120.11,-45.92 116,-47.31 110.56,-47.31 C110.56,-47.31 94.73,-47.31 94.73,-47.31 C94.73,-47.31 94.73,0 94.73,0 C94.73,0 99.68,0 99.68,0z M99.68,-42.66 C99.68,-42.66 110.13,-42.66 110.13,-42.66 C114.42,-42.66 117.45,-41.69 119.32,-39.82 C121.19,-37.95 122.1,-35.65 122.1,-32.93 C122.1,-30.27 121.07,-27.98 119.02,-25.98 C116.96,-24.05 113.94,-23.08 109.89,-23.08 C109.89,-23.08 99.68,-23.08 99.68,-23.08 C99.68,-23.08 99.68,-42.66 99.68,-42.66z" style="display: inherit;"></path>
        </g>
        <!-- Text Element 14: devEdge Consulting (reuse, was IT TECHNOLOGY) -->
        <g fill="rgb(199,31,63)" font-size="20" font-family="Gordita" font-style="normal" font-weight="200" aria-label="devEdge Consulting" style="display: block;" transform="matrix(0,-0.4049999713897705,0.4049999713897705,0,422.0550231933594,438.0799865722656)" opacity="1">
             <path stroke-linecap="butt" stroke-linejoin="round" stroke-miterlimit="4" d=" M6.36,-31.54 C6.36,-31.54 4.67,-31.54 4.67,-31.54 C4.67,-31.54 4.67,0 4.67,0 C4.67,0 6.36,0 6.36,0 C6.36,0 6.36,-31.54 6.36,-31.54z M32.77,-31.54 C32.77,-31.54 10.05,-31.54 10.05,-31.54 C10.05,-31.54 10.05,-30.05 10.05,-30.05 C10.05,-30.05 20.68,-30.05 20.68,-30.05 C20.68,-30.05 20.68,0 20.68,0 C20.68,0 22.33,0 22.33,0 C22.33,0 22.33,-30.05 22.33,-30.05 C22.33,-30.05 32.77,-30.05 32.77,-30.05 C32.77,-30.05 32.77,-31.54 32.77,-31.54z M75.05,-31.54 C75.05,-31.54 52.33,-31.54 52.33,-31.54 C52.33,-31.54 52.33,-30.05 52.33,-30.05 C52.33,-30.05 62.96,-30.05 62.96,-30.05 C62.96,-30.05 62.96,0 62.96,0 C62.96,0 64.61,0 64.61,0 C64.61,0 64.61,-30.05 64.61,-30.05 C64.61,-30.05 75.05,-30.05 75.05,-30.05 C75.05,-30.05 75.05,-31.54 75.05,-31.54z M80.32,-16.84 C80.32,-16.84 80.32,-30.05 80.32,-30.05 C80.32,-30.05 97.57,-30.05 97.57,-30.05 C97.57,-30.05 97.57,-31.54 97.57,-31.54 C97.57,-31.54 78.63,-31.54 78.63,-31.54 C78.63,-31.54 78.63,0 78.63,0 C78.63,0 97.77,0 97.77,0 C97.77,0 97.77,-1.53 97.77,-1.53 C97.77,-1.53 80.32,-1.53 80.32,-1.53 C80.32,-1.53 80.32,-15.31 80.32,-15.31 C80.32,-15.31 96.2,-15.31 96.2,-15.31 C96.2,-15.31 96.2,-16.84 96.2,-16.84 C96.2,-16.84 80.32,-16.84 80.32,-16.84z M128.69,-10.27 C128.01,-8.46 126.92,-6.65 124.95,-4.59 C122.97,-2.54 119.75,-1.17 116.05,-1.17 C112.06,-1.17 108.75,-2.62 106.14,-5.48 C103.56,-8.34 102.27,-11.8 102.27,-15.87 C102.27,-19.9 103.56,-23.32 106.14,-26.14 C108.75,-28.96 112.02,-30.37 116.01,-30.37 C119.55,-30.37 122.61,-29.16 124.59,-27.27 C126.56,-25.46 127.85,-23.49 128.61,-21.35 C128.61,-21.35 130.06,-22.03 130.06,-22.03 C129.26,-24.41 127.77,-26.63 125.51,-28.6 C123.3,-30.58 119.91,-31.9 116.09,-31.9 C111.61,-31.9 107.91,-30.33 104.97,-27.19 C102.03,-24.09 100.58,-20.26 100.58,-15.75 C100.58,-11.2 102.03,-7.41 104.93,-4.31 C107.83,-1.21 111.53,0.32 116.01,0.32 C119.91,0.32 123.42,-1.05 125.63,-3.1 C127.89,-5.16 129.34,-7.33 130.14,-9.59 C130.14,-9.59 128.69,-10.27 128.69,-10.27z M136.2,-31.54 C136.2,-31.54 134.51,-31.54 134.51,-31.54 C134.51,-31.54 134.51,0 134.51,0 C134.51,0 136.2,0 136.2,0 C136.2,0 136.2,-15.31 136.2,-15.31 C136.2,-15.31 156.67,-15.31 156.67,-15.31 C156.67,-15.31 156.67,0 156.67,0 C156.67,0 158.36,0 158.36,0 C158.36,0 158.36,-31.54 158.36,-31.54 C158.36,-31.54 156.67,-31.54 156.67,-31.54 C156.67,-31.54 156.67,-16.84 156.67,-16.84 C156.67,-16.84 136.2,-16.84 136.2,-16.84 C136.2,-16.84 136.2,-31.54 136.2,-31.54z M188.88,-2.38 C188.88,-2.38 167.61,-31.54 167.61,-31.54 C167.61,-31.54 165.59,-31.54 165.59,-31.54 C165.59,-31.54 165.59,0 165.59,0 C165.59,0 167.24,0 167.24,0 C167.24,0 167.24,-29.33 167.24,-29.33 C167.24,-29.33 188.63,0 188.63,0 C188.63,0 190.53,0 190.53,0 C190.53,0 190.53,-31.54 190.53,-31.54 C190.53,-31.54 188.88,-31.54 188.88,-31.54 C188.88,-31.54 188.88,-2.38 188.88,-2.38z M210.93,0.32 C215.4,0.32 219.1,-1.25 222.04,-4.35 C224.98,-7.45 226.47,-11.28 226.47,-15.83 C226.47,-20.3 225.02,-24.13 222.08,-27.23 C219.14,-30.33 215.44,-31.9 210.97,-31.9 C206.49,-31.9 202.79,-30.33 199.85,-27.19 C196.91,-24.09 195.46,-20.26 195.46,-15.75 C195.46,-11.24 196.91,-7.41 199.85,-4.31 C202.79,-1.21 206.45,0.32 210.93,0.32z M210.93,-30.37 C214.91,-30.37 218.22,-28.92 220.84,-26.06 C223.45,-23.2 224.78,-19.74 224.78,-15.71 C224.78,-11.68 223.49,-8.26 220.88,-5.4 C218.26,-2.58 214.99,-1.17 211.01,-1.17 C207.02,-1.17 203.67,-2.58 201.06,-5.44 C198.44,-8.3 197.15,-11.8 197.15,-15.87 C197.15,-19.9 198.44,-23.32 201.06,-26.14 C203.67,-28.96 206.94,-30.37 210.93,-30.37z M248.8,0 C248.8,0 248.8,-1.53 248.8,-1.53 C248.8,-1.53 233.04,-1.53 233.04,-1.53 C233.04,-1.53 233.04,-31.54 233.04,-31.54 C233.04,-31.54 231.39,-31.54 231.39,-31.54 C231.39,-31.54 231.39,0 231.39,0 C231.39,0 248.8,0 248.8,0z M265.77,0.32 C270.24,0.32 273.94,-1.25 276.88,-4.35 C279.82,-7.45 281.31,-11.28 281.31,-15.83 C281.31,-20.3 279.86,-24.13 276.92,-27.23 C273.98,-30.33 270.28,-31.9 265.81,-31.9 C261.33,-31.9 257.63,-30.33 254.69,-27.19 C251.75,-24.09 250.3,-20.26 250.3,-15.75 C250.3,-11.24 251.75,-7.41 254.69,-4.31 C257.63,-1.21 261.29,0.32 265.77,0.32z M265.77,-30.37 C269.75,-30.37 273.06,-28.92 275.68,-26.06 C278.29,-23.2 279.62,-19.74 279.62,-15.71 C279.62,-11.68 278.33,-8.26 275.72,-5.4 C273.1,-2.58 269.83,-1.17 265.85,-1.17 C261.86,-1.17 258.51,-2.58 255.9,-5.44 C253.28,-8.3 251.99,-11.8 251.99,-15.87 C251.99,-19.9 253.28,-23.32 255.9,-26.14 C258.51,-28.96 261.78,-30.37 265.77,-30.37z M297.67,-14.7 C297.67,-14.7 297.67,-13.17 297.67,-13.17 C297.67,-13.17 312.22,-13.17 312.22,-13.17 C312.22,-13.17 312.22,-13.05 312.22,-13.05 C312.22,-9.51 310.97,-6.65 308.47,-4.43 C305.97,-2.26 302.95,-1.17 299.45,-1.17 C295.38,-1.17 292.03,-2.58 289.46,-5.36 C286.92,-8.18 285.63,-11.68 285.63,-15.87 C285.63,-19.9 286.92,-23.32 289.5,-26.14 C292.07,-28.96 295.38,-30.37 299.45,-30.37 C302.83,-30.37 305.85,-29.21 307.78,-27.43 C309.76,-25.66 311.09,-23.77 311.85,-21.67 C311.85,-21.67 313.3,-22.36 313.3,-22.36 C312.42,-24.85 310.77,-27.07 308.39,-29 C306.01,-30.94 303.03,-31.9 299.49,-31.9 C294.93,-31.9 291.19,-30.33 288.29,-27.23 C285.39,-24.13 283.94,-20.3 283.94,-15.75 C283.94,-11.16 285.39,-7.33 288.25,-4.27 C291.15,-1.21 294.85,0.32 299.37,0.32 C303.68,0.32 307.14,-0.97 309.84,-3.54 C312.54,-6.12 313.87,-9.35 313.87,-13.17 C313.87,-13.17 313.87,-14.7 313.87,-14.7 C313.87,-14.7 297.67,-14.7 297.67,-14.7z M328.34,-15.07 C328.34,-15.07 317.14,-31.54 317.14,-31.54 C317.14,-31.54 315.13,-31.54 315.13,-31.54 C315.13,-31.54 327.5,-13.54 327.5,-13.54 C327.5,-13.54 327.5,0 327.5,0 C327.5,0 329.15,0 329.15,0 C329.15,0 329.15,-13.54 329.15,-13.54 C329.15,-13.54 341.51,-31.54 341.51,-31.54 C341.51,-31.54 339.54,-31.54 339.54,-31.54 C339.54,-31.54 328.34,-15.07 328.34,-15.07z" style="display: inherit;"></path>
        </g>
        <!-- Rotated Text/Symbol 2 (was duplicate IT TECHNOLOGY) -->
        <g style="display: block;" transform="matrix(0,-0.4049999713897705,0.4049999713897705,0,441.4949951171875,436.4599914550781)" opacity="1" aria-label="Industrial Control Systems (ICS) & OT Security Services"> <!-- Label 11 -->
            <g opacity="1" transform="matrix(1,0,0,1,0,0)">
                 <path fill="rgb(198,31,63)" fill-opacity="1" d=" M325.3420104980469,-31.54199981689453 C325.3420104980469,-31.54199981689453 325.3420104980469,0 325.3420104980469,0 C325.3420104980469,0 345.3219909667969,0 345.3219909667969,0 C345.3219909667969,0 345.3219909667969,-6.203999996185303 345.3219909667969,-6.203999996185303 C345.3219909667969,-6.203999996185303 331.8269958496094,-6.203999996185303 331.8269958496094,-6.203999996185303 C331.8269958496094,-6.203999996185303 331.8269958496094,-31.54199981689453 331.8269958496094,-31.54199981689453 C331.8269958496094,-31.54199981689453 325.3420104980469,-31.54199981689453 325.3420104980469,-31.54199981689453z"></path>
            </g>
            <g opacity="1" transform="matrix(1,0,0,1,0,0)">
                 <path fill="rgb(198,31,63)" fill-opacity="1" d=" M307.74798583984375,-25.216999053955078 C307.74798583984375,-25.216999053955078 312.5010070800781,-12.406999588012695 312.5010070800781,-12.406999588012695 C312.5010070800781,-12.406999588012695 302.9939880371094,-12.406999588012695 302.9939880371094,-12.406999588012695 C302.9939880371094,-12.406999588012695 307.74798583984375,-25.216999053955078 307.74798583984375,-25.216999053955078z M298.4020080566406,0 C298.4020080566406,0 300.7380065917969,-6.364999771118164 300.7380065917969,-6.364999771118164 C300.7380065917969,-6.364999771118164 314.7170104980469,-6.364999771118164 314.7170104980469,-6.364999771118164 C314.7170104980469,-6.364999771118164 317.0929870605469,0 317.0929870605469,0 C317.0929870605469,0 323.8210144042969,0 323.8210144042969,0 C323.8210144042969,0 311.7359924316406,-31.54199981689453 311.7359924316406,-31.54199981689453 C311.7359924316406,-31.54199981689453 303.8810119628906,-31.54199981689453 303.8810119628906,-31.54199981689453 C303.8810119628906,-31.54199981689453 291.83599853515625,0 291.83599853515625,0 C291.83599853515625,0 298.4020080566406,0 298.4020080566406,0z"></path>
            </g>
            <g opacity="1" transform="matrix(1,0,0,1,0,0)">
                 <path fill="rgb(198,31,63)" fill-opacity="1" d=" M280.02899169921875,0 C280.02899169921875,0 286.5140075683594,0 286.5140075683594,0 C286.5140075683594,0 286.5140075683594,-25.216999053955078 286.5140075683594,-25.216999053955078 C286.5140075683594,-25.216999053955078 295.9809875488281,-25.216999053955078 295.9809875488281,-25.216999053955078 C295.9809875488281,-25.216999053955078 295.9809875488281,-31.54199981689453 295.9809875488281,-31.54199981689453 C295.9809875488281,-31.54199981689453 270.56201171875,-31.54199981689453 270.56201171875,-31.54199981689453 C270.56201171875,-31.54199981689453 270.56201171875,-25.216999053955078 270.56201171875,-25.216999053955078 C270.56201171875,-25.216999053955078 280.02899169921875,-25.216999053955078 280.02899169921875,-25.216999053955078 C280.02899169921875,-25.216999053955078 280.02899169921875,0 280.02899169921875,0z"></path>
            </g>
            <g opacity="1" transform="matrix(1,0,0,1,0,0)">
                 <path fill="rgb(198,31,63)" fill-opacity="1" d=" M267.9880065917969,-31.54199981689453 C267.9880065917969,-31.54199981689453 261.4630126953125,-31.54199981689453 261.4630126953125,-31.54199981689453 C261.4630126953125,-31.54199981689453 261.4630126953125,0 261.4630126953125,0 C261.4630126953125,0 267.9880065917969,0 267.9880065917969,0 C267.9880065917969,0 267.9880065917969,-31.54199981689453 267.9880065917969,-31.54199981689453z"></path>
            </g>
            <g opacity="1" transform="matrix(1,0,0,1,0,0)">
                 <path fill="rgb(198,31,63)" fill-opacity="1" d=" M252.0989990234375,-21.270000457763672 C252.0989990234375,-18.5310001373291 249.76199340820312,-17.201000213623047 246.86199951171875,-17.201000213623047 C246.86199951171875,-17.201000213623047 242.18899536132812,-17.201000213623047 242.18899536132812,-17.201000213623047 C242.18899536132812,-17.201000213623047 242.18899536132812,-25.378000259399414 242.18899536132812,-25.378000259399414 C242.18899536132812,-25.378000259399414 246.82200622558594,-25.378000259399414 246.82200622558594,-25.378000259399414 C249.84300231933594,-25.378000259399414 252.0989990234375,-24.1299991607666 252.0989990234375,-21.270000457763672z M258.6650085449219,-21.430999755859375 C258.6650085449219,-24.65399932861328 257.61700439453125,-27.150999069213867 255.48199462890625,-28.882999420166016 C253.38699340820312,-30.655000686645508 250.68899536132812,-31.54199981689453 247.38600158691406,-31.54199981689453 C247.38600158691406,-31.54199981689453 235.66299438476562,-31.54199981689453 235.66299438476562,-31.54199981689453 C235.66299438476562,-31.54199981689453 235.66299438476562,0 235.66299438476562,0 C235.66299438476562,0 242.18899536132812,0 242.18899536132812,0 C242.18899536132812,0 242.18899536132812,-11.118000030517578 242.18899536132812,-11.118000030517578 C242.18899536132812,-11.118000030517578 247.1439971923828,-11.118000030517578 247.1439971923828,-11.118000030517578 C250.60800170898438,-11.118000030517578 253.38699340820312,-12.005000114440918 255.48199462890625,-13.737000465393066 C257.61700439453125,-15.508999824523926 258.6650085449219,-18.086999893188477 258.6650085449219,-21.430999755859375z"></path>
            </g>
            <g opacity="1" transform="matrix(1,0,0,1,0,0)">
                 <path fill="rgb(198,31,63)" fill-opacity="1" d=" M218.06900024414062,-25.216999053955078 C218.06900024414062,-25.216999053955078 222.822998046875,-12.406999588012695 222.822998046875,-12.406999588012695 C222.822998046875,-12.406999588012695 213.3159942626953,-12.406999588012695 213.3159942626953,-12.406999588012695 C213.3159942626953,-12.406999588012695 218.06900024414062,-25.216999053955078 218.06900024414062,-25.216999053955078z M208.7239990234375,0 C208.7239990234375,0 211.05999755859375,-6.364999771118164 211.05999755859375,-6.364999771118164 C211.05999755859375,-6.364999771118164 225.03799438476562,-6.364999771118164 225.03799438476562,-6.364999771118164 C225.03799438476562,-6.364999771118164 227.4149932861328,0 227.4149932861328,0 C227.4149932861328,0 234.14199829101562,0 234.14199829101562,0 C234.14199829101562,0 222.0570068359375,-31.54199981689453 222.0570068359375,-31.54199981689453 C222.0570068359375,-31.54199981689453 214.20199584960938,-31.54199981689453 214.20199584960938,-31.54199981689453 C214.20199584960938,-31.54199981689453 202.15699768066406,0 202.15699768066406,0 C202.15699768066406,0 208.7239990234375,0 208.7239990234375,0z"></path>
            </g>
            <g opacity="1" transform="matrix(1,0,0,1,0,0)">
                 <path fill="rgb(198,31,63)" fill-opacity="1" d=" M172.80999755859375,-15.75100040435791 C172.80999755859375,-11.159000396728516 174.38099670410156,-7.290999889373779 177.48300170898438,-4.189000129699707 C180.5850067138672,-1.0870000123977661 184.45199584960938,0.4429999887943268 189.04400634765625,0.4429999887943268 C192.2259979248047,0.4429999887943268 195.20700073242188,-0.4020000100135803 197.906005859375,-2.053999900817871 C200.64500427246094,-3.746000051498413 202.53900146484375,-6.043000221252441 203.58599853515625,-8.942999839782715 C203.58599853515625,-8.942999839782715 197.58399963378906,-11.722000122070312 197.58399963378906,-11.722000122070312 C196.1739959716797,-8.217000007629395 192.99200439453125,-5.88100004196167 189.125,-5.88100004196167 C186.34500122070312,-5.88100004196167 184.08999633789062,-6.8480000495910645 182.27699279785156,-8.741000175476074 C180.46400451660156,-10.675000190734863 179.5780029296875,-13.050999641418457 179.5780029296875,-15.831000328063965 C179.5780029296875,-18.56999969482422 180.50399780273438,-20.906999588012695 182.31700134277344,-22.799999237060547 C184.1300048828125,-24.69300079345703 186.42599487304688,-25.65999984741211 189.125,-25.65999984741211 C193.03199768066406,-25.65999984741211 196.1750030517578,-23.485000610351562 197.50399780273438,-19.979999542236328 C197.50399780273438,-19.979999542236328 203.46499633789062,-22.719999313354492 203.46499633789062,-22.719999313354492 C202.41799926757812,-25.579999923706055 200.56500244140625,-27.875999450683594 197.906005859375,-29.527999877929688 C195.28799438476562,-31.18000030517578 192.3470001220703,-32.025001525878906 189.1649932861328,-32.025001525878906 C184.61300659179688,-32.025001525878906 180.7449951171875,-30.45400047302246 177.56300354003906,-27.27199935913086 C174.38099670410156,-24.1299991607666 172.80999755859375,-20.30299949645996 172.80999755859375,-15.75100040435791z"></path>
            </g>
            <g opacity="1" transform="matrix(1,0,0,1,0,0)">
                 <path fill="rgb(138,140,142)" fill-opacity="1" d=" M159.52999877929688,-31.54199981689453 C159.52999877929688,-31.54199981689453 156.26699829101562,-31.54199981689453 156.26699829101562,-31.54199981689453 C156.26699829101562,-31.54199981689453 156.26699829101562,-5.197000026702881 156.26699829101562,-5.197000026702881 C156.26699829101562,-5.197000026702881 137.656005859375,-31.54199981689453 137.656005859375,-31.54199981689453 C137.656005859375,-31.54199981689453 133.82899475097656,-31.54199981689453 133.82899475097656,-31.54199981689453 C133.82899475097656,-31.54199981689453 133.82899475097656,0 133.82899475097656,0 C133.82899475097656,0 137.0919952392578,0 137.0919952392578,0 C137.0919952392578,0 137.0919952392578,-26.868999481201172 137.0919952392578,-26.868999481201172 C137.0919952392578,-26.868999481201172 155.98500061035156,0 155.98500061035156,0 C155.98500061035156,0 159.52999877929688,0 159.52999877929688,0 C159.52999877929688,0 159.52999877929688,-31.54199981689453 159.52999877929688,-31.54199981689453z"></path>
            </g>
            <g opacity="1" transform="matrix(1,0,0,1,0,0)">
                 <path fill="rgb(138,140,142)" fill-opacity="1" d=" M108.53700256347656,-11.07800006866455 C108.53700256347656,-11.07800006866455 115.86799621582031,-28.118000030517578 115.86799621582031,-28.118000030517578 C115.86799621582031,-28.118000030517578 123.19999694824219,-11.07800006866455 123.19999694824219,-11.07800006866455 C123.19999694824219,-11.07800006866455 108.53700256347656,-11.07800006866455 108.53700256347656,-11.07800006866455z M107.28800201416016,-8.057000160217285 C107.28800201416016,-8.057000160217285 124.48899841308594,-8.057000160217285 124.48899841308594,-8.057000160217285 C124.48899841308594,-8.057000160217285 127.91300201416016,0 127.91300201416016,0 C127.91300201416016,0 131.41700744628906,0 131.41700744628906,0 C131.41700744628906,0 117.802001953125,-31.54199981689453 117.802001953125,-31.54199981689453 C117.802001953125,-31.54199981689453 114.05500030517578,-31.54199981689453 114.05500030517578,-31.54199981689453 C114.05500030517578,-31.54199981689453 100.44000244140625,0 100.44000244140625,0 C100.44000244140625,0 103.8239974975586,0 103.8239974975586,0 C103.8239974975586,0 107.28800201416016,-8.057000160217285 107.28800201416016,-8.057000160217285z"></path>
            </g>
            <g opacity="1" transform="matrix(1,0,0,1,0,0)">
                 <path fill="rgb(138,140,142)" fill-opacity="1" d=" M98.10199737548828,0 C98.10199737548828,0 98.10199737548828,-31.54199981689453 98.10199737548828,-31.54199981689453 C98.10199737548828,-31.54199981689453 93.3479995727539,-31.54199981689453 93.3479995727539,-31.54199981689453 C93.3479995727539,-31.54199981689453 81.66600036621094,-4.51200008392334 81.66600036621094,-4.51200008392334 C81.66600036621094,-4.51200008392334 69.86299896240234,-31.54199981689453 69.86299896240234,-31.54199981689453 C69.86299896240234,-31.54199981689453 65.19000244140625,-31.54199981689453 65.19000244140625,-31.54199981689453 C65.19000244140625,-31.54199981689453 65.19000244140625,0 65.19000244140625,0 C65.19000244140625,0 68.4530029296875,0 68.4530029296875,0 C68.4530029296875,0 68.4530029296875,-26.82900047302246 68.4530029296875,-26.82900047302246 C68.4530029296875,-26.82900047302246 80.09500122070312,0 80.09500122070312,0 C80.09500122070312,0 83.07599639892578,0 83.07599639892578,0 C83.07599639892578,0 94.7979965209961,-27.030000686645508 94.7979965209961,-27.030000686645508 C94.7979965209961,-27.030000686645508 94.83899688720703,-27.030000686645508 94.83899688720703,-27.030000686645508 C94.83899688720703,-27.030000686645508 94.83899688720703,0 94.83899688720703,0 C94.83899688720703,0 98.10199737548828,0 98.10199737548828,0z"></path>
            </g>
            <g opacity="1" transform="matrix(1,0,0,1,0,0)">
                 <path fill="rgb(138,140,142)" fill-opacity="1" d=" M55.611000061035156,-31.54199981689453 C55.611000061035156,-31.54199981689453 55.611000061035156,-12.085000038146973 55.611000061035156,-12.085000038146973 C55.611000061035156,-6.163000106811523 52.630001068115234,-2.7799999713897705 47.19200134277344,-2.7799999713897705 C41.915000915527344,-2.7799999713897705 38.53099822998047,-5.71999979019165 38.53099822998047,-12.28600025177002 C38.53099822998047,-12.28600025177002 38.53099822998047,-31.54199981689453 38.53099822998047,-31.54199981689453 C38.53099822998047,-31.54199981689453 35.22800064086914,-31.54199981689453 35.22800064086914,-31.54199981689453 C35.22800064086914,-31.54199981689453 35.22800064086914,-12.125 35.22800064086914,-12.125 C35.22800064086914,-8.338000297546387 36.275001525878906,-5.317999839782715 38.32899856567383,-3.062000036239624 C40.382999420166016,-0.8059999942779541 43.32500076293945,0.32199999690055847 47.07099914550781,0.32199999690055847 C54.52299880981445,0.32199999690055847 58.91400146484375,-4.310999870300293 58.91400146484375,-12.32699966430664 C58.91400146484375,-12.32699966430664 58.91400146484375,-31.54199981689453 58.91400146484375,-31.54199981689453 C58.91400146484375,-31.54199981689453 55.611000061035156,-31.54199981689453 55.611000061035156,-31.54199981689453z"></path>
            </g>
            <g opacity="1" transform="matrix(1,0,0,1,0,0)">
                 <path fill="rgb(138,140,142)" fill-opacity="1" d=" M7.693999767303467,-14.420999526977539 C7.693999767303467,-14.420999526977539 25.65999984741211,-14.420999526977539 25.65999984741211,-14.420999526977539 C25.65999984741211,-14.420999526977539 25.65999984741211,0 25.65999984741211,0 C25.65999984741211,0 28.964000701904297,0 28.964000701904297,0 C28.964000701904297,0 28.964000701904297,-31.54199981689453 28.964000701904297,-31.54199981689453 C28.964000701904297,-31.54199981689453 25.65999984741211,-31.54199981689453 25.65999984741211,-31.54199981689453 C25.65999984741211,-31.54199981689453 25.65999984741211,-17.604000091552734 25.65999984741211,-17.604000091552734 C25.65999984741211,-17.604000091552734 7.693999767303467,-17.604000091552734 7.693999767303467,-17.604000091552734 C7.693999767303467,-17.604000091552734 7.693999767303467,-31.54199981689453 7.693999767303467,-31.54199981689453 C7.693999767303467,-31.54199981689453 4.390999794006348,-31.54199981689453 4.390999794006348,-31.54199981689453 C4.390999794006348,-31.54199981689453 4.390999794006348,0 4.390999794006348,0 C4.390999794006348,0 7.693999767303467,0 7.693999767303467,0 C7.693999767303467,0 7.693999767303467,-14.420999526977539 7.693999767303467,-14.420999526977539z"></path>
            </g>
        </g>
        <!-- Hidden/Animated Elements -->
        <g style="display: none;" transform="matrix(0.5,0,0,0.5,673,277)" opacity="1">
           <!-- content omitted for brevity -->
        </g>
        <g style="display: none;" transform="matrix(0,0.5000000596046448,-0.5000000596046448,0,291.5,658.5)" opacity="1.1503611744956288e-7">
           <!-- content omitted for brevity -->
        </g>
        <g style="display: none;" transform="matrix(0,0.5000000596046448,-0.5000000596046448,0,291.5,658.5)" opacity="1">
           <!-- content omitted for brevity -->
        </g>
        <g style="display: none;" transform="matrix(0.5000000596046448,0,0,0.5238850712776184,248,308.5001220703125)" opacity="1">
            <!-- content omitted for brevity -->
        </g>
        <g style="display: none;">
            <g>
                <path></path>
            </g>
        </g>
        <g style="display: none;">
            <g>
                <path></path>
            </g>
        </g>
        <g style="display: none;">
            <g>
                <path></path>
            </g>
        </g>
        <g style="display: none;">
            <g>
                <path></path>
            </g>
        </g>
        <g style="display: none;">
            <g>
                <path></path>
            </g>
        </g>
        <g style="display: none;" transform="matrix(0.1499999463558197,0,0,0.1499999463558197,563.9432983398438,343.3500061035156)" opacity="1">
            <g opacity="1" transform="matrix(1,0,0,1,-262,-34)">
                <path fill="rgb(198,31,63)" fill-opacity="1" d=" M0,-133 C73.12674713134766,-133 132.5,-73.40270233154297 132.5,0 C132.5,73.40270233154297 73.12674713134766,133 0,133 C-73.12674713134766,133 -132.5,73.40270233154297 -132.5,0 C-132.5,-73.40270233154297 -73.12674713134766,-133 0,-133z"></path>
            </g>
        </g>
        <g mask="url(#__lottie_element_22)" style="display: none;">
            <!-- content omitted for brevity -->
        </g>
        <g fill="rgb(138,140,143)" font-size="70" font-family="Futura Bk BT" font-style="normal" font-weight="normal" aria-label="International" style="display: none;" transform="matrix(0.5,0,0,0.5,552.5,310)" opacity="0.9999990113594652">
             <path stroke-linecap="butt" stroke-linejoin="round" stroke-miterlimit="4" d=" M29.8,-20.44 C29.8,-20.44 13.88,-20.44 13.88,-20.44 C13.88,-20.44 21.84,-38.86 21.84,-38.86 C21.84,-38.86 29.8,-20.44 29.8,-20.44z M-0.85,0 C-0.85,0 5.61,0 5.61,0 C5.61,0 12.1,-15.35 12.1,-15.35 C12.1,-15.35 31.65,-15.35 31.65,-15.35 C31.65,-15.35 38.14,0 38.14,0 C38.14,0 44.6,0 44.6,0 C44.6,0 21.84,-52.02 21.84,-52.02 C21.84,-52.02 -0.85,0 -0.85,0z M74.46,0 C74.46,0 74.46,-16.17 74.46,-16.17 C74.46,-18.76 74.6,-20.59 74.89,-21.64 C75.17,-22.68 75.64,-23.62 76.31,-24.44 C77.17,-25.51 78.26,-26.34 79.57,-26.92 C80.88,-27.5 82.33,-27.79 83.93,-27.79 C86.71,-27.79 88.76,-27.02 90.1,-25.48 C91.43,-23.94 92.1,-21.59 92.1,-18.42 C92.1,-18.42 92.1,0 92.1,0 C92.1,0 97.57,0 97.57,0 C97.57,0 97.57,-21.29 97.57,-21.29 C97.57,-24.78 96.53,-27.5 94.45,-29.46 C92.38,-31.42 89.5,-32.4 85.81,-32.4 C83.32,-32.4 81.14,-31.91 79.24,-30.93 C77.35,-29.95 75.74,-28.46 74.39,-26.46 C74.39,-26.46 74.39,-31.27 74.39,-31.27 C74.39,-31.27 69.16,-31.27 69.16,-31.27 C69.16,-31.27 69.16,0 69.16,0 C69.16,0 74.46,0 74.46,0z M110.95,-19.18 C111.23,-21.8 112.23,-23.89 113.96,-25.45 C115.69,-27.01 117.86,-27.79 120.46,-27.79 C123.33,-27.79 125.59,-27.04 127.24,-25.55 C128.89,-24.06 129.81,-21.93 129.99,-19.18 C129.99,-19.18 110.95,-19.18 110.95,-19.18z M135.73,-15.89 C135.73,-21.02 134.38,-25.06 131.68,-28.03 C128.98,-30.99 125.32,-32.47 120.69,-32.47 C116.11,-32.47 112.37,-30.91 109.45,-27.79 C106.53,-24.67 105.07,-20.66 105.07,-15.76 C105.07,-10.65 106.54,-6.53 109.48,-3.38 C112.42,-0.24 116.27,1.33 121.04,1.33 C124.25,1.33 127.07,0.62 129.51,-0.82 C131.95,-2.26 133.96,-4.39 135.53,-7.21 C135.53,-7.21 131.46,-9.95 131.46,-9.95 C130.16,-7.67 128.67,-5.96 126.98,-4.84 C125.3,-3.71 123.41,-3.14 121.31,-3.14 C118.23,-3.14 115.74,-4.18 113.82,-6.24 C111.91,-8.3 110.95,-11.01 110.95,-14.36 C110.95,-14.36 110.95,-14.83 110.95,-14.83 C110.95,-14.83 135.73,-14.83 135.73,-14.83 C135.73,-14.83 135.73,-15.89 135.73,-15.89z M144.27,0 C144.27,0 149.74,0 149.74,0 C149.74,0 149.74,-26.87 149.74,-26.87 C149.74,-26.87 155.48,-26.87 155.48,-26.87 C155.48,-26.87 155.48,-31.27 155.48,-31.27 C155.48,-31.27 149.74,-31.27 149.74,-31.27 C149.74,-31.27 149.74,-43.89 149.74,-43.89 C149.74,-43.89 144.27,-43.89 144.27,-43.89 C144.27,-43.89 144.27,-31.27 144.27,-31.27 C144.27,-31.27 138.53,-31.27 138.53,-31.27 C138.53,-31.27 138.53,-26.87 138.53,-26.87 C138.53,-26.87 144.27,-26.87 144.27,-26.87 C144.27,-26.87 144.27,0 144.27,0z M179.54,-32.4 C179.54,-32.4 170.04,-9.95 170.04,-9.95 C170.04,-9.95 161.7,-31.27 161.7,-31.27 C161.7,-31.27 155.75,-31.27 155.75,-31.27 C155.75,-31.27 169.7,1.95 169.7,1.95 C169.7,1.95 179.98,-22.05 179.98,-22.05 C179.98,-22.05 190.27,1.95 190.27,1.95 C190.27,1.95 204.18,-31.27 204.18,-31.27 C204.18,-31.27 198.17,-31.27 198.17,-31.27 C198.17,-31.27 189.76,-9.95 189.76,-9.95 C189.76,-9.95 180.39,-32.4 180.39,-32.4 C180.39,-32.4 179.54,-32.4 179.54,-32.4z M215.74,-23.94 C217.94,-26.23 220.63,-27.38 223.79,-27.38 C226.92,-27.38 229.57,-26.23 231.76,-23.94 C233.95,-21.65 235.04,-18.86 235.04,-15.55 C235.04,-12.25 233.95,-9.45 231.76,-7.16 C229.57,-4.87 226.92,-3.73 223.79,-3.73 C220.65,-3.73 217.97,-4.87 215.76,-7.16 C213.55,-9.45 212.45,-12.25 212.45,-15.55 C212.45,-18.86 213.55,-21.65 215.74,-23.94z M208.04,-9.09 C208.88,-7.09 210.11,-5.26 211.73,-3.62 C213.35,-2.03 215.19,-0.8 217.25,0.05 C219.31,0.91 221.49,1.33 223.79,1.33 C226.03,1.33 228.17,0.9 230.24,0.03 C232.3,-0.83 234.16,-2.08 235.83,-3.73 C237.44,-5.3 238.67,-7.09 239.52,-9.11 C240.36,-11.13 240.78,-13.27 240.78,-15.55 C240.78,-17.83 240.36,-19.99 239.52,-22.03 C238.67,-24.07 237.44,-25.87 235.83,-27.45 C234.16,-29.06 232.31,-30.29 230.27,-31.14 C228.23,-31.98 226.07,-32.4 223.79,-32.4 C221.47,-32.4 219.28,-31.99 217.23,-31.15 C215.18,-30.32 213.35,-29.11 211.73,-27.51 C210.11,-25.92 208.88,-24.1 208.04,-22.06 C207.19,-20.02 206.77,-17.85 206.77,-15.55 C206.77,-13.25 207.19,-11.1 208.04,-9.09z M254.13,0 C254.13,0 254.13,-15.24 254.13,-15.24 C254.13,-19.35 254.84,-22.42 256.25,-24.46 C257.67,-26.49 259.78,-27.51 262.61,-27.51 C263.11,-27.51 263.64,-27.46 264.18,-27.36 C264.73,-27.26 265.31,-27.1 265.93,-26.9 C265.93,-26.9 267.7,-31.72 267.7,-31.72 C267.11,-31.92 266.52,-32.08 265.93,-32.18 C265.33,-32.28 264.72,-32.33 264.08,-32.33 C261.76,-32.33 259.78,-31.75 258.17,-30.59 C256.55,-29.43 255.02,-27.49 253.59,-24.78 C253.59,-24.78 253.59,-31.27 253.59,-31.27 C253.59,-31.27 248.84,-31.27 248.84,-31.27 C248.84,-31.27 248.84,0 248.84,0 C248.84,0 254.13,0 254.13,0z M278.43,0 C278.43,0 278.43,-16.51 278.43,-16.51 C278.43,-16.51 294.56,0 294.56,0 C294.56,0 302.05,0 302.05,0 C302.05,0 285.03,-16.95 285.03,-16.95 C285.03,-16.95 300.65,-31.27 300.65,-31.27 C300.65,-31.27 293.5,-31.27 293.5,-31.27 C293.5,-31.27 278.43,-17.09 278.43,-17.09 C278.43,-17.09 278.43,-52.98 278.43,-52.98 C278.43,-52.98 273.06,-52.98 273.06,-52.98 C273.06,-52.98 273.06,0 273.06,0 C273.06,0 278.43,0 278.43,0z M334.3,0 C334.3,0 334.3,-26.87 334.3,-26.87 C334.3,-26.87 342.5,-26.87 342.5,-26.87 C342.5,-26.87 342.5,-31.27 342.5,-31.27 C342.5,-31.27 334.16,-31.27 334.16,-31.27 C334.16,-31.27 334.16,-39.61 334.16,-39.61 C334.16,-43.53 334.46,-45.99 335.05,-47 C335.64,-48 336.72,-48.5 338.3,-48.5 C339.03,-48.5 339.74,-48.41 340.43,-48.23 C341.13,-48.04 341.82,-47.76 342.5,-47.37 C342.5,-47.37 342.5,-52.91 342.5,-52.91 C341.79,-53.16 341.06,-53.34 340.3,-53.46 C339.53,-53.57 338.73,-53.63 337.89,-53.63 C334.49,-53.63 332.14,-52.71 330.83,-50.88 C329.52,-49.04 328.86,-45.53 328.86,-40.33 C328.86,-40.33 328.86,-31.27 328.86,-31.27 C328.86,-31.27 322.85,-31.27 322.85,-31.27 C322.85,-31.27 322.85,-26.87 322.85,-26.87 C322.85,-26.87 328.86,-26.87 328.86,-26.87 C328.86,-26.87 328.86,0 328.86,0 C328.86,0 334.3,0 334.3,0z M347.5,-43.54 C348.27,-42.79 349.19,-42.42 350.29,-42.42 C351.38,-42.42 352.31,-42.79 353.06,-43.54 C353.81,-44.3 354.18,-45.21 354.18,-46.28 C354.18,-47.37 353.8,-48.31 353.04,-49.08 C352.28,-49.86 351.36,-50.24 350.29,-50.24 C349.19,-50.24 348.27,-49.86 347.5,-49.1 C346.74,-48.34 346.36,-47.42 346.36,-46.35 C346.36,-45.23 346.74,-44.3 347.5,-43.54z M353.02,0 C353.02,0 353.02,-31.27 353.02,-31.27 C353.02,-31.27 347.62,-31.27 347.62,-31.27 C347.62,-31.27 347.62,0 347.62,0 C347.62,0 353.02,0 353.02,0z M369.32,0 C369.32,0 369.32,-15.24 369.32,-15.24 C369.32,-19.35 370.02,-22.42 371.44,-24.46 C372.85,-26.49 374.97,-27.51 377.8,-27.51 C378.3,-27.51 378.82,-27.46 379.37,-27.36 C379.91,-27.26 380.5,-27.1 381.11,-26.9 C381.11,-26.9 382.89,-31.72 382.89,-31.72 C382.3,-31.92 381.7,-32.08 381.11,-32.18 C380.52,-32.28 379.9,-32.33 379.27,-32.33 C376.94,-32.33 374.97,-31.75 373.35,-30.59 C371.73,-29.43 370.21,-27.49 368.77,-24.78 C368.77,-24.78 368.77,-31.27 368.77,-31.27 C368.77,-31.27 364.02,-31.27 364.02,-31.27 C364.02,-31.27 364.02,0 364.02,0 C364.02,0 369.32,0 369.32,0z M437.02,0 C437.02,0 437.02,-21.29 437.02,-21.29 C437.02,-24.78 436.04,-27.5 434.08,-29.46 C432.12,-31.42 429.4,-32.4 425.91,-32.4 C423.5,-32.4 421.37,-31.88 419.54,-30.83 C417.7,-29.78 416.12,-28.19 414.77,-26.04 C413.86,-28.12 412.52,-29.7 410.74,-30.78 C408.96,-31.86 406.81,-32.4 404.28,-32.4 C401.93,-32.4 399.86,-31.91 398.06,-30.93 C396.26,-29.95 394.71,-28.46 393.41,-26.46 C393.41,-26.46 393.41,-31.27 393.41,-31.27 C393.41,-31.27 388.18,-31.27 388.18,-31.27 C388.18,-31.27 388.18,0 388.18,0 C388.18,0 393.34,0 393.34,0 C393.34,0 393.34,-16.17 393.34,-16.17 C393.34,-18.79 393.47,-20.62 393.73,-21.67 C394,-22.72 394.42,-23.64 395.02,-24.44 C395.86,-25.51 396.9,-26.34 398.14,-26.92 C399.38,-27.5 400.72,-27.79 402.16,-27.79 C404.8,-27.79 406.76,-27.02 408.04,-25.48 C409.31,-23.94 409.95,-21.59 409.95,-18.42 C409.95,-18.42 409.95,0 409.95,0 C409.95,0 415.11,0 415.11,0 C415.11,0 415.11,-16.17 415.11,-16.17 C415.11,-18.67 415.25,-20.47 415.52,-21.57 C415.8,-22.66 416.24,-23.62 416.86,-24.44 C417.7,-25.51 418.73,-26.34 419.95,-26.92 C421.17,-27.5 422.5,-27.79 423.93,-27.79 C426.58,-27.79 428.53,-27.02 429.81,-25.48 C431.09,-23.94 431.72,-21.59 431.72,-18.42 C431.72,-18.42 431.72,0 431.72,0 C431.72,0 437.02,0 437.02,0z M473.93,-23.94 C476.13,-26.23 478.81,-27.38 481.98,-27.38 C485.1,-27.38 487.76,-26.23 489.95,-23.94 C492.13,-21.65 493.23,-18.86 493.23,-15.55 C493.23,-12.25 492.13,-9.45 489.95,-7.16 C487.76,-4.87 485.1,-3.73 481.98,-3.73 C478.84,-3.73 476.16,-4.87 473.95,-7.16 C471.74,-9.45 470.63,-12.25 470.63,-15.55 C470.63,-18.86 471.73,-21.65 473.93,-23.94z M466.23,-9.09 C467.07,-7.09 468.3,-5.26 469.92,-3.62 C471.53,-2.03 473.37,-0.8 475.44,0.05 C477.5,0.91 479.68,1.33 481.98,1.33 C484.22,1.33 486.36,0.9 488.42,0.03 C490.49,-0.83 492.35,-2.08 494.01,-3.73 C495.63,-5.3 496.86,-7.09 497.7,-9.11 C498.55,-11.13 498.97,-13.27 498.97,-15.55 C498.97,-17.83 498.55,-19.99 497.7,-22.03 C496.86,-24.07 495.63,-25.87 494.01,-27.45 C492.35,-29.06 490.5,-30.29 488.46,-31.14 C486.42,-31.98 484.26,-32.4 481.98,-32.4 C479.66,-32.4 477.47,-31.99 475.42,-31.15 C473.37,-30.32 471.53,-29.11 469.92,-27.51 C468.3,-25.92 467.07,-24.1 466.23,-22.06 C465.38,-20.02 464.96,-17.85 464.96,-15.55 C464.96,-13.25 465.38,-11.1 466.23,-9.09z M513.79,0 C513.79,0 513.79,-26.87 513.79,-26.87 C513.79,-26.87 521.99,-26.87 521.99,-26.87 C521.99,-26.87 521.99,-31.27 521.99,-31.27 C521.99 1005.218994140625,-2.140000104904175 1006.6669921875,4.419000148773193 C1008.114990234375,10.977999687194824 1010.3040161132812,17.430999755859375 1013.2340087890625,23.77899932861328 C1013.2340087890625,23.77899932861328 1020.7839965820312,20.702999114990234 1020.7839965820312,20.702999114990234z"></path></g>
        <g opacity="0.9999999033861631" transform="matrix(0.9999999403953552,0,0,1,0.0001220703125,0)"><path fill="rgb(199,31,63)" fill-opacity="1" d=" M1174.5780029296875,0 C1174.5780029296875,0 1182.6839599609375,-61.18199920654297 1182.6839599609375,-61.18199920654297 C1182.6839599609375,-61.18199920654297 1200.89599609375,-61.18199920654297 1200.89599609375,-61.18199920654297 C1200.89599609375,-61.18199920654297 1202.31298828125,-71.48400115966797 1202.31298828125,-71.48400115966797 C1202.31298828125,-71.48400115966797 1153.4840087890625,-71.48400115966797 1153.4840087890625,-71.48400115966797 C1153.4840087890625,-71.48400115966797 1152.116943359375,-61.18199920654297 1152.116943359375,-61.18199920654297 C1152.116943359375,-61.18199920654297 1171.404052734375,-61.18199920654297 1171.404052734375,-61.18199920654297 C1171.404052734375,-61.18199920654297 1163.2989501953125,0 1163.2989501953125,0 C1163.2989501953125,0 1174.5780029296875,0 1174.5780029296875,0z"></path></g>
        <g opacity="0.9999999115251146" transform="matrix(0.9999999403953552,0,0,1,0.0001220703125,0)"><path fill="rgb(199,31,63)" fill-opacity="1" d=" M1110.91796875,2.7829999923706055 C1110.91796875,2.7829999923706055 1153.2030029296875,-71.48400115966797 1153.2030029296875,-71.48400115966797 C1153.2030029296875,-71.48400115966797 1141.1910400390625,-71.48400115966797 1141.1910400390625,-71.48400115966797 C1141.1910400390625,-71.48400115966797 1118.291015625,-29.003999710083008 1118.291015625,-29.003999710083008 C1117.6400146484375,-27.798999786376953 1116.9639892578125,-26.44099998474121 1116.2640380859375,-24.927000045776367 C1115.56396484375,-23.413000106811523 1114.8389892578125,-21.7450008392334 1114.0909423828125,-19.922000885009766 C1113.927978515625,-20.96299934387207 1113.7010498046875,-22.15999984741211 1113.407958984375,-23.51099967956543 C1113.114990234375,-24.861000061035156 1112.675048828125,-26.628000259399414 1112.0889892578125,-28.80900001525879 C1112.0889892578125,-28.80900001525879 1100.7130126953125,-71.48400115966797 1100.7130126953125,-71.48400115966797 C1100.7130126953125,-71.48400115966797 1089.531005859375,-71.48400115966797 1089.531005859375,-71.48400115966797 C1089.531005859375,-71.48400115966797 1110.91796875,2.7829999923706055 1110.91796875,2.7829999923706055z"></path></g>
            <g opacity="0.9999998882645766" transform="matrix(0.9999999403953552,0,0,1,0.00006103515625,0)"><path fill="rgb(199,31,63)" fill-opacity="1" d=" M1050.3330078125,-30.51799964904785 C1050.3330078125,-30.51799964904785 1053.01904296875,-30.51799964904785 1053.01904296875,-30.51799964904785 C1053.01904296875,-30.51799964904785 1056.240966796875,-30.51799964904785 1056.240966796875,-30.51799964904785 C1062.2960205078125,-30.51799964904785 1066.77099609375,-30.875999450683594 1069.6689453125,-31.591999053955078 C1072.5660400390625,-32.30799865722656 1075.0889892578125,-33.512001037597656 1077.237060546875,-35.20500183105469 C1079.7430419921875,-37.15800094604492 1081.656982421875,-39.590999603271484 1082.9749755859375,-42.505001068115234 C1084.29296875,-45.417999267578125 1084.9520263671875,-48.7140007019043 1084.9520263671875,-52.393001556396484 C1084.9520263671875,-55.518001556396484 1084.3819580078125,-58.340999603271484 1083.2430419921875,-60.86399841308594 C1082.10302734375,-63.38600158691406 1080.4599609375,-65.49500274658203 1078.31201171875,-67.18800354003906 C1076.3590087890625,-68.7509994506836 1074.1280517578125,-69.85600280761719 1071.6219482421875,-70.50800323486328 C1069.114990234375,-71.15899658203125 1065.0140380859375,-71.48400115966797 1059.3179931640625,-71.48400115966797 C1059.3179931640625,-71.48400115966797 1044.52294921875,-71.48400115966797 1044.52294921875,-71.48400115966797 C1044.52294921875,-71.48400115966797 1035.14794921875,0 1035.14794921875,0 C1035.14794921875,0 1046.3289794921875,0 1046.3289794921875,0 C1046.3289794921875,0 1050.3330078125,-30.51799964904785 1050.3330078125,-30.51799964904785z M1054.3370361328125,-61.27899932861328 C1054.3370361328125,-61.27899932861328 1057.949951171875,-61.27899932861328 1057.949951171875,-61.27899932861328 C1064.10205078125,-61.27899932861328 1068.2530517578125,-60.57899856567383 1070.4010009765625,-59.18000030517578 C1072.5489501953125,-57.779998779296875 1073.6240234375,-55.354000091552734 1073.6240234375,-51.90399932861328 C1073.6240234375,-47.801998138427734 1072.345947265625,-44.91299819946289 1069.791015625,-43.23699951171875 C1067.2349853515625,-41.560001373291016 1062.4420166015625,-40.722999572753906 1055.4110107421875,-40.722999572753906 C1055.4110107421875,-40.722999572753906 1051.6510009765625,-40.722999572753906 1051.6510009765625,-40.722999572753906 C1051.6510009765625,-40.722999572753906 1054.3370361328125,-61.27899932861328 1054.3370361328125,-61.27899932861328z"></path></g>
            <g opacity="0.9999998882645766" transform="matrix(0.9999999403953552,0,0,1,0.00006103515625,0)"><path fill="rgb(199,31,63)" fill-opacity="1" d=" M1006.6669921875,4.419000148773193 C1008.114990234375,10.977999687194824 1010.3040161132812,17.430999755859375 1013.2340087890625,23.77899932861328 C1013.2340087890625,23.77899932861328 1020.7839965820312,20.702999114990234 1020.7839965820312,20.702999114990234z"></path></g>
            <g opacity="0.9999999033861631" transform="matrix(0.9999999403953552,0,0,1,0.0001220703125,0)"><path fill="rgb(199,31,63)" fill-opacity="1" d=" M1174.5780029296875,0 C1174.5780029296875,0 1182.6839599609375,-61.18199920654297 1182.6839599609375,-61.18199920654297 C1182.6839599609375,-61.18199920654297 1200.89599609375,-61.18199920654297 1200.89599609375,-61.18199920654297 C1200.89599609375,-61.18199920654297 1202.31298828125,-71.48400115966797 1202.31298828125,-71.48400115966797 C1202.31298828125,-71.48400115966797 1153.4840087890625,-71.48400115966797 1153.4840087890625,-71.48400115966797 C1153.4840087890625,-71.48400115966797 1152.116943359375,-61.18199920654297 1152.116943359375,-61.18199920654297 C1152.116943359375,-61.18199920654297 1171.404052734375,-61.18199920654297 1171.404052734375,-61.18199920654297 C1171.404052734375,-61.18199920654297 1163.2989501953125,0 1163.2989501953125,0 C1163.2989501953125,0 1174.5780029296875,0 1174.5780029296875,0z"></path></g>
            <g opacity="0.9999999115251146" transform="matrix(0.9999999403953552,0,0,1,0.0001220703125,0)"><path fill="rgb(199,31,63)" fill-opacity="1" d=" M1110.91796875,2.7829999923706055 C1110.91796875,2.7829999923706055 1153.2030029296875,-71.48400115966797 1153.2030029296875,-71.48400115966797 C1153.2030029296875,-71.48400115966797 1141.1910400390625,-71.48400115966797 1141.1910400390625,-71.48400115966797 C1141.1910400390625,-71.48400115966797 1118.291015625,-29.003999710083008 1118.291015625,-29.003999710083008 C1117.6400146484375,-27.798999786376953 1116.9639892578125,-26.44099998474121 1116.2640380859375,-24.927000045776367 C1115.56396484375,-23.413000106811523 1114.8389892578125,-21.7450008392334 1114.0909423828125,-19.922000885009766 C1113.927978515625,-20.96299934387207 1113.7010498046875,-22.15999984741211 1113.407958984375,-23.51099967956543 C1113.114990234375,-24.861000061035156 1112.675048828125,-26.628000259399414 1112.0889892578125,-28.80900001525879 C1112.0889892578125,-28.80900001525879 1100.7130126953125,-71.48400115966797 1100.7130126953125,-71.48400115966797 C1100.7130126953125,-71.48400115966797 1089.531005859375,-71.48400115966797 1089.531005859375,-71.48400115966797 C1089.531005859375,-71.48400115966797 1110.91796875,2.7829999923706055 1110.91796875,2.7829999923706055z"></path></g>
            <g opacity="0.9999998882645766" transform="matrix(0.9999999403953552,0,0,1,0.00006103515625,0)"><path fill="rgb(199,31,63)" fill-opacity="1" d=" M1050.3330078125,-30.51799964904785 C1050.3330078125,-30.51799964904785 1053.01904296875,-30.51799964904785 1053.01904296875,-30.51799964904785 C1053.01904296875,-30.51799964904785 1056.240966796875,-30.51799964904785 1056.240966796875,-30.51799964904785 C1062.2960205078125,-30.51799964904785 1066.77099609375,-30.875999450683594 1069.6689453125,-31.591999053955078 C1072.5660400390625,-32.30799865722656 1075.0889892578125,-33.512001037597656 1077.237060546875,-35.20500183105469 C1079.7430419921875,-37.15800094604492 1081.656982421875,-39.590999603271484 1082.9749755859375,-42.505001068115234 C1084.29296875,-45.417999267578125 1084.9520263671875,-48.7140007019043 1084.9520263671875,-52.393001556396484 C1084.9520263671875,-55.518001556396484 1084.3819580078125,-58.340999603271484 1083.2430419921875,-60.86399841308594 C1082.10302734375,-63.38600158691406 1080.4599609375,-65.49500274658203 1078.31201171875,-67.18800354003906 C1076.3590087890625,-68.7509994506836 1074.1280517578125,-69.85600280761719 1071.6219482421875,-70.50800323486328 C1069.114990234375,-71.15899658203125 1065.0140380859375,-71.48400115966797 1059.3179931640625,-71.48400115966797 C1059.3179931640625,-71.48400115966797 1044.52294921875,-71.48400115966797 1044.52294921875,-71.48400115966797 C1044.52294921875,-71.48400115966797 1035.14794921875,0 1035.14794921875,0 C1035.14794921875,0 1046.3289794921875,0 1046.3289794921875,0 C1046.3289794921875,0 1050.3330078125,-30.51799964904785 1050.3330078125,-30.51799964904785z M1054.3370361328125,-61.27899932861328 C1054.3370361328125,-61.27899932861328 1057.949951171875,-61.27899932861328 1057.949951171875,-61.27899932861328 C1064.10205078125,-61.27899932861328 1068.2530517578125,-60.57899856567383 1070.4010009765625,-59.18000030517578 C1072.5489501953125,-57.779998779296875 1073.6240234375,-55.354000091552734 1073.6240234375,-51.90399932861328 C1073.6240234375,-47.801998138427734 1072.345947265625,-44.91299819946289 1069.791015625,-43.23699951171875 C1067.2349853515625,-41.560001373291016 1062.4420166015625,-40.722999572753906 1055.4110107421875,-40.722999572753906 C1055.4110107421875,-40.722999572753906 1051.6510009765625,-40.722999572753906 1051.6510009765625,-40.722999572753906 C1051.6510009765625,-40.722999572753906 1054.3370361328125,-61.27899932861328 1054.3370361328125,-61.27899932861328z"></path></g>
            <g opacity="0.9999998882645766" transform="matrix(0.9999999403953552,0,0,1,0.00006103515625,0)"><path fill="rgb(199,31,63)" fill-opacity="1" d=" M1006.6669921875,4.419000148773193 C1008.114990234375,10.977999687194824 1010.3040161132812,17.430999755859375 1013.2340087890625,23.77899932861328 C1013.2340087890625,23.77899932861328 1020.7839965820312,20.702999114990234 1020.7839965820312,20.702999114990234z"></path></g>
            <g opacity="0.999999856212028" transform="matrix(0.9999998211860657,0,0,1,0.00018310546875,0)"><path fill="rgb(199,31,63)" fill-opacity="1" d=" M920.6060180664062,-1.6109999418258667 C924.2020263671875,0.7329999804496765 928.541015625,1.9040000438690186 933.6190185546875,1.9040000438690186 C941.1060180664062,1.9040000438690186 947.031005859375,-0.08900000154972076 951.3930053710938,-4.077000141143799 C955.7550048828125,-8.064000129699707 957.9359741210938,-13.444000244140625 957.9359741210938,-20.21500015258789 C957.9359741210938,-24.57699966430664 956.9349975585938,-28.26300048828125 954.9329833984375,-31.27400016784668 C952.9310302734375,-34.28499984741211 949.52001953125,-37.189998626708984 944.7030029296875,-39.9900016784668 C943.8889770507812,-40.47800064086914 942.7020263671875,-41.12900161743164 941.1389770507812,-41.94300079345703 C934.8560180664062,-45.327999114990234 931.7150268554688,-48.974998474121094 931.7150268554688,-52.88100051879883 C931.7150268554688,-56.13600158691406 932.8049926757812,-58.78900146484375 934.9860229492188,-60.84000015258789 C937.166015625,-62.89099884033203 940.0150146484375,-63.91600036621094 943.531005859375,-63.91600036621094 C945.9400024414062,-63.91600036621094 948.1209716796875,-63.28200149536133 950.073974609375,-62.012001037597656 C952.0269775390625,-60.742000579833984 953.801025390625,-58.80500030517578 955.39599609375,-56.20100021362305 C955.39599609375,-56.20100021362305 962.2319946289062,-62.5 962.2319946289062,-62.5 C960.083984375,-66.0479965209961 957.3579711914062,-68.71700286865234 954.0540161132812,-70.50800323486328 C950.75,-72.2979965209961 946.9010009765625,-73.19300079345703 942.5059814453125,-73.19300079345703 C935.9949951171875,-73.19300079345703 930.7219848632812,-71.21600341796875 926.6859741210938,-67.26100158691406 C922.6489868164062,-63.305999755859375 920.6309814453125,-58.18600082397461 920.6309814453125,-51.90399932861328 C920.6309814453125,-49.65800094604492 920.9639892578125,-47.57400131225586 921.6320190429688,-45.65399932861328 C922.2990112304688,-43.733001708984375 923.2999877929688,-42.04100036621094 924.635009765625,-40.57600021362305 C926.489990234375,-38.525001525878906 930.0869750976562,-36.01900100708008 935.426025390625,-33.05699920654297 C936.6959838867188,-32.340999603271484 937.655029296875,-31.78700065612793 938.3070068359375,-31.395999908447266 C941.4320068359375,-29.572999954223633 943.6129760742188,-27.791000366210938 944.8499755859375,-26.049999237060547 C946.0869750976562,-24.308000564575195 946.7050170898438,-22.18400001525879 946.7050170898438,-19.67799949645996 C946.7050170898438,-16.1299991607666 945.5330200195312,-13.248000144958496 943.1890258789062,-11.03499984741211 C940.844970703125,-8.821000099182129 937.7860107421875,-7.715000152587891 934.010009765625,-7.715000152587891 C930.9829711914062,-7.715000152587891 928.3460083007812,-8.585000038146973 926.0999755859375,-10.32699966430664 C923.85400390625,-12.067999839782715 921.7540283203125,-14.892999649047852 919.801025390625,-18.798999786376953 C919.801025390625,-18.798999786376953 911.93902587890625,-12.305000305175781 911.93902587890625,-12.305000305175781 C914.1190185546875,-7.519999980926514 917.0089721679688,-3.9549999237060547 920.6060180664062,-1.6109999418258667z"></path></g>
            <g opacity="0.9999998527355165" transform="matrix(0.9999998211860657,0,0,1,0.00018310546875,0)"><path fill="rgb(199,31,63)" fill-opacity="1" d=" M900.3690185546875,0 C900.3690185546875,0 901.7869873046875,-10.303000450134277 901.7869873046875,-10.303000450134277 C901.7869873046875,-10.303000450134277 872.7540283203125,-10.303000450134277 872.7540283203125,-10.303000450134277 C872.7540283203125,-10.303000450134277 875.7360229492188,-33.39799880981445 875.7360229492188,-33.39799880981445 C875.7360229492188,-33.39799880981445 904.7680053710938,-33.39799880981445 904.7680053710938,-33.39799880981445 C904.7680053710938,-33.39799880981445 906.0880126953125,-43.40800094604492 906.0880126953125,-43.40800094604492 C906.0880126953125,-43.40800094604492 877.1530151367188,-43.40800094604492 877.1530151367188,-43.40800094604492 C877.1530151367188,-43.40800094604492 879.4500122070312,-61.37699890136719 879.4500122070312,-61.37699890136719 C879.4500122070312,-61.37699890136719 908.4819946289062,-61.37699890136719 908.4819946289062,-61.37699890136719 C908.4819946289062,-61.37699890136719 909.7529907226562,-71.48400115966797 909.7529907226562,-71.48400115966797 C909.7529907226562,-71.48400115966797 869.6259765625,-71.48400115966797 869.6259765625,-71.48400115966797 C869.6259765625,-71.48400115966797 860.2420043945312,0 860.2420043945312,0 C860.2420043945312,0 900.3690185546875,0 900.3690185546875,0z"></path></g>
            <g opacity="0.9999998859887872" transform="matrix(0.9999999403953552,0,0,1,0.00006103515625,0)"><path fill="rgb(199,31,63)" fill-opacity="1" d=" M830.3209838867188,0 C830.3209838867188,0 838.427001953125,-61.18199920654297 838.427001953125,-61.18199920654297 C838.427001953125,-61.18199920654297 856.6400146484375,-61.18199920654297 856.6400146484375,-61.18199920654297 C856.6400146484375,-61.18199920654297 858.0560302734375,-71.48400115966797 858.0560302734375,-71.48400115966797 C858.0560302734375,-71.48400115966797 809.22802734375,-71.48400115966797 809.22802734375,-71.48400115966797 C809.22802734375,-71.48400115966797 807.8610229492188,-61.18199920654297 807.8610229492188,-61.18199920654297 C807.8610229492188,-61.18199920654297 827.1480102539062,-61.18199920654297 827.1480102539062,-61.18199920654297 C827.1480102539062,-61.18199920654297 819.0419921875,0 819.0419921875,0 C819.0419921875,0 830.3209838867188,0 830.3209838867188,0z"></path></g>
            <g opacity="0.9999998664807725" transform="matrix(0.9999998211860657,0,0,1,0.0001220703125,0)"><path fill="rgb(199,31,63)" fill-opacity="1" d=" M775.7919921875,-43.895999908447266 C776.4760131835938,-45.22999954223633 777.1669921875,-46.654998779296875 777.8670043945312,-48.16899871826172 C778.5670166015625,-49.68299865722656 779.2750244140625,-51.2859992980957 779.9910278320312,-52.979000091552734 C780.4140014648438,-50.70000076293945 780.77197265625,-48.86000061035156 781.0650024414062,-47.46099853515625 C781.3579711914062,-46.06100082397461 781.6339721679688,-44.9379997253418 781.89501953125,-44.09199905395508 C781.89501953125,-44.09199905395508 787.4130249023438,-26.416000366210938 787.4130249023438,-26.416000366210938 C787.4130249023438,-26.416000366210938 766.5139770507812,-26.416000366210938 766.5139770507812,-26.416000366210938 C766.5139770507812,-26.416000366210938 775.7919921875,-43.895999908447266 775.7919921875,-43.895999908447266z M752.5980224609375,0 C752.5980224609375,0 762.02197265625,-16.895000457763672 762.02197265625,-16.895000457763672 C762.02197265625,-16.895000457763672 790.489013671875,-16.895000457763672 790.489013671875,-16.895000457763672 C790.489013671875,-16.895000457763672 796.2999877929688,0 796.2999877929688,0 C796.2999877929688,0 807.9210205078125,0 807.9210205078125,0 C807.9210205078125,0 781.7979736328125,-74.31600189208984 781.7979736328125,-74.31600189208984 C781.7979736328125,-74.31600189208984 740.3909912109375,0 740.3909912109375,0 C740.3909912109375,0 752.5980224609375,0 752.5980224609375,0z"></path></g>
            <g opacity="0.999999780093691" transform="matrix(0.9999997615814209,0,0,1,0.00018310546875,0)"><path fill="rgb(199,31,63)" fill-opacity="1" d=" M731.3209838867188,0 C731.3209838867188,0 740.8419799804688,-71.48400115966797 740.8419799804688,-71.48400115966797 C740.8419799804688,-71.48400115966797 729.416015625,-71.48400115966797 729.416015625,-71.48400115966797 C729.416015625,-71.48400115966797 720.041015625,0 720.041015625,0 C720.041015625,0 731.3209838867188,0 731.3209838867188,0z"></path></g>
            <g opacity="0.999999856212028" transform="matrix(0.9999998211860657,0,0,1,0.0001220703125,0)"><path fill="rgb(199,31,63)" fill-opacity="1" d=" M703.2310180664062,-71.53299713134766 C699.5360107421875,-72.5739974975586 695.3779907226562,-73.09600067138672 690.7559814453125,-73.09600067138672 C685.6119995117188,-73.09600067138672 680.7949829101562,-72.18399810791016 676.302978515625,-70.36100006103516 C671.8109741210938,-68.53800201416016 667.822998046875,-65.88500213623047 664.3400268554688,-62.402000427246094 C660.5960083007812,-58.65800094604492 657.7069702148438,-54.207000732421875 655.6729736328125,-49.04800033569336 C653.6380004882812,-43.88800048828125 652.6209716796875,-38.444000244140625 652.6209716796875,-32.71500015258789 C652.6209716796875,-22.363000869750977 655.8200073242188,-14.005999565124512 662.2160034179688,-7.642000198364258 C668.6119995117188,-1.277999997138977 677.0189819335938,1.9040000438690186 687.4359741210938,1.9040000438690186 C690.2020263671875,1.9040000438690186 693.0830078125,1.5870000123977661 696.0780029296875,0.9520000219345093 C699.072998046875,0.31700000166893005 702.197998046875,-0.6340000033378601 705.4530029296875,-1.9040000438690186 C705.4530029296875,-1.9040000438690186 707.9429931640625,-15.576000213623047 707.9429931640625,-15.576000213623047 C704.8499755859375,-13.135000228881836 701.6530151367188,-11.295999526977539 698.3489990234375,-10.059000015258789 C695.0449829101562,-8.821999549865723 691.6010131835938,-8.20300006866455 688.02099609375,-8.20300006866455 C680.8590087890625,-8.20300006866455 675.0250244140625,-10.513999938964844 670.5170288085938,-15.13700008392334 C666.0079956054688,-19.759000778198242 663.7540283203125,-25.74799919128418 663.7540283203125,-33.10499954223633 C663.7540283203125,-37.23899841308594 664.4940185546875,-41.236000061035156 665.9760131835938,-45.09299850463867 C667.4569702148438,-48.95000076293945 669.5809936523438,-52.36000061035156 672.3480224609375,-55.321998596191406 C674.6920166015625,-57.861000061035156 677.531005859375,-59.805999755859375 680.8679809570312,-61.15700149536133 C684.2039794921875,-62.50699996948242 687.8259887695312,-63.183998107910156 691.7319946289062,-63.183998107910156 C695.541015625,-63.183998107910156 699.0650024414062,-62.47600173950195 702.3040161132812,-61.060001373291016 C705.5430297851562,-59.64400100708008 708.5460205078125,-57.48699951171875 711.31298828125,-54.59000015258789 C711.31298828125,-54.59000015258789 713.1190185546875,-66.7969970703125 713.1190185546875,-66.7969970703125 C710.2210083007812,-68.91300201416016 706.9249877929688,-70.49099731445312 703.2310180664062,-71.53299713134766z"></path></g>
            <g opacity="0.9999998664807725" transform="matrix(0.9999998211860657,0,0,1,0.0001220703125,0)"><path fill="rgb(199,31,63)" fill-opacity="1" d=" M590.5560302734375,-70.36100006103516 C585.7080078125,-68.4729995727539 581.4630126953125,-65.78800201416016 577.8200073242188,-62.30500030517578 C573.9810180664062,-58.625999450683594 571.0369873046875,-54.255001068115234 568.9879760742188,-49.194000244140625 C566.9390258789062,-44.13199996948242 565.9140014648438,-38.70399856567383 565.9140014648438,-32.90999984741211 C565.9140014648438,-22.525999069213867 569.1010131835938,-14.144000053405762 575.47802734375,-7.763999938964844 C581.85400390625,-1.3839999437332153 590.2310180664062,1.8070000410079956 600.6079711914062,1.8070000410079956 C606.1710205078125,1.8070000410079956 611.4080200195312,0.8700000047683716 616.3200073242188,-1.0010000467300415 C621.2319946289062,-2.871999979019165 625.5590209960938,-5.565999984741211 629.2999877929688,-9.081999778747559 C633.1710205078125,-12.793000221252441 636.156005859375,-17.163000106811523 638.2540283203125,-22.191999435424805 C640.3519897460938,-27.22100067138672 641.4019775390625,-32.58399963378906 641.4019775390625,-38.28099822998047 C641.4019775390625,-48.893001556396484 638.1810302734375,-57.36399841308594 631.739990234375,-63.69599914550781 C625.2990112304688,-70.0270004272461 616.64501953125,-73.19300079345703 605.780029296875,-73.19300079345703 C600.47802734375,-73.19300079345703 595.4030151367188,-72.2490005493164 590.5560302734375,-70.36100006103516z M621.9030151367188,-16.77199935913086 C616.3900146484375,-11.059000015258789 609.552978515625,-8.20300006866455 601.3900146484375,-8.20300006866455 C594.1699829101562,-8.20300006866455 588.3070068359375,-10.522000312805176 583.802978515625,-15.16100025177002 C579.2990112304688,-19.799999237060547 577.0460205078125,-25.84600067138672 577.0460205078125,-33.30099868774414 C577.0460205078125,-37.40299987792969 577.7940063476562,-41.32400131225586 579.2899780273438,-45.06800079345703 C580.7860107421875,-48.81100082397461 582.9650268554688,-52.14799880981445 585.8270263671875,-55.077999114990234 C588.2990112304688,-57.68199920654297 591.218017578125,-59.683998107910156 594.583984375,-61.08399963378906 C597.9500122070312,-62.483001708984375 601.4860229492188,-63.183998107910156 605.1939697265625,-63.183998107910156 C612.7069702148438,-63.183998107910156 618.7479858398438,-60.880001068115234 623.3170166015625,-56.27399826049805 C627.885986328125,-51.66699981689453 630.1710205078125,-45.60599899291992 630.1710205078125,-38.08599853515625 C630.1710205078125,-29.59000015258789 627.4149780273438,-22.485000610351562 621.9030151367188,-16.77199935913086z"></path></g>
            <g opacity="0.9999996349762902" transform="matrix(0.9999996423721313,0,0,1,0.000152587890625,0)"><path fill="rgb(199,31,63)" fill-opacity="1" d=" M515.3150024414062,-1.6109999418258667 C518.9110107421875,0.7329999804496765 523.2490234375,1.9040000438690186 528.3270263671875,1.9040000438690186 C535.8140258789062,1.9040000438690186 541.739013671875,-0.08900000154972076 546.1010131835938,-4.077000141143799 C550.4630126953125,-8.064000129699707 552.6439819335938,-13.444000244140625 552.6439819335938,-20.21500015258789 C552.6439819335938,-24.57699966430664 551.6430053710938,-28.26300048828125 549.6409912109375,-31.27400016784668 C547.6389770507812,-34.28499984741211 544.22802734375,-37.189998626708984 539.4110107421875,-39.9900016784668 C538.5969848632812,-40.47800064086914 537.4099731445312,-41.12900161743164 535.8469848632812,-41.94300079345703 C529.5640258789062,-45.327999114990234 526.4229736328125,-48.974998474121094 526.4229736328125,-52.88100051879883 C526.4229736328125,-56.13600158691406 527.5139770507812,-58.78900146484375 529.6950073242188,-60.84000015258789 C531.875,-62.89099884033203 534.7230224609375,-63.91600036621094 538.239013671875,-63.91600036621094 C540.6480102539062,-63.91600036621094 542.8289794921875,-63.28200149536133 544.781982421875,-62.012001037597656 C546.7349853515625,-60.742000579833984 548.510009765625,-58.80500030517578 550.10498046875,-56.20100021362305 C550.10498046875,-56.20100021362305 556.9409790039062,-62.5 556.9409790039062,-62.5 C554.7930297851562,-66.0479965209961 552.0659790039062,-68.71700286865234 548.7620239257812,-70.50800323486328 C545.4580078125,-72.2979965209961 541.6090087890625,-73.19300079345703 537.2139892578125,-73.19300079345703 C530.7030029296875,-73.19300079345703 525.4299926757812,-71.21600341796875 521.3939819335938,-67.26100158691406 C517.3569946289062,-63.305999755859375 515.3389892578125,-58.18600082397461 515.3389892578125,-51.90399932861328 C515.3389892578125,-49.65800094604492 515.6719970703125,-47.57400131225586 516.3400268554688,-45.65399932861328 C517.0070190429688,-43.733001708984375 518.0079956054688,-42.04100036621094 519.343017578125,-40.57600021362305 C521.197998046875,-38.525001525878906 524.7949829101562,-36.01900100708008 530.1339721679688,-33.05699920654297 C531.4039916992188,-32.340999603271484 532.3629760742188,-31.78700065612793 533.0150146484375,-31.395999908447266 C536.1400146484375,-29.572999954223633 538.3209838867188,-27.791000366210938 539.5579833984375,-26.049999237060547 C540.7949829101562,-24.308000564575195 541.4130249023438,-22.18400001525879 541.4130249023438,-19.67799949645996 C541.4130249023438,-16.1299991607666 540.2420043945312,-13.248000144958496 537.8980102539062,-11.03499984741211 C535.5540161132812,-8.821000099182129 532.4940185546875,-7.715000152587891 528.718017578125,-7.715000152587891 C525.6909790039062,-7.715000152587891 523.0540161132812,-8.585000038146973 520.8079833984375,-10.32699966430664 C518.56201171875,-12.067999839782715 516.4619750976562,-14.892999649047852 514.5089721679688,-18.798999786376953 C514.5089721679688,-18.798999786376953 506.64801025390625,-12.305000305175781 506.64801025390625,-12.305000305175781 C508.8280029296875,-7.519999980926514 511.7179870605469,-3.9549999237060547 515.3150024414062,-1.6109999418258667z"></path></g>
            <g opacity="0.9999997267695956" transform="matrix(0.9999997019767761,0,0,1,0.000152587890625,0)"><path fill="rgb(199,31,63)" fill-opacity="1" d=" M461.7130126953125,-1.6109999418258667 C465.3089904785156,0.7329999804496765 469.6470031738281,1.9040000438690186 474.7250061035156,1.9040000438690186 C482.2120056152344,1.9040000438690186 488.1369934082031,-0.08900000154972076 492.4989929199219,-4.077000141143799 C496.8609924316406,-8.064000129699707 499.0419921875,-13.444000244140625 499.0419921875,-20.21500015258789 C499.0419921875,-24.57699966430664 498.0409851074219,-28.26300048828125 496.03900146484375,-31.27400016784668 C494.0369873046875,-34.28499984741211 490.6260070800781,-37.189998626708984 485.8089904785156,-39.9900016784668 C484.9949951171875,-40.47800064086914 483.8080139160156,-41.12900161743164 482.2449951171875,-41.94300079345703 C475.9620056152344,-45.327999114990234 472.8210144042969,-48.974998474121094 472.8210144042969,-52.88100051879883 C472.8210144042969,-56.13600158691406 473.9119873046875,-58.78900146484375 476.0929870605469,-60.84000015258789 C478.27301025390625,-62.89099884033203 481.1210021972656,-63.91600036621094 484.6369934082031,-63.91600036621094 C487.0459899902344,-63.91600036621094 489.22698974609375,-63.28200149536133 491.17999267578125,-62.012001037597656 C493.13299560546875,-60.742000579833984 494.9079895019531,-58.80500030517578 496.50299072265625,-56.20100021362305 C496.50299072265625,-56.20100021362305 503.3389892578125,-62.5 503.3389892578125,-62.5 C501.1910095214844,-66.0479965209961 498.4639892578125,-68.71700286865234 495.1600036621094,-70.50800323486328 C491.8559875488281,-72.2979965209961 488.0069885253906,-73.19300079345703 483.61199951171875,-73.19300079345703 C477.10101318359375,-73.19300079345703 471.8280029296875,-71.21600341796875 467.7919921875,-67.26100158691406 C463.7550048828125,-63.305999755859375 461.73699951171875,-58.18600082397461 461.73699951171875,-51.90399932861328 C461.73699951171875,-49.65800094604492 462.07000732421875,-47.57400131225586 462.7380065917969,-45.65399932861328 C463.4049987792969,-43.733001708984375 464.406005859375,-42.04100036621094 465.7409973144531,-40.57600021362305 C467.59600830078125,-38.525001525878906 471.1929931640625,-36.01900100708008 476.5320129394531,-33.05699920654297 C477.802001953125,-32.340999603271484 478.760986328125,-31.78700065612793 479.4129943847656,-31.395999908447266 C482.5379943847656,-29.572999954223633 484.718994140625,-27.791000366210938 485.95599365234375,-26.049999237060547 C487.1929931640625,-24.308000564575195 487.8110046386719,-22.18400001525879 487.8110046386719,-19.67799949645996 C487.8110046386719,-16.1299991607666 486.6400146484375,-13.248000144958496 484.2959899902344,-11.03499984741211 C481.9519958496094,-8.821000099182129 478.8919982910156,-7.715000152587891 475.1159973144531,-7.715000152587891 C472.0889892578125,-7.715000152587891 469.4519958496094,-8.585000038146973 467.20599365234375,-10.32699966430664 C464.9599914550781,-12.067999839782715 462.8599853515625,-14.892999649047852 460.9070129394531,-18.798999786376953 C460.9070129394531,-18.798999786376953 453.0459899902344,-12.305000305175781 453.0459899902344,-12.305000305175781 C455.22601318359375,-7.519999980926514 458.1159973144531,-3.9549999237060547 461.7130126953125,-1.6109999418258667z"></path></g>
            <g opacity="0.9999996152838453" transform="matrix(0.9999996423721313,0,0,1,0.000152587890625,0)"><path fill="rgb(199,31,63)" fill-opacity="1" d=" M419.90301513671875,-43.895999908447266 C420.5870056152344,-45.22999954223633 421.27801513671875,-46.654998779296875 421.9779968261719,-48.16899871826172 C422.6780090332031,-49.68299865722656 423.385986328125,-51.2859992980957 424.10198974609375,-52.979000091552734 C424.5249938964844,-50.70000076293945 424.88299560546875,-48.86000061035156 425.1759948730469,-47.46099853515625 C425.468994140625,-46.06100082397461 425.7449951171875,-44.9379997253418 426.0060119628906,-44.09199905395508 C426.0060119628906,-44.09199905395508 431.52398681640625,-26.416000366210938 431.52398681640625,-26.416000366210938 C431.52398681640625,-26.416000366210938 410.625,-26.416000366210938 410.625,-26.416000366210938 C410.625,-26.416000366210938 419.90301513671875,-43.895999908447266 419.90301513671875,-43.895999908447266z M396.7090148925781,0 C396.7090148925781,0 406.13299560546875,-16.895000457763672 406.13299560546875,-16.895000457763672 C406.13299560546875,-16.895000457763672 434.6000061035156,-16.895000457763672 434.6000061035156,-16.895000457763672 C434.6000061035156,-16.895000457763672 440.4110107421875,0 440.4110107421875,0 C440.4110107421875,0 452.0320129394531,0 452.0320129394531,0 C452.0320129394531,0 425.90899658203125,-74.31600189208984 425.90899658203125,-74.31600189208984 C425.90899658203125,-74.31600189208984 384.50201416015625,0 384.50201416015625,0 C384.50201416015625,0 396.7090148925781,0 396.7090148925781,0z"></path></g>
            <g opacity="0.999999780093691" transform="matrix(0.9999997615814209,0,0,1,0.00018310546875,0)"><path fill="rgb(199,31,63)" fill-opacity="1" d=" M384.50201416015625,-41.94300079345703 C378.2190246582031,-45.327999114990234 375.0780029296875,-48.974998474121094 375.0780029296875,-52.88100051879883 C375.0780029296875,-56.13600158691406 376.16802978515625,-58.78900146484375 378.3489990234375,-60.84000015258789 C380.52899169921875,-62.89099884033203 383.3769836425781,-63.91600036621094 386.89300537109375,-63.91600036621094 C389.3019714355469,-63.91600036621094 391.4830017089844,-63.28200149536133 393.43597412109375,-62.012001037597656 C395.38897705078125,-60.742000579833984 397.1629943847656,-58.80500030517578 398.75799560546875,-56.20100021362305 C398.75799560546875,-56.20100021362305 405.5940246582031,-62.5 405.5940246582031,-62.5 C403.4460144042969,-66.0479965209961 400.7200012207031,-68.71700286865234 397.4159851074219,-70.50800323486328 C394.11199951171875,-72.2979965209961 390.26300048828125,-73.19300079345703 385.8680114746094,-73.19300079345703 C379.3570251464844,-73.19300079345703 374.083984375,-71.21600341796875 370.0480041503906,-67.26100158691406 C366.010986328125,-63.305999755859375 364.00701904296875,-58.18600082397461 364.00701904296875,-51.90399932861328 C364.00701904296875,-49.65800094604492 364.3399963378906,-47.57400131225586 365.0080261230469,-45.65399932861328 C365.675,-43.733001708984375 366.676025390625,-42.04100036621094 367.9930114746094,-40.57600021362305 C369.8480224609375,-38.525001525878906 373.44500732421875,-36.01900100708008 378.78399658203125,-33.05699920654297 C380.05401611328125,-32.340999603271484 381.01300048828125,-31.78700065612793 381.66497802734375,-31.395999908447266 C384.78997802734375,-29.572999954223633 386.9709777832031,-27.791000366210938 388.2079772949219,-26.049999237060547 C389.44500732421875,-24.308000564575195 390.0630187988281,-22.18400001525879 390.0630187988281,-19.67799949645996 C390.0630187988281,-16.1299991607666 388.8919982910156,-13.248000144958496 386.5479736328125,-11.03499984741211 C384.2039794921875,-8.821000099182129 381.14501953125,-7.715000152587891 377.3690185546875,-7.715000152587891 C374.3409729003906,-7.715000152587891 371.7039794921875,-8.585000038146973 369.4580078125,-10.32699966430664 C367.21197509765625,-12.067999839782715 365.11199951171875,-14.892999649047852 363.15899658203125,-18.798999786376953 C363.15899658203125,-18.798999786376953 355.2980041503906,-12.305000305175781 355.2980041503906,-12.305000305175781 C357.47802734375,-7.519999980926514 360.36798095703125,-3.9549999237060547 363.96502685546875,-1.6109999418258667 C367.56097412109375,0.7329999804496765 371.9000244140625,1.9040000438690186 376.9770202636719,1.9040000438690186 C384.4639892578125,1.9040000438690186 390.38897705078125,-0.08900000154972076 394.7510070800781,-4.077000141143799 C399.1130065917969,-8.064000129699707 401.29400634765625,-13.444000244140625 401.29400634765625,-20.21500015258789 C401.29400634765625,-24.57699966430664 400.29302978515625,-28.26300048828125 398.2909851074219,-31.27400016784668 C396.28900146484375,-34.28499984741211 392.8780212402344,-37.189998626708984 388.06097412109375,-39.9900016784668 C387.2469787597656,-40.47800064086914 386.05999755859375,-41.12900161743164 384.49700927734375,-41.94300079345703 C378.2139892578125,-45.327999114990234 375.072998046875,-48.974998474121094 375.072998046875,-52.88100051879883 C375.072998046875,-56.13600158691406 376.1629943847656,-58.78900146484375 378.343017578125,-60.84000015258789 C380.52301025390625,-62.89099884033203 383.3710021972656,-63.91600036621094 386.8869934082031,-63.91600036621094 C389.2960205078125,-63.91600036621094 391.47698974609375,-63.28200149536133 393.42999267578125,-62.012001037597656 C395.3830261230469,-60.742000579833984 397.1570129394531,-58.80500030517578 398.75201416015625,-56.20100021362305 C398.75201416015625,-56.20100021362305 405.5879821777344,-62.5 405.5879821777344,-62.5 C403.44000244140625,-66.0479965209961 400.7120056152344,-68.71700286865234 397.40802001953125,-70.50800323486328 C394.1039733886719,-72.2979965209961 390.2549743652344,-73.19300079345703 385.8600158691406,-73.19300079345703 C379.3489990234375,-73.19300079345703 374.07598876953125,-71.21600341796875 370.03997802734375,-67.26100158691406 C366.00299072265625,-63.305999755859375 364.0010070800781,-58.18600082397461 364.0010070800781,-51.90399932861328 C364.0010070800781,-49.65800094604492 364.3340148925781,-47.57400131225586 365.00201416015625,-45.65399932861328 C365.6689758300781,-43.733001708984375 366.6700134277344,-42.04100036621094 368.0050048828125,-40.57600021362305 C369.8600158691406,-38.525001525878906 373.4570007324219,-36.01900100708008 378.7959899902344,-33.05699920654297 C380.06597900390625,-32.340999603271484 381.0250244140625,-31.78700065612793 381.6769714355469,-31.395999908447266 C384.8019714355469,-29.572999954223633 386.9830017089844,-27.791000366210938 388.2190246582031,-26.049999237060547 C389.45599365234375,-24.308000564575195 390.0740051269531,-22.18400001525879 390.0740051269531,-19.67799949645996 C390.0740051269531,-16.1299991607666 388.89300537109375,-13.248000144958496 386.5479736328125,-11.03499984741211 C384.2040100097656,-8.821000099182129 381.14501953125,-7.715000152587891 377.3680114746094,-7.715000152587891 C374.3409729003906,-7.715000152587891 371.7040100097656,-8.585000038146973 369.4580078125,-10.32699966430664 C367.21197509765625,-12.067999839782715 365.11200 C365.11200,-47.965999603271484 331.73502,-47.965999603271484 331.73502,-47.965999603271484 C331.73502,-47.965999603271484 331.73502,-70.7300033569336 331.73502,-70.7300033569336 C331.73502,-70.7300033569336 364.1459,-70.7300033569336 364.1459,-70.7300033569336 C364.1459,-70.7300033569336 364.1459,-79.3479995727539 364.1459,-79.3479995727539 C364.1459,-79.3479995727539 322.28806,-79.3479995727539 322.28806,-79.3479995727539 C322.28806,-79.3479995727539 322.28806,0 322.28806,0 C322.28806,0 364.1459,0 364.1459,0z"></path></g>
        </g>
    </g>
</svg>