<svg width="87" height="95" viewBox="0 0 87 95" fill="none" xmlns="http://www.w3.org/2000/svg">
<path d="M30.557 44.9684V48.2673C30.557 48.3554 30.5129 48.4002 30.4248 48.4019C29.8643 48.4092 29.1544 48.2648 28.6722 48.6123C28.318 48.8669 28.1728 49.2372 28.2364 49.7234C28.2789 50.0497 28.4396 50.2838 28.7187 50.4258C29.0385 50.5873 29.3771 50.6436 29.7345 50.5946C29.914 50.5685 30.0038 50.4649 30.0038 50.2838L30.0062 50.0342C30.0064 50.0013 29.9996 49.9687 29.9864 49.9386C29.9731 49.9084 29.9537 49.8813 29.9293 49.859C29.9049 49.8367 29.8761 49.8196 29.8446 49.8089C29.8132 49.7982 29.7799 49.7941 29.7468 49.7968C29.5412 49.8115 29.3739 49.7577 29.245 49.6353C29.0638 49.4624 29.0965 49.3514 29.3429 49.3025C29.6725 49.2388 30.0356 49.2209 30.4322 49.2486C30.5154 49.2535 30.557 49.2984 30.557 49.3832V52.7286C30.557 52.8314 30.5056 52.8787 30.4028 52.8706C29.8496 52.8314 28.6966 52.7604 28.3931 53.3625C28.1059 53.9286 28.1589 54.4074 28.5522 54.799C28.8729 55.1147 29.267 55.1294 29.6807 55.0902C29.7451 55.0842 29.8073 55.0631 29.862 55.0285C29.9168 54.9939 29.9627 54.9469 29.996 54.8912C30.0294 54.8355 30.0492 54.7727 30.054 54.7078C30.0587 54.6429 30.0482 54.5777 30.0234 54.5176C29.8994 54.2174 29.6725 54.1252 29.3429 54.241C29.1797 54.2981 29.1283 54.2435 29.1887 54.0771C29.2099 54.0151 29.214 53.9547 29.2009 53.896C29.1797 53.8095 29.214 53.7671 29.3037 53.7687L30.4346 53.7809C30.5162 53.7809 30.557 53.8217 30.557 53.9033V56.4093C30.557 56.5391 30.6086 56.6636 30.7004 56.7554C30.7922 56.8472 30.9167 56.8988 31.0466 56.8988H57.1163C57.2461 56.8988 57.3706 56.8472 57.4625 56.7554C57.5543 56.6636 57.6059 56.5391 57.6059 56.4093V28.2047C57.6059 28.0755 57.5543 27.9516 57.4625 27.8603C57.3706 27.769 57.2461 27.7177 57.1163 27.7177L31.0246 27.7152C30.9042 27.7152 30.7888 27.7626 30.7035 27.8469C30.6182 27.9313 30.5699 28.0459 30.5692 28.1655L30.5521 30.2799C30.5505 30.3664 30.5072 30.4113 30.4224 30.4145C29.5607 30.4463 29.0246 30.2285 28.3809 30.9774C28.2634 31.1161 28.2054 31.28 28.2071 31.4693C28.2152 32.0159 28.4878 32.3976 29.0246 32.6146C29.3771 32.7582 29.6946 32.6897 29.9769 32.409C30.0198 32.3666 30.0505 32.3134 30.0658 32.255C30.081 32.1965 30.0802 32.135 30.0635 32.0768C30.0467 32.0186 30.0146 31.9658 29.9706 31.924C29.9265 31.8821 29.872 31.8527 29.8129 31.8388L29.2107 31.6993C29.1438 31.6847 29.1209 31.6439 29.1421 31.577L29.1715 31.4962C29.2091 31.3853 29.2866 31.329 29.4041 31.3274L30.4346 31.3249C30.5162 31.3233 30.557 31.3641 30.557 31.4473V34.8074C30.557 34.8938 30.5138 34.9379 30.4273 34.9395C29.8692 34.9493 29.1593 34.8049 28.6795 35.1475C28.3172 35.4053 28.1703 35.7814 28.2389 36.2757C28.283 36.5857 28.4339 36.81 28.6917 36.9487C29.0247 37.1282 29.382 37.1885 29.7639 37.1298C29.8104 37.1225 29.8539 37.1026 29.8898 37.0724C29.9256 37.0422 29.9523 37.0028 29.9671 36.9585C30.0193 36.7954 30.0258 36.6363 29.9867 36.4813C29.9589 36.3769 29.892 36.332 29.7859 36.3467C29.6766 36.363 29.5738 36.3475 29.4775 36.3002C28.9602 36.0506 28.9863 35.8899 29.5558 35.8181C29.8382 35.7822 30.1262 35.77 30.4199 35.7814C30.5113 35.7863 30.557 35.8344 30.557 35.9258V39.2663C30.557 39.3739 30.5032 39.4237 30.3955 39.4155C29.8153 39.3666 28.6722 39.2932 28.3711 39.9442C28.0708 40.5968 28.1899 41.1042 28.7285 41.4663C29.0793 41.7013 29.4734 41.7184 29.9108 41.5177C29.9543 41.4979 29.9917 41.4664 30.0188 41.4268C30.046 41.3871 30.0619 41.3407 30.065 41.2926C30.0846 40.8986 29.7174 40.6049 29.3429 40.7713C29.1829 40.8431 29.1275 40.795 29.1764 40.6269C29.1993 40.5486 29.2025 40.4719 29.1862 40.3969C29.1836 40.3853 29.1837 40.3732 29.1864 40.3617C29.1892 40.3501 29.1945 40.3393 29.2021 40.3301C29.2096 40.3209 29.2192 40.3135 29.23 40.3086C29.2408 40.3036 29.2526 40.3012 29.2645 40.3015L30.4371 40.3235C30.517 40.3251 30.557 40.3651 30.557 40.4434V43.7325C30.557 43.8206 30.5129 43.8671 30.4248 43.872C29.5558 43.9112 29.0222 43.6836 28.376 44.4447C28.2617 44.5784 28.2054 44.7367 28.2071 44.9194C28.212 45.4741 28.4853 45.86 29.0271 46.077C29.378 46.2173 29.6937 46.1488 29.9744 45.8714C30.0178 45.8283 30.0489 45.7743 30.0644 45.7151C30.0799 45.6559 30.0792 45.5937 30.0624 45.5351C30.0456 45.4765 30.0133 45.4236 29.969 45.382C29.9246 45.3404 29.8699 45.3116 29.8104 45.2988L29.2033 45.1666C29.1906 45.1638 29.1786 45.1584 29.1681 45.1507C29.1576 45.143 29.1489 45.1332 29.1424 45.1219C29.1359 45.1106 29.1319 45.098 29.1306 45.0851C29.1293 45.0721 29.1307 45.0591 29.1348 45.0467L29.1642 44.9586C29.2033 44.8444 29.2833 44.7873 29.4041 44.7873L30.3734 44.7848C30.4958 44.7832 30.557 44.8444 30.557 44.9684Z" stroke="#80D8F8" style="stroke:#80D8F8;stroke:color(display-p3 0.5020 0.8471 0.9725);stroke-opacity:1;" stroke-width="2"/>
<path d="M56.6876 28.6966C56.6876 28.6797 56.6809 28.6635 56.6689 28.6516C56.657 28.6396 56.6408 28.6329 56.6239 28.6329H31.5383C31.5214 28.6329 31.5052 28.6396 31.4932 28.6516C31.4813 28.6635 31.4746 28.6797 31.4746 28.6966V55.915C31.4746 55.9233 31.4763 55.9316 31.4795 55.9393C31.4827 55.947 31.4873 55.954 31.4932 55.96C31.4992 55.9659 31.5062 55.9705 31.5139 55.9737C31.5216 55.9769 31.5299 55.9786 31.5383 55.9786H56.6239C56.6323 55.9786 56.6405 55.9769 56.6483 55.9737C56.656 55.9705 56.663 55.9659 56.6689 55.96C56.6748 55.954 56.6795 55.947 56.6827 55.9393C56.6859 55.9316 56.6876 55.9233 56.6876 55.915V28.6966Z" stroke="#80D8F8" style="stroke:#80D8F8;stroke:color(display-p3 0.5020 0.8471 0.9725);stroke-opacity:1;" stroke-width="2"/>
<path d="M38.1799 36.1509C37.395 36.9421 36.6125 37.6747 35.8324 38.3485C35.5876 38.559 35.4873 38.8445 35.5313 39.205C35.546 39.3307 35.6537 39.3967 35.8545 39.4033C35.954 39.4064 36.0523 39.3724 36.1311 39.3078C37.027 38.5753 37.9058 37.7375 38.7674 36.7945C38.7859 36.7743 38.8082 36.758 38.8331 36.7466C38.858 36.7351 38.8849 36.7288 38.9122 36.7279C38.9396 36.7269 38.9669 36.7315 38.9924 36.7413C39.018 36.751 39.0414 36.7658 39.0612 36.7847L41.6755 39.2418C41.8795 39.4343 42.0883 39.4392 42.3021 39.2564C42.3723 39.1961 42.418 39.1121 42.4392 39.0044C42.4498 38.9548 42.4477 38.9033 42.4332 38.8546C42.4186 38.8059 42.3921 38.7614 42.356 38.7254L39.7147 36.0946C39.6397 36.0195 39.6413 35.9453 39.7196 35.8719L42.2654 33.4956C42.2944 33.4682 42.317 33.4347 42.3315 33.3977C42.449 33.0959 42.4327 32.9058 42.2825 32.8275C42.0035 32.6823 41.7489 32.7117 41.5188 32.9156C40.7175 33.6269 39.9399 34.3872 39.186 35.1964C39.0489 35.3449 38.9061 35.3498 38.7576 35.2111L36.1041 32.7272C36.016 32.6423 35.9222 32.6366 35.8226 32.71C35.71 32.7916 35.6072 32.8846 35.5142 32.989C35.3983 33.1179 35.4016 33.2427 35.524 33.3634L38.1799 35.982C38.2354 36.0391 38.2354 36.0954 38.1799 36.1509Z" stroke="#80D8F8" style="stroke:#80D8F8;stroke:color(display-p3 0.5020 0.8471 0.9725);stroke-opacity:1;" stroke-width="2"/>
<path d="M48.741 34.5015C48.7214 35.9764 48.7247 37.7392 48.7508 39.79C48.763 40.857 48.4399 41.6059 47.2723 41.6426C45.3401 41.7029 43.2994 41.707 41.1502 41.6548C39.3143 41.6108 38.318 42.827 38.4673 44.5524C38.4729 44.6199 38.4543 44.6872 38.4148 44.7423C38.3754 44.7975 38.3177 44.8368 38.2519 44.8534C36.4111 45.3037 35.1187 46.6448 35.2606 48.6442C35.3488 49.8841 35.9771 50.8255 37.1455 51.4683C40.6459 53.3919 44.4695 49.2486 41.723 45.9889C41.2824 45.4652 40.566 45.085 39.5738 44.8485C39.4954 44.8305 39.4522 44.7816 39.444 44.7016C39.3314 43.6297 39.5566 42.5701 40.7953 42.5456C42.5283 42.5113 44.6172 42.5081 47.0618 42.5358C48.0385 42.5481 48.8193 42.2103 49.3628 41.366C49.5766 41.0348 49.6777 40.4589 49.6663 39.6383C49.6418 37.8452 49.6426 36.0857 49.6688 34.3595C49.6685 34.349 49.6714 34.3387 49.6771 34.3299C49.6829 34.3211 49.6912 34.3142 49.7011 34.3101C49.711 34.3059 49.722 34.3047 49.7327 34.3065C49.7435 34.3083 49.7536 34.3132 49.7618 34.3204L52.2488 36.6257C52.2976 36.6717 52.3586 36.7028 52.4245 36.7154C52.4904 36.728 52.5585 36.7215 52.6209 36.6967C52.7074 36.664 52.7783 36.6175 52.8338 36.5572C53.0264 36.3451 53.0199 36.1387 52.8142 35.938L49.6002 32.8129C49.5038 32.7201 49.3753 32.6684 49.2421 32.6688C49.109 32.6693 48.9818 32.7219 48.8879 32.8153C47.8451 33.8497 46.8325 34.8033 45.8501 35.6762C45.6102 35.8883 45.5237 36.1526 45.5906 36.4691C45.62 36.6094 45.753 36.691 45.9896 36.7138C46.0358 36.7177 46.0821 36.7118 46.1255 36.6966C46.169 36.6814 46.2086 36.6573 46.2417 36.6257L48.5403 34.4158C48.6757 34.2853 48.7426 34.3138 48.741 34.5015Z" stroke="#80D8F8" style="stroke:#80D8F8;stroke:color(display-p3 0.5020 0.8471 0.9725);stroke-opacity:1;" stroke-width="2"/>
<path d="M48.9973 47.8097L46.733 45.5337C46.5306 45.3314 46.2875 45.2539 46.0035 45.3013C45.9252 45.3159 45.8632 45.3518 45.8175 45.4089C45.6641 45.6047 45.6763 45.7883 45.8542 45.9596L48.4612 48.4827C48.5265 48.5463 48.5273 48.6099 48.4636 48.6736L45.8615 51.2236C45.7981 51.2869 45.7584 51.3698 45.7489 51.4586C45.7049 51.8942 45.9595 52.0059 46.5127 51.7938C46.5418 51.7825 46.5676 51.7659 46.5886 51.7449L49.0536 49.3441C49.1352 49.2658 49.2167 49.2658 49.2983 49.3441L51.9127 51.8526C52.1166 52.0483 52.3051 52.0353 52.4781 51.8134L52.5295 51.7473C52.7253 51.4961 52.7058 51.2628 52.4708 51.0474L50.0107 48.791C49.9888 48.7715 49.9713 48.7477 49.9592 48.7209C49.9472 48.6941 49.9408 48.6649 49.9406 48.6353C49.9403 48.6057 49.9462 48.5762 49.9579 48.5486C49.9695 48.5211 49.9867 48.4962 50.0082 48.4753L52.5148 46.0868C52.5903 46.0145 52.6358 45.9166 52.6421 45.8127C52.6552 45.6039 52.6021 45.4424 52.483 45.3282C52.3215 45.1732 52.1591 45.1715 51.9959 45.3233L49.3032 47.817C49.2004 47.9133 49.0984 47.9108 48.9973 47.8097Z" stroke="#80D8F8" style="stroke:#80D8F8;stroke:color(display-p3 0.5020 0.8471 0.9725);stroke-opacity:1;" stroke-width="2"/>
<path d="M41.7255 48.5621C41.7494 48.2117 41.7011 47.8597 41.5834 47.5264C41.4657 47.1931 41.2809 46.885 41.0394 46.6196C40.798 46.3542 40.5048 46.1367 40.1765 45.9796C39.8481 45.8225 39.4911 45.7288 39.1258 45.7039C38.3881 45.6536 37.6614 45.8865 37.1056 46.3515C36.5498 46.8164 36.2105 47.4752 36.1622 48.1829C36.1383 48.5334 36.1866 48.8853 36.3043 49.2186C36.422 49.5519 36.6068 49.8601 36.8482 50.1255C37.0896 50.3909 37.3829 50.6084 37.7112 50.7655C38.0396 50.9226 38.3966 51.0163 38.7619 51.0412C39.4996 51.0915 40.2263 50.8585 40.7821 50.3936C41.3379 49.9287 41.6772 49.2699 41.7255 48.5621Z" stroke="#80D8F8" style="stroke:#80D8F8;stroke:color(display-p3 0.5020 0.8471 0.9725);stroke-opacity:1;" stroke-width="2"/>
<path d="M54.5634 0H54.8498C55.909 0.370352 56.9746 0.717862 58.0467 1.04253C58.2116 1.09311 58.4808 1.20568 58.8545 1.38025C59.0324 1.46346 59.2168 1.53198 59.4078 1.58582C59.9585 1.73755 60.4236 2.06304 60.945 2.25392C62.0515 2.66017 63.0991 3.24262 64.137 3.75654C64.2219 3.79896 64.2961 3.86014 64.3598 3.94008C64.4153 4.00861 64.4871 4.04124 64.5752 4.03797C64.6715 4.03471 64.7523 4.0706 64.8175 4.14565C64.8779 4.21744 64.9489 4.27536 65.0305 4.31941C66.4535 5.11069 67.8113 5.99415 69.1037 6.96979C69.5068 7.27488 69.9156 7.58079 70.3301 7.88751C71.1208 8.47485 71.7548 9.14785 72.5209 9.75477C74.2638 11.135 75.7252 12.9509 77.1499 14.637C77.6101 15.1803 78.0392 15.7399 78.4374 16.3159C78.8356 16.8918 79.2371 17.4612 79.6418 18.024C80.1632 18.7533 80.5377 19.5658 81.0248 20.3073C81.2141 20.5929 81.3871 20.8914 81.5438 21.203C82.0774 22.2651 82.6208 23.3501 83.174 24.4579C83.2915 24.6928 83.3837 24.9286 83.4506 25.1651C83.5437 25.5029 83.7272 25.7892 83.8545 26.1171C87.164 34.7266 87.7009 43.5196 85.4652 52.4961C85.3281 53.0476 85.1788 53.5778 85.0173 54.0868C84.7651 54.8846 84.5595 55.7338 84.2364 56.5023C84.1222 56.7715 84.0169 57.0439 83.9206 57.3197C83.6301 58.1534 83.2719 58.9732 82.846 59.7792C82.8068 59.8526 82.7897 59.9309 82.7946 60.0141C82.7995 60.1071 82.7579 60.174 82.6698 60.2148C82.6094 60.2425 82.5784 60.2898 82.5768 60.3567C82.5719 60.4889 82.536 60.6218 82.469 60.7556C81.4328 62.8097 80.1868 64.8907 78.7312 66.9986C78.4986 67.3338 78.2147 67.5835 78.0311 67.9334C77.8181 68.3446 77.4558 68.5526 77.2184 68.9588C76.8904 69.5192 76.3592 69.9426 75.9357 70.4786C75.2813 71.3074 74.5608 72.0546 73.7742 72.7203C73.6714 72.8083 73.4846 72.7871 73.2137 72.6566C73.0521 72.5799 72.9967 72.3736 73.0472 72.0375C73.0616 71.9328 73.1106 71.8356 73.1868 71.7609C75.3393 69.6253 77.2176 67.3387 78.8217 64.9013C79.5169 63.8457 80.1379 62.7762 80.6846 61.6929C80.8135 61.4368 80.9514 61.1855 81.0982 60.9392C81.1978 60.7727 81.2818 60.5965 81.3504 60.4105C81.556 59.8428 81.8767 59.2922 82.1459 58.7513C82.4886 58.0685 82.7065 57.327 83.0027 56.6173C83.1332 56.3024 83.2524 55.9843 83.3601 55.6629C86.4721 46.3878 86.4786 37.1779 83.3796 28.0333C83.1177 27.2551 82.7505 26.5013 82.4813 25.7109C82.3785 25.4091 82.2593 25.1089 82.1239 24.8103C80.7694 21.8361 79.113 19.0388 77.1547 16.4186C76.8871 16.0597 76.6072 15.7187 76.3151 15.3957C75.9112 14.9503 75.6101 14.4633 75.2014 14.0228C74.5437 13.3098 73.864 12.6091 73.1623 11.9206C72.9909 11.7517 72.9297 11.5266 72.7217 11.3675C71.7376 10.6138 70.8637 9.70582 69.8577 8.91291C68.278 7.66481 66.4813 6.44118 64.4675 5.24203C64.0024 4.96549 63.5397 4.75257 63.082 4.48827C62.2122 3.98413 61.2755 3.52813 60.2719 3.12025C58.5208 2.40892 56.8832 1.82484 55.359 1.36802C55.0473 1.27502 54.7332 1.14532 54.4166 0.978903C54.3399 0.938115 54.286 0.87775 54.255 0.797806C54.1196 0.456821 54.2224 0.190886 54.5634 0Z" fill="#CECECE" style="fill:#CECECE;fill:color(display-p3 0.8078 0.8078 0.8078);fill-opacity:1;"/>
<path d="M12.4655 59.275C13.8722 61.7467 15.5229 63.9761 17.4176 65.9633C17.6991 66.2594 17.8386 66.5825 18.0099 66.9422C18.0491 67.0271 18.0352 67.1021 17.9683 67.1674C17.7741 67.3583 17.553 67.4472 17.305 67.4341C17.2168 67.4309 17.1442 67.395 17.0871 67.3264C16.5143 66.6396 15.9464 65.9829 15.3834 65.3564C14.8677 64.7821 14.383 64.1752 13.9294 63.5356C13.3223 62.6815 12.7054 61.8446 12.1718 60.9269C11.816 60.3134 11.4717 59.7261 11.1388 59.1648C10.77 58.5432 10.4714 57.9355 10.2429 57.3416C9.91487 56.4973 9.42285 55.7485 9.14869 54.8552C8.83292 53.8298 8.40944 52.8118 8.13773 51.7643C8.02023 51.3075 7.906 50.8613 7.79503 50.4257C7.62368 49.7502 7.4768 49.0699 7.35441 48.3847C6.70165 44.7334 6.57762 41.1832 6.98234 37.7342C7.05904 37.0767 7.15532 36.3784 7.27118 35.6394C7.38542 34.9166 7.53065 34.2208 7.7069 33.5518C7.91252 32.7655 8.11243 31.9693 8.30663 31.1633C8.41433 30.7163 8.69747 29.9552 9.15604 28.88C9.2001 28.774 9.27108 28.5488 9.369 28.2046C9.43264 27.9745 9.51832 27.7559 9.62602 27.5487C10.1515 26.5372 10.6443 25.5118 11.1045 24.4725C11.3346 23.957 12.0421 22.8108 13.2268 21.0341C13.6022 20.4729 14.1774 19.7183 14.9526 18.7704C15.5988 17.9824 16.2401 17.2556 16.8766 16.5899C21.6825 11.5649 27.524 8.14849 34.4008 6.34078C34.7288 6.25595 34.972 6.36362 35.1303 6.66382C35.1515 6.70461 35.1654 6.74866 35.1719 6.79597C35.2143 7.08638 35.0952 7.27482 34.8145 7.36129L31.2994 8.42095C31.2734 8.42905 31.2486 8.44144 31.2259 8.45766C30.8441 8.73665 30.4549 8.70973 30.0608 8.92509C29.4635 9.25302 28.8026 9.43901 28.1808 9.73758C24.9072 11.3234 21.9224 13.3448 19.2265 15.8019C18.2107 16.7269 17.3221 17.7744 16.409 18.7753C16.0745 19.1408 15.731 19.5633 15.3785 20.043C14.9428 20.6401 14.4654 21.1932 14.0542 21.8026C11.949 24.9269 10.3955 28.163 9.39348 31.5108C7.4303 38.0662 7.37562 44.7603 9.22947 51.593C9.38124 52.1494 9.57381 52.7351 9.80717 53.3502C9.95567 53.745 10.0952 54.1398 10.2257 54.5346C10.3563 54.9343 10.5097 55.3186 10.6859 55.6873C11.271 56.9158 11.7997 58.1052 12.4655 59.275Z" fill="#CECECE" style="fill:#CECECE;fill:color(display-p3 0.8078 0.8078 0.8078);fill-opacity:1;"/>
<path d="M3.76034 24.2866C3.76034 24.205 3.77829 24.1259 3.81419 24.0492C5.2878 20.8384 7.1033 17.8381 9.26068 15.0482C9.49731 14.7415 9.74291 14.456 9.99749 14.1917C10.3598 13.8148 10.5972 13.3719 10.9546 13.0023C11.6433 12.2877 12.3074 11.627 12.9472 11.02C13.1283 10.8471 13.3168 10.8389 13.5126 10.9956C13.5567 11.0315 13.5942 11.0731 13.6252 11.1204C13.7982 11.3814 13.777 11.6261 13.5616 11.8546C12.62 12.8563 11.7379 13.845 10.9154 14.8206C10.6315 15.1583 10.4087 15.4838 10.0979 15.7897C9.84083 16.0394 9.74291 16.3159 9.5275 16.59C8.59894 17.7875 7.72751 19.0862 6.91318 20.486C6.57538 21.0685 6.27592 21.611 6.01482 22.1135C4.61464 24.8087 3.54166 27.4558 2.79588 30.0548C2.34548 31.6292 2.01338 33.0633 1.7996 34.3571C1.76044 34.5904 1.71311 34.8302 1.65763 35.0766C1.60541 35.3099 1.56379 35.5448 1.53279 35.7814C0.325175 44.7938 1.79308 53.3299 5.93649 61.3895C6.22534 61.954 6.7247 62.8097 7.43458 63.9567C7.97311 64.8263 8.52224 65.6502 9.08198 66.4284C9.98116 67.6814 10.9293 68.8447 11.9264 69.9182C12.5759 70.6197 13.2409 71.3148 13.9214 72.0032C14.7259 72.819 15.5533 73.5581 16.4035 74.2205C16.6287 74.3967 16.7976 74.6096 17.0302 74.7882C19.0994 76.3675 20.9892 77.6303 22.6994 78.5766C24.6512 79.6583 26.3973 80.4854 27.9378 81.0581C28.1647 81.1413 28.3842 81.2335 28.5963 81.3346C28.8036 81.4309 29.0141 81.5108 29.2279 81.5745C30.1793 81.8518 31.1486 82.1602 32.1359 82.4995C32.4901 82.6203 32.6222 82.8625 32.5325 83.2264L32.486 83.4124C32.4746 83.4588 32.4537 83.5023 32.4246 83.5402C32.3955 83.5781 32.3589 83.6095 32.317 83.6325C32.2751 83.6555 32.2289 83.6696 32.1813 83.6738C32.1337 83.6781 32.0857 83.6723 32.0405 83.6571C30.8361 83.2492 29.6889 82.8707 28.5988 82.5216C27.9101 82.2997 26.8241 81.842 25.3407 81.1486C25.2738 81.1176 25.2028 81.1079 25.1277 81.1193C25.0494 81.1307 24.9914 81.1013 24.9539 81.0312C24.8919 80.9186 24.7964 80.8688 24.6675 80.8819C24.581 80.8917 24.5133 80.8599 24.4643 80.7864C24.3974 80.682 24.3028 80.6306 24.1804 80.6323C24.0792 80.6339 24.0009 80.5923 23.9454 80.5075C23.8964 80.4357 23.8336 80.3818 23.7569 80.3459C23.096 80.049 22.4138 79.6991 21.7105 79.2961C19.4144 77.9811 17.3606 76.5413 15.5492 74.9767C15.0384 74.5362 14.5889 74.1487 14.2005 73.8142C13.7533 73.4308 13.3339 73.0441 12.9423 72.6542C12.4837 72.1974 12.0382 71.7308 11.6057 71.2544C7.79849 67.0777 4.97285 62.6131 3.12879 57.8605C3.09289 57.7692 3.05699 57.6811 3.02109 57.5962C2.68165 56.7903 2.37403 55.9558 2.09824 55.0927C0.43696 49.9127 -0.237831 44.5858 0.0738632 39.1121C0.125268 38.2164 0.269693 37.3476 0.343129 36.4568C0.367608 36.1452 0.405958 35.832 0.458179 35.5171C1.11257 31.5248 2.11293 27.9795 3.45925 24.8813C3.49515 24.7997 3.51882 24.7116 3.53024 24.617C3.53677 24.5468 3.57267 24.4979 3.63795 24.4702C3.67373 24.454 3.70421 24.4282 3.72587 24.3958C3.74753 24.3633 3.75948 24.3254 3.76034 24.2866Z" fill="#CECECE" style="fill:#CECECE;fill:color(display-p3 0.8078 0.8078 0.8078);fill-opacity:1;"/>
<path d="M42.6834 71.2103C38.8109 71.1222 35.1326 70.3155 31.6485 68.79C31.5848 68.7623 31.5245 68.7288 31.4673 68.6897C31.3955 68.6407 31.3164 68.6244 31.2299 68.6407C31.1516 68.6554 31.0969 68.6269 31.0659 68.5551C31.012 68.4376 30.9223 68.3887 30.7966 68.4082C30.7549 68.415 30.712 68.4096 30.673 68.3927C30.6339 68.3758 30.6004 68.3481 30.5763 68.3128C30.511 68.2149 30.4197 68.1619 30.3022 68.1537C30.201 68.1472 30.1023 68.1178 30.006 68.0656C27.612 66.7661 25.3722 65.2806 23.4237 63.4085C23.0222 63.0218 22.5302 62.7208 22.2022 62.2656C21.6441 61.4947 20.8926 60.9172 20.3369 60.1414C19.8204 59.4219 19.206 58.7 18.7605 57.9731C17.4468 55.8359 16.6219 54.3169 16.2857 53.4163C16.0458 52.767 15.8043 52.1177 15.5612 51.4683C15.3539 50.9087 15.1728 50.3238 15.0177 49.7136C14.9182 49.3204 14.8154 48.9248 14.7093 48.5267C14.6049 48.1368 14.5176 47.7493 14.4474 47.3643C13.5384 42.4273 13.8175 37.6381 15.2845 32.9964C15.5424 32.1839 15.8451 31.3355 16.1927 30.4513C16.2253 30.3681 16.2604 30.2857 16.298 30.2041C16.6162 29.5238 16.9352 28.8581 17.2551 28.2071C17.4819 27.7405 17.7422 27.2755 18.0359 26.8122C18.3264 26.3521 18.6145 25.9067 18.9 25.476C19.8416 24.0566 20.9538 22.6788 22.2365 21.3426C23.2907 20.2446 24.6729 19.0642 26.3831 17.8014C26.8629 17.4457 27.359 17.1219 27.8714 16.8298C28.5397 16.4505 29.1688 16.01 29.8689 15.6698C31.1793 15.0319 32.3298 14.5433 33.3204 14.2039C33.5439 14.1273 33.7487 14.0465 33.9348 13.9617C34.1355 13.8703 34.3403 13.7936 34.5492 13.7316C40.1711 12.0495 45.7816 11.9712 51.3807 13.4967C51.9731 13.6582 52.563 13.8442 53.1505 14.0546C53.7298 14.2618 54.3181 14.4894 54.9154 14.7374C57.0499 15.6217 59.1428 16.8347 61.1941 18.3765C61.7098 18.7648 62.2484 19.2069 62.8097 19.7029C63.5098 20.3245 64.2271 20.8703 64.8268 21.5971C65.3066 22.1812 65.8018 22.7351 66.3126 23.2588C66.577 23.528 66.6774 23.8779 66.9393 24.1373C67.047 24.2434 67.1457 24.3609 67.2355 24.4898C68.4186 26.193 69.1521 27.3645 69.4361 28.004C69.7788 28.7757 70.1623 29.5629 70.5866 30.3656C70.6617 30.5076 70.7359 30.7172 70.8093 30.9946C70.8852 31.2833 71.0517 31.5599 71.1545 31.8511C72.2397 34.9102 72.8166 38.072 72.8851 41.3367C72.9072 42.2984 72.8092 43.1795 72.7921 44.1119C72.7839 44.4757 72.7546 44.8436 72.704 45.2156C72.4641 46.9531 72.1083 48.667 71.6367 50.3573C71.4213 51.1379 71.1055 51.8623 70.824 52.6112C69.4263 56.3065 67.0054 59.9725 64.1242 62.733C63.7783 63.0642 63.416 63.4052 63.0374 63.756C62.649 64.1166 62.2655 64.4461 61.8869 64.7447C59.9107 66.3093 57.7378 67.6325 55.3682 68.7141C55.0973 68.8381 54.8338 68.9434 54.5776 69.0298C54.2936 69.1261 54.017 69.2542 53.7478 69.4141C53.7051 69.4409 53.6541 69.4521 53.6033 69.4459C53.5495 69.4393 53.4997 69.4459 53.454 69.4655C52.4333 69.879 51.4321 70.114 50.3893 70.3979C49.8442 70.5463 49.3253 70.6581 48.8325 70.7331C48.152 70.8359 47.4739 70.9403 46.7983 71.0464C45.8999 71.1859 44.9844 71.1492 44.0714 71.2226C43.9963 71.2291 43.9588 71.2699 43.9588 71.3449V89.5648C43.9588 89.6529 43.9996 89.7124 44.0812 89.7434C44.1481 89.7695 44.2166 89.785 44.2868 89.7899C44.37 89.7932 44.4443 89.8193 44.5095 89.8682C45.2684 90.4262 45.7204 91.0078 45.8657 91.6131C46.0419 92.3489 45.8665 93.0668 45.3394 93.7667C45.2039 93.9462 45.0318 94.0963 44.8229 94.217C44.5218 94.3908 44.3406 94.6281 43.971 94.6746C43.0114 94.7986 42.2053 94.5213 41.5525 93.8426C41.2033 93.4788 40.9936 93.0529 40.9234 92.5651C40.7252 91.1898 41.528 90.228 42.7348 89.7385C42.8164 89.7043 42.8572 89.6431 42.8572 89.555V71.3866C42.8572 71.2707 42.7993 71.212 42.6834 71.2103ZM30.5567 44.9684V48.2673C30.5567 48.3554 30.5127 48.4003 30.4246 48.4019C29.864 48.4092 29.1541 48.2649 28.6719 48.6124C28.3178 48.8669 28.1725 49.2372 28.2362 49.7234C28.2786 50.0497 28.4393 50.2838 28.7184 50.4258C29.0383 50.5873 29.3769 50.6436 29.7343 50.5947C29.9138 50.5685 30.0035 50.4649 30.0035 50.2838L30.006 50.0342C30.0061 50.0013 29.9994 49.9688 29.9861 49.9386C29.9729 49.9085 29.9534 49.8814 29.929 49.859C29.9046 49.8367 29.8758 49.8197 29.8444 49.809C29.813 49.7983 29.7796 49.7941 29.7465 49.7968C29.5409 49.8115 29.3736 49.7577 29.2447 49.6353C29.0636 49.4624 29.0962 49.3514 29.3426 49.3025C29.6723 49.2389 30.0353 49.2209 30.4319 49.2487C30.5151 49.2536 30.5567 49.2984 30.5567 49.3833V52.7287C30.5567 52.8314 30.5053 52.8788 30.4025 52.8706C29.8493 52.8314 28.6964 52.7605 28.3928 53.3625C28.1056 53.9286 28.1587 54.4075 28.5519 54.799C28.8726 55.1147 29.2667 55.1294 29.6804 55.0903C29.7449 55.0842 29.807 55.0631 29.8618 55.0285C29.9165 54.994 29.9624 54.9469 29.9958 54.8912C30.0291 54.8355 30.0489 54.7727 30.0537 54.7078C30.0584 54.6429 30.048 54.5778 30.0231 54.5176C29.8991 54.2174 29.6723 54.1252 29.3426 54.2411C29.1794 54.2982 29.128 54.2435 29.1884 54.0771C29.2096 54.0151 29.2137 53.9547 29.2006 53.896C29.1794 53.8095 29.2137 53.7671 29.3034 53.7687L30.4343 53.781C30.5159 53.781 30.5567 53.8218 30.5567 53.9033V56.4093C30.5567 56.5391 30.6083 56.6636 30.7001 56.7554C30.7919 56.8472 30.9165 56.8988 31.0463 56.8988H57.116C57.2459 56.8988 57.3704 56.8472 57.4622 56.7554C57.554 56.6636 57.6056 56.5391 57.6056 56.4093V28.2047C57.6056 28.0755 57.554 27.9517 57.4622 27.8603C57.3704 27.769 57.2459 27.7177 57.116 27.7177L31.0243 27.7152C30.904 27.7152 30.7885 27.7626 30.7032 27.847C30.6179 27.9313 30.5696 28.0459 30.569 28.1655L30.5518 30.28C30.5502 30.3664 30.507 30.4113 30.4221 30.4146C29.5605 30.4464 29.0244 30.2286 28.3806 30.9774C28.2631 31.1161 28.2052 31.2801 28.2068 31.4693C28.215 32.0159 28.4875 32.3977 29.0244 32.6146C29.3769 32.7582 29.6943 32.6897 29.9766 32.4091C30.0196 32.3666 30.0503 32.3134 30.0655 32.255C30.0807 32.1966 30.0799 32.135 30.0632 32.0768C30.0464 32.0186 30.0144 31.9658 29.9703 31.924C29.9262 31.8821 29.8718 31.8527 29.8126 31.8389L29.2104 31.6994C29.1435 31.6847 29.1207 31.6439 29.1419 31.577L29.1713 31.4963C29.2088 31.3853 29.2863 31.329 29.4038 31.3274L30.4343 31.3249C30.5159 31.3233 30.5567 31.3641 30.5567 31.4473V34.8074C30.5567 34.8939 30.5135 34.9379 30.427 34.9395C29.8689 34.9493 29.159 34.8049 28.6792 35.1476C28.3169 35.4053 28.1701 35.7814 28.2386 36.2757C28.2827 36.5857 28.4336 36.8101 28.6915 36.9487C29.0244 37.1282 29.3818 37.1886 29.7636 37.1298C29.8101 37.1225 29.8537 37.1026 29.8895 37.0724C29.9253 37.0422 29.9521 37.0028 29.9668 36.9585C30.019 36.7954 30.0256 36.6363 29.9864 36.4813C29.9587 36.3769 29.8917 36.332 29.7857 36.3467C29.6763 36.363 29.5735 36.3475 29.4772 36.3002C28.9599 36.0506 28.986 35.8899 29.5556 35.8181C29.8379 35.7822 30.1259 35.77 30.4197 35.7814C30.511 35.7863 30.5567 35.8344 30.5567 35.9258V39.2663C30.5567 39.374 30.5029 39.4237 30.3952 39.4156C29.815 39.3666 28.6719 39.2932 28.3708 39.9442C28.0705 40.5968 28.1897 41.1042 28.7282 41.4664C29.0791 41.7013 29.4732 41.7184 29.9105 41.5178C29.9541 41.4979 29.9914 41.4665 30.0186 41.4268C30.0457 41.3872 30.0617 41.3408 30.0647 41.2926C30.0843 40.8986 29.7171 40.6049 29.3426 40.7714C29.1827 40.8431 29.1272 40.795 29.1761 40.627C29.199 40.5487 29.2023 40.472 29.1859 40.3969C29.1833 40.3853 29.1834 40.3733 29.1862 40.3617C29.1889 40.3501 29.1943 40.3393 29.2018 40.3301C29.2094 40.3209 29.2189 40.3135 29.2297 40.3086C29.2406 40.3036 29.2524 40.3012 29.2643 40.3015L30.4368 40.3235C30.5168 40.3251 30.5567 40.3651 30.5567 40.4434V43.7325C30.5567 43.8206 30.5127 43.8671 30.4246 43.872C29.5556 43.9112 29.0219 43.6836 28.3757 44.4447C28.2615 44.5785 28.2052 44.7367 28.2068 44.9195C28.2117 45.4742 28.485 45.86 29.0268 46.077C29.3777 46.2173 29.6935 46.1488 29.9742 45.8714C30.0176 45.8283 30.0487 45.7743 30.0641 45.7151C30.0796 45.6559 30.0789 45.5938 30.0621 45.5351C30.0454 45.4765 30.0131 45.4236 29.9687 45.382C29.9244 45.3404 29.8696 45.3116 29.8101 45.2988L29.2031 45.1666C29.1904 45.1639 29.1784 45.1584 29.1679 45.1507C29.1574 45.143 29.1486 45.1332 29.1421 45.1219C29.1357 45.1106 29.1317 45.0981 29.1304 45.0851C29.129 45.0722 29.1305 45.0591 29.1345 45.0467L29.1639 44.9586C29.2031 44.8444 29.283 44.7873 29.4038 44.7873L30.3732 44.7849C30.4955 44.7832 30.5567 44.8444 30.5567 44.9684Z" fill="#CECECE" style="fill:#CECECE;fill:color(display-p3 0.8078 0.8078 0.8078);fill-opacity:1;"/>
<path d="M74.6461 22.6811C75.418 23.9276 76.0675 25.1202 76.5946 26.259C77.3584 27.9036 78.0005 29.5954 78.5211 31.3346C78.8344 32.3837 79.1119 33.4988 79.3534 34.68C80.0241 37.9447 80.2199 41.3896 79.9409 45.0148C79.865 46.028 79.652 47.0289 79.5223 48.0372C79.4439 48.6506 79.3256 49.2673 79.1673 49.8873C78.9976 50.5644 78.823 51.2357 78.6435 51.9014C78.4868 52.4887 78.2877 53.1111 78.0462 53.7686C77.8618 54.276 77.675 54.7989 77.4857 55.3373C77.0304 56.6417 76.3058 57.9241 75.6914 59.1404C75.4352 59.6478 75.1537 60.1437 74.8469 60.6283C74.2447 61.5778 73.6792 62.5176 72.9987 63.401C72.6805 63.8154 72.3451 64.2396 71.9927 64.6736C70.2579 66.8027 68.8578 68.298 67.7921 69.1594C66.7493 70.0013 65.7261 70.8823 64.6368 71.6263C64.1277 71.9754 63.6218 72.3164 63.1192 72.6492C61.9564 73.4201 60.7496 74.0393 59.5159 74.7098C59.1504 74.9089 58.7579 75.0793 58.3385 75.2213C57.7877 75.4097 57.33 75.7205 56.7449 75.9114C56.2407 76.0762 55.7617 76.2426 55.308 76.4107C54.8446 76.582 53.9013 76.8724 52.4783 77.2819C52.1046 77.3896 51.8451 77.2631 51.6999 76.9026C51.6509 76.7835 51.6583 76.6448 51.7219 76.4865C51.7477 76.4228 51.7882 76.3661 51.8401 76.321C51.892 76.2759 51.9538 76.2437 52.0206 76.2271C53.5138 75.8568 54.8527 75.4415 56.0375 74.9815C58.3679 74.0776 60.5522 72.9739 62.5904 71.6703C64.88 70.2052 66.7755 68.6904 68.2768 67.1258C68.8398 66.5368 69.4183 65.9315 70.0123 65.3099C70.4415 64.858 70.8642 64.3563 71.2803 63.8048C71.5545 63.4394 71.8221 63.0894 72.0832 62.755C72.3949 62.352 72.6552 61.9955 72.8641 61.6855C73.9036 60.1339 74.8411 58.4976 75.6767 56.7763C75.9655 56.1792 76.2324 55.5413 76.4771 54.8626C76.6354 54.4221 76.7954 53.9881 76.9569 53.5606C77.1185 53.1348 77.2629 52.7 77.3902 52.2562C77.87 50.5807 78.1898 49.2379 78.3497 48.228C78.4395 47.6652 78.5342 47.0942 78.6337 46.515C78.7332 45.9276 78.7944 45.346 78.8173 44.7701C78.8662 43.5024 78.9886 42.2494 78.9299 40.9646C78.8907 40.1374 78.8409 39.2776 78.7806 38.3852C78.712 37.4063 78.4917 36.4763 78.3767 35.5072C78.331 35.1368 78.2592 34.76 78.1613 34.3766C78.0274 33.8545 77.9001 33.343 77.7794 32.8421C77.4954 31.665 77.116 30.6029 76.7415 29.4796C76.593 29.0326 76.4184 28.5986 76.2177 28.1777C75.6865 27.0593 75.2728 25.9604 74.6461 24.8641C73.7796 23.3484 72.8249 21.8752 71.7821 20.4443C71.3317 19.8244 70.8626 19.2607 70.3746 18.7533C69.8671 18.2247 69.3832 17.6447 68.923 17.0133C68.7223 16.7376 68.7729 16.5206 69.0748 16.3623L69.1972 16.2962C69.3979 16.1918 69.5766 16.2212 69.7333 16.3843C71.6459 18.3813 73.2835 20.4802 74.6461 22.6811Z" fill="#CECECE" style="fill:#CECECE;fill:color(display-p3 0.8078 0.8078 0.8078);fill-opacity:1;"/>
<path d="M30.3734 44.7848L29.4041 44.7873C29.2833 44.7873 29.2033 44.8444 29.1642 44.9586L29.1348 45.0467C29.1307 45.0591 29.1293 45.0721 29.1306 45.0851C29.1319 45.098 29.1359 45.1106 29.1424 45.1219C29.1489 45.1332 29.1576 45.143 29.1681 45.1507C29.1786 45.1584 29.1906 45.1638 29.2033 45.1666L29.8104 45.2988C29.8699 45.3116 29.9246 45.3404 29.969 45.382C30.0133 45.4236 30.0456 45.4765 30.0624 45.5351C30.0792 45.5937 30.0799 45.6559 30.0644 45.7151C30.0489 45.7743 30.0178 45.8283 29.9744 45.8714C29.6937 46.1488 29.378 46.2173 29.0271 46.077C28.4853 45.86 28.212 45.4741 28.2071 44.9194C28.2054 44.7367 28.2617 44.5784 28.376 44.4447C29.0222 43.6836 29.5558 43.9112 30.4248 43.872C30.5129 43.8671 30.557 43.8206 30.557 43.7325V40.4434C30.557 40.3651 30.517 40.3251 30.4371 40.3235L29.2645 40.3015C29.2526 40.3012 29.2408 40.3036 29.23 40.3086C29.2192 40.3135 29.2096 40.3209 29.2021 40.3301C29.1945 40.3393 29.1892 40.3501 29.1864 40.3617C29.1837 40.3732 29.1836 40.3853 29.1862 40.3969C29.2025 40.4719 29.1993 40.5486 29.1764 40.6269C29.1275 40.795 29.1829 40.8431 29.3429 40.7713C29.7174 40.6049 30.0846 40.8986 30.065 41.2926C30.0619 41.3407 30.046 41.3871 30.0188 41.4268C29.9917 41.4664 29.9543 41.4979 29.9108 41.5177C29.4734 41.7184 29.0793 41.7013 28.7285 41.4663C28.1899 41.1042 28.0708 40.5968 28.3711 39.9442C28.6722 39.2932 29.8153 39.3666 30.3955 39.4155C30.5032 39.4237 30.557 39.3739 30.557 39.2663V35.9258C30.557 35.8344 30.5113 35.7863 30.4199 35.7814C30.1262 35.77 29.8382 35.7822 29.5558 35.8181C28.9863 35.8899 28.9602 36.0506 29.4775 36.3002C29.5738 36.3475 29.6766 36.363 29.7859 36.3467C29.892 36.332 29.9589 36.3769 29.9867 36.4813C30.0258 36.6363 30.0193 36.7954 29.9671 36.9585C29.9523 37.0028 29.9256 37.0422 29.8898 37.0724C29.8539 37.1026 29.8104 37.1225 29.7639 37.1298C29.382 37.1885 29.0247 37.1282 28.6917 36.9487C28.4339 36.81 28.283 36.5857 28.2389 36.2757C28.1703 35.7814 28.3172 35.4053 28.6795 35.1475C29.1593 34.8049 29.8692 34.9493 30.4273 34.9395C30.5138 34.9379 30.557 34.8938 30.557 34.8074V31.4473C30.557 31.3641 30.5162 31.3233 30.4346 31.3249L29.4041 31.3274C29.2866 31.329 29.2091 31.3853 29.1715 31.4962L29.1421 31.577C29.1209 31.6439 29.1438 31.6847 29.2107 31.6993L29.8129 31.8388C29.872 31.8527 29.9265 31.8821 29.9706 31.924C30.0146 31.9658 30.0467 32.0186 30.0635 32.0768C30.0802 32.135 30.081 32.1965 30.0658 32.255C30.0505 32.3134 30.0198 32.3666 29.9769 32.409C29.6946 32.6897 29.3771 32.7582 29.0246 32.6146C28.4878 32.3976 28.2152 32.0159 28.2071 31.4693C28.2054 31.28 28.2634 31.1161 28.3809 30.9774C29.0246 30.2285 29.5607 30.4463 30.4224 30.4145C30.5072 30.4113 30.5505 30.3664 30.5521 30.2799L30.5692 28.1655C30.5699 28.0459 30.6182 27.9313 30.7035 27.8469C30.7888 27.7626 30.9042 27.7152 31.0246 27.7152L57.1163 27.7177C57.2461 27.7177 57.3706 27.769 57.4625 27.8603C57.5543 27.9516 57.6059 28.0755 57.6059 28.2047V56.4093C57.6059 56.5391 57.5543 56.6636 57.4625 56.7554C57.3706 56.8472 57.2461 56.8988 57.1163 56.8988H31.0466C30.9167 56.8988 30.7922 56.8472 30.7004 56.7554C30.6086 56.6636 30.557 56.5391 30.557 56.4093V53.9033C30.557 53.8217 30.5162 53.7809 30.4346 53.7809L29.3037 53.7687C29.214 53.7671 29.1797 53.8095 29.2009 53.896C29.214 53.9547 29.2099 54.0151 29.1887 54.0771C29.1283 54.2435 29.1797 54.2981 29.3429 54.241C29.6725 54.1252 29.8994 54.2174 30.0234 54.5176C30.0482 54.5777 30.0587 54.6429 30.054 54.7078C30.0492 54.7727 30.0294 54.8355 29.996 54.8912C29.9627 54.9469 29.9168 54.9939 29.862 55.0285C29.8073 55.0631 29.7451 55.0842 29.6807 55.0902C29.267 55.1294 28.8729 55.1147 28.5522 54.799C28.1589 54.4074 28.1059 53.9286 28.3931 53.3625C28.6966 52.7604 29.8496 52.8314 30.4028 52.8706C30.5056 52.8787 30.557 52.8314 30.557 52.7286V49.3832C30.557 49.2984 30.5154 49.2535 30.4322 49.2486C30.0356 49.2209 29.6725 49.2388 29.3429 49.3025C29.0965 49.3514 29.0638 49.4624 29.245 49.6353C29.3739 49.7577 29.5412 49.8115 29.7468 49.7968C29.7799 49.7941 29.8132 49.7982 29.8446 49.8089C29.8761 49.8196 29.9049 49.8367 29.9293 49.859C29.9537 49.8813 29.9731 49.9084 29.9864 49.9386C29.9996 49.9687 30.0064 50.0013 30.0062 50.0342L30.0038 50.2838C30.0038 50.4649 29.914 50.5685 29.7345 50.5946C29.3771 50.6436 29.0385 50.5873 28.7187 50.4258C28.4396 50.2838 28.2789 50.0497 28.2364 49.7234C28.1728 49.2372 28.318 48.8669 28.6722 48.6123C29.1544 48.2648 29.8643 48.4092 30.4248 48.4019C30.5129 48.4002 30.557 48.3554 30.557 48.2673V44.9684C30.557 44.8444 30.4958 44.7832 30.3734 44.7848ZM56.6879 28.6966C56.6879 28.6797 56.6812 28.6635 56.6693 28.6516C56.6573 28.6396 56.6411 28.6329 56.6243 28.6329H31.5386C31.5217 28.6329 31.5055 28.6396 31.4936 28.6516C31.4817 28.6635 31.475 28.6797 31.475 28.6966V55.915C31.475 55.9233 31.4766 55.9316 31.4798 55.9393C31.483 55.947 31.4877 55.954 31.4936 55.9599C31.4995 55.9659 31.5065 55.9705 31.5142 55.9737C31.522 55.9769 31.5302 55.9786 31.5386 55.9786H56.6243C56.6326 55.9786 56.6409 55.9769 56.6486 55.9737C56.6563 55.9705 56.6634 55.9659 56.6693 55.9599C56.6752 55.954 56.6799 55.947 56.6831 55.9393C56.6863 55.9316 56.6879 55.9233 56.6879 55.915V28.6966Z" fill="black" style="fill:black;fill-opacity:1;"/>
<path d="M56.6876 55.915C56.6876 55.9233 56.6859 55.9316 56.6827 55.9393C56.6795 55.947 56.6748 55.954 56.6689 55.96C56.663 55.9659 56.656 55.9705 56.6483 55.9737C56.6405 55.9769 56.6323 55.9786 56.6239 55.9786H31.5383C31.5299 55.9786 31.5216 55.9769 31.5139 55.9737C31.5062 55.9705 31.4992 55.9659 31.4932 55.96C31.4873 55.954 31.4827 55.947 31.4795 55.9393C31.4763 55.9316 31.4746 55.9233 31.4746 55.915V28.6966C31.4746 28.6797 31.4813 28.6635 31.4932 28.6516C31.5052 28.6396 31.5214 28.6329 31.5383 28.6329H56.6239C56.6408 28.6329 56.657 28.6396 56.6689 28.6516C56.6809 28.6635 56.6876 28.6797 56.6876 28.6966V55.915ZM38.1793 36.1509C37.3944 36.9422 36.6118 37.6747 35.8318 38.3485C35.587 38.559 35.4867 38.8445 35.5307 39.2051C35.5454 39.3307 35.6531 39.3968 35.8538 39.4033C35.9534 39.4064 36.0516 39.3725 36.1304 39.3079C37.0264 38.5753 37.9051 37.7375 38.7668 36.7945C38.7853 36.7744 38.8076 36.7581 38.8325 36.7466C38.8573 36.7352 38.8842 36.7288 38.9116 36.7279C38.939 36.727 38.9662 36.7315 38.9918 36.7413C39.0174 36.7511 39.0407 36.7658 39.0605 36.7847L41.6748 39.2418C41.8788 39.4343 42.0877 39.4392 42.3015 39.2565C42.3717 39.1961 42.4174 39.1121 42.4386 39.0044C42.4491 38.9548 42.4471 38.9034 42.4325 38.8546C42.418 38.8059 42.3915 38.7615 42.3553 38.7254L39.7141 36.0946C39.639 36.0196 39.6407 35.9453 39.719 35.8719L42.2648 33.4956C42.2938 33.4682 42.3164 33.4348 42.3309 33.3977C42.4484 33.0959 42.432 32.9058 42.2819 32.8275C42.0029 32.6823 41.7483 32.7117 41.5182 32.9156C40.7169 33.627 39.9393 34.3873 39.1854 35.1965C39.0483 35.3449 38.9055 35.3498 38.757 35.2112L36.1035 32.7272C36.0154 32.6424 35.9216 32.6366 35.822 32.7101C35.7094 32.7916 35.6066 32.8846 35.5136 32.9891C35.3977 33.1179 35.401 33.2428 35.5234 33.3635L38.1793 35.982C38.2348 36.0392 38.2348 36.0954 38.1793 36.1509ZM48.7394 34.5015C48.7198 35.9763 48.723 37.7392 48.7492 39.79C48.7614 40.857 48.4383 41.6058 47.2706 41.6426C45.3385 41.7029 43.2978 41.707 41.1485 41.6548C39.3127 41.6107 38.3164 42.827 38.4657 44.5523C38.4712 44.6199 38.4526 44.6872 38.4132 44.7423C38.3737 44.7974 38.316 44.8368 38.2503 44.8534C36.4095 45.3037 35.117 46.6447 35.259 48.6442C35.3471 49.8841 35.9754 50.8255 37.1439 51.4683C40.6443 53.3918 44.4678 49.2486 41.7213 45.9889C41.2807 45.4652 40.5643 45.085 39.5721 44.8485C39.4938 44.8305 39.4505 44.7816 39.4424 44.7016C39.3298 43.6297 39.555 42.5701 40.7936 42.5456C42.5267 42.5113 44.6155 42.5081 47.0601 42.5358C48.0368 42.548 48.8177 42.2103 49.3611 41.366C49.5749 41.0348 49.6761 40.4589 49.6647 39.6383C49.6402 37.8452 49.641 36.0856 49.6671 34.3595C49.6668 34.349 49.6698 34.3387 49.6755 34.3299C49.6812 34.3211 49.6896 34.3142 49.6994 34.3101C49.7093 34.3059 49.7203 34.3047 49.7311 34.3065C49.7419 34.3083 49.752 34.3131 49.7601 34.3204L52.2471 36.6257C52.296 36.6717 52.3569 36.7028 52.4228 36.7154C52.4888 36.7279 52.5569 36.7214 52.6192 36.6966C52.7057 36.664 52.7767 36.6175 52.8322 36.5572C53.0247 36.3451 53.0182 36.1387 52.8126 35.938L49.5986 32.8129C49.5022 32.7201 49.3737 32.6684 49.2405 32.6688C49.1073 32.6693 48.9802 32.7219 48.8862 32.8153C47.8434 33.8497 46.8308 34.8033 45.8484 35.6761C45.6086 35.8882 45.5221 36.1525 45.589 36.4691C45.6183 36.6094 45.7513 36.6909 45.988 36.7138C46.0341 36.7177 46.0804 36.7118 46.1239 36.6966C46.1674 36.6814 46.207 36.6573 46.2401 36.6257L48.5386 34.4158C48.6741 34.2853 48.741 34.3138 48.7394 34.5015ZM48.9964 47.8096L46.7321 45.5337C46.5298 45.3314 46.2866 45.2539 46.0027 45.3012C45.9243 45.3159 45.8623 45.3518 45.8166 45.4089C45.6632 45.6047 45.6755 45.7882 45.8533 45.9595L48.4603 48.4826C48.5256 48.5463 48.5264 48.6099 48.4628 48.6735L45.8607 51.2236C45.7973 51.2868 45.7575 51.3698 45.7481 51.4585C45.704 51.8941 45.9586 52.0059 46.5118 51.7938C46.5409 51.7825 46.5667 51.7658 46.5877 51.7448L49.0527 49.3441C49.1343 49.2658 49.2159 49.2658 49.2975 49.3441L51.9118 51.8525C52.1158 52.0483 52.3043 52.0352 52.4772 51.8134L52.5287 51.7473C52.7245 51.496 52.7049 51.2627 52.4699 51.0474L50.0098 48.791C49.9879 48.7715 49.9704 48.7476 49.9583 48.7208C49.9463 48.694 49.9399 48.6649 49.9397 48.6352C49.9395 48.6056 49.9454 48.5761 49.957 48.5486C49.9686 48.5211 49.9858 48.4961 50.0074 48.4753L52.514 46.0868C52.5895 46.0145 52.6349 45.9166 52.6412 45.8127C52.6543 45.6038 52.6013 45.4423 52.4821 45.3281C52.3206 45.1731 52.1582 45.1715 51.995 45.3232L49.3024 47.817C49.1996 47.9132 49.0976 47.9108 48.9964 47.8096Z" fill="#CECECE" style="fill:#CECECE;fill:color(display-p3 0.8078 0.8078 0.8078);fill-opacity:1;"/>
<path d="M38.1799 35.982L35.524 33.3634C35.4016 33.2427 35.3983 33.1179 35.5142 32.989C35.6072 32.8846 35.71 32.7916 35.8226 32.71C35.9222 32.6366 36.016 32.6423 36.1041 32.7272L38.7576 35.2111C38.9061 35.3498 39.0489 35.3449 39.186 35.1964C39.9399 34.3872 40.7175 33.6269 41.5188 32.9156C41.7489 32.7117 42.0035 32.6823 42.2825 32.8275C42.4327 32.9058 42.449 33.0959 42.3315 33.3977C42.317 33.4347 42.2944 33.4682 42.2654 33.4956L39.7196 35.8719C39.6413 35.9453 39.6397 36.0195 39.7147 36.0946L42.356 38.7254C42.3921 38.7614 42.4186 38.8059 42.4332 38.8546C42.4477 38.9033 42.4498 38.9548 42.4392 39.0044C42.418 39.1121 42.3723 39.1961 42.3021 39.2564C42.0883 39.4392 41.8795 39.4343 41.6755 39.2418L39.0612 36.7847C39.0414 36.7658 39.018 36.751 38.9924 36.7413C38.9669 36.7315 38.9396 36.7269 38.9122 36.7279C38.8849 36.7288 38.858 36.7351 38.8331 36.7466C38.8082 36.758 38.7859 36.7743 38.7674 36.7945C37.9058 37.7375 37.027 38.5753 36.1311 39.3078C36.0523 39.3724 35.954 39.4064 35.8545 39.4033C35.6537 39.3967 35.546 39.3307 35.5313 39.205C35.4873 38.8445 35.5876 38.559 35.8324 38.3485C36.6125 37.6747 37.395 36.9421 38.1799 36.1509C38.2354 36.0954 38.2354 36.0391 38.1799 35.982Z" fill="black" style="fill:black;fill-opacity:1;"/>
<path d="M48.741 34.5015C48.7426 34.3138 48.6757 34.2853 48.5403 34.4158L46.2417 36.6257C46.2086 36.6573 46.169 36.6814 46.1255 36.6966C46.0821 36.7118 46.0358 36.7177 45.9896 36.7138C45.753 36.691 45.62 36.6094 45.5906 36.4691C45.5237 36.1526 45.6102 35.8883 45.8501 35.6762C46.8325 34.8033 47.8451 33.8497 48.8879 32.8153C48.9818 32.7219 49.109 32.6693 49.2421 32.6688C49.3753 32.6684 49.5038 32.7201 49.6002 32.8129L52.8142 35.938C53.0199 36.1387 53.0264 36.3451 52.8338 36.5572C52.7783 36.6175 52.7074 36.664 52.6209 36.6967C52.5585 36.7215 52.4904 36.728 52.4245 36.7154C52.3586 36.7028 52.2976 36.6717 52.2488 36.6257L49.7618 34.3204C49.7536 34.3132 49.7435 34.3083 49.7327 34.3065C49.722 34.3047 49.711 34.3059 49.7011 34.3101C49.6912 34.3142 49.6829 34.3211 49.6771 34.3299C49.6714 34.3387 49.6685 34.349 49.6688 34.3595C49.6426 36.0857 49.6418 37.8452 49.6663 39.6383C49.6777 40.4589 49.5766 41.0348 49.3628 41.366C48.8193 42.2103 48.0385 42.5481 47.0618 42.5358C44.6172 42.5081 42.5283 42.5113 40.7953 42.5456C39.5566 42.5701 39.3314 43.6297 39.444 44.7016C39.4522 44.7816 39.4954 44.8305 39.5738 44.8485C40.566 45.085 41.2824 45.4652 41.723 45.9889C44.4695 49.2486 40.6459 53.3919 37.1455 51.4683C35.9771 50.8255 35.3488 49.8841 35.2606 48.6442C35.1187 46.6448 36.4111 45.3037 38.2519 44.8534C38.3177 44.8368 38.3754 44.7975 38.4148 44.7423C38.4543 44.6872 38.4729 44.6199 38.4673 44.5524C38.318 42.827 39.3143 41.6108 41.1502 41.6548C43.2994 41.707 45.3401 41.7029 47.2723 41.6426C48.4399 41.6059 48.763 40.857 48.7508 39.79C48.7247 37.7392 48.7214 35.9764 48.741 34.5015ZM41.7263 48.5621C41.7502 48.2117 41.7019 47.8597 41.5842 47.5264C41.4665 47.1931 41.2817 46.885 41.0403 46.6196C40.7989 46.3541 40.5056 46.1367 40.1773 45.9796C39.849 45.8224 39.4919 45.7288 39.1267 45.7039C38.3889 45.6536 37.6622 45.8865 37.1064 46.3514C36.5506 46.8164 36.2113 47.4752 36.163 48.1829C36.1391 48.5334 36.1874 48.8853 36.3051 49.2186C36.4228 49.5519 36.6077 49.8601 36.8491 50.1255C37.0905 50.3909 37.3837 50.6084 37.7121 50.7655C38.0404 50.9226 38.3974 51.0163 38.7627 51.0412C39.5004 51.0915 40.2271 50.8585 40.7829 50.3936C41.3387 49.9287 41.6781 49.2699 41.7263 48.5621Z" fill="black" style="fill:black;fill-opacity:1;"/>
<path d="M49.3032 47.8169L51.9959 45.3232C52.1591 45.1714 52.3215 45.1731 52.483 45.3281C52.6021 45.4423 52.6552 45.6038 52.6421 45.8126C52.6358 45.9165 52.5903 46.0144 52.5148 46.0867L50.0082 48.4752C49.9867 48.496 49.9695 48.521 49.9579 48.5485C49.9462 48.576 49.9403 48.6055 49.9406 48.6352C49.9408 48.6648 49.9472 48.6939 49.9592 48.7207C49.9713 48.7475 49.9888 48.7714 50.0107 48.7909L52.4708 51.0473C52.7058 51.2627 52.7253 51.496 52.5295 51.7472L52.4781 51.8133C52.3051 52.0352 52.1166 52.0482 51.9127 51.8524L49.2983 49.344C49.2167 49.2657 49.1352 49.2657 49.0536 49.344L46.5886 51.7448C46.5676 51.7658 46.5418 51.7824 46.5127 51.7937C45.9595 52.0058 45.7049 51.894 45.7489 51.4584C45.7584 51.3697 45.7981 51.2868 45.8615 51.2235L48.4636 48.6735C48.5273 48.6098 48.5265 48.5462 48.4612 48.4826L45.8542 45.9594C45.6763 45.7881 45.6641 45.6046 45.8175 45.4088C45.8632 45.3517 45.9252 45.3158 46.0035 45.3011C46.2875 45.2538 46.5306 45.3313 46.733 45.5336L48.9973 47.8096C49.0984 47.9107 49.2004 47.9132 49.3032 47.8169Z" fill="black" style="fill:black;fill-opacity:1;"/>
<path d="M38.7615 51.0412C40.2977 51.1459 41.6246 50.036 41.7251 48.5621C41.8256 47.0883 40.6617 45.8086 39.1254 45.7039C37.5891 45.5992 36.2623 46.7091 36.1618 48.1829C36.0613 49.6568 37.2252 50.9365 38.7615 51.0412Z" fill="#CECECE" style="fill:#CECECE;fill:color(display-p3 0.8078 0.8078 0.8078);fill-opacity:1;"/>
<circle cx="44" cy="42" r="30" fill="#CECECE" style="fill:#CECECE;fill:color(display-p3 0.8078 0.8078 0.8078);fill-opacity:1;"/>
</svg>
