<svg width="220" height="135" viewBox="0 0 220 135" fill="none" xmlns="http://www.w3.org/2000/svg">
<path d="M107.25 10.0001C111.046 12.7611 112.027 15.4912 113 20.0001C113.746 27.8295 111.685 33.8969 108.02 40.7775C103.112 49.9988 100.186 56.5012 103 67.0001C103.722 66.2576 104.444 65.5151 105.187 64.7501C111.779 58.3055 111.779 58.3055 116 57.2501C119.521 58.1304 119.855 58.739 121.75 61.6876C123.415 64.7019 124.879 67.7378 126 71.0001C127.65 70.3401 129.3 69.6801 131 69.0001C130.67 63.0601 130.34 57.1201 130 51.0001C130.66 51.0001 131.32 51.0001 132 51.0001C132 50.3401 132 49.6801 132 49.0001C134.829 47.5857 136.874 47.6811 140 48.0001C143.182 50.8528 143.609 53.857 144 58.0001C144.069 61.0024 144.06 63.9978 144 67.0001C144.66 67.0001 145.32 67.0001 146 67.0001C146.33 66.0101 146.66 65.0201 147 64.0001C147.66 63.6701 148.32 63.3401 149 63.0001C150.122 60.3218 151.15 57.6688 152.125 54.9376C152.402 54.179 152.679 53.4204 152.965 52.6388C153.65 50.7615 154.326 48.8811 155 47.0001C160.625 46.7501 160.625 46.7501 164 49.0001C164.356 50.9996 164.356 50.9996 164.328 53.4298C164.323 54.3077 164.318 55.1855 164.312 56.09C164.292 57.0091 164.271 57.9282 164.25 58.8751C164.245 59.7865 164.24 60.6978 164.234 61.6368C164.188 65.5988 164.093 69.1712 163 73.0001C166.465 72.5051 166.465 72.5051 170 72.0001C170.433 73.2067 170.433 73.2067 170.875 74.4376C171.733 77.1328 171.733 77.1328 174 78.0001C173.362 78.3984 172.724 78.7967 172.066 79.2071C171.24 79.7369 170.414 80.2667 169.562 80.8126C168.739 81.3347 167.915 81.8568 167.066 82.3946C164.722 83.9097 164.722 83.9097 164 87.0001C164.66 87.3301 165.32 87.6601 166 88.0001C165.34 88.0001 164.68 88.0001 164 88.0001C164.33 89.6501 164.66 91.3001 165 93.0001C169.999 92.4502 174.998 91.8988 179.996 91.3461C181.695 91.1585 183.393 90.9713 185.091 90.7845C187.541 90.515 189.991 90.244 192.441 89.9728C193.568 89.8493 193.568 89.8493 194.718 89.7233C198.108 89.3466 201.48 88.9313 204.858 88.4476C207.742 88.0368 210.465 87.8661 213.375 87.8751C214.655 87.8712 214.655 87.8712 215.961 87.8673C218 88.0001 218 88.0001 219 89.0001C219.125 91.5001 219.125 91.5001 219 94.0001C217.477 95.5229 215.924 95.3761 213.807 95.6485C212.915 95.7654 212.023 95.8822 211.104 96.0025C210.131 96.1255 209.159 96.2484 208.156 96.3751C207.158 96.5045 206.16 96.6339 205.131 96.7672C201.921 97.1822 198.711 97.5911 195.5 98.0001C193.365 98.2758 191.229 98.5518 189.094 98.8282C180.402 99.949 171.713 101.055 163 102C163.045 102.734 163.09 103.467 163.137 104.223C162.909 108.85 160.444 112.169 158 116C157.627 116.585 157.255 117.171 156.871 117.774C152.97 123.128 147.408 124.864 141.375 126.875C137.836 127.061 135.271 126.333 132 125C129.083 121.479 127.891 117.453 127 113C127.957 110.785 127.957 110.785 129 109C122.481 110.226 116.074 111.706 109.664 113.414C107 114 107 114 103 114C102.67 114.66 102.34 115.32 102 116C100.124 116.492 98.2442 116.975 96.353 117.406C92.2275 118.447 88.2891 120 84.3125 121.5C83.4843 121.808 82.656 122.116 81.8027 122.434C79.5319 123.281 77.2655 124.139 75 125C74.1544 125.316 73.3087 125.632 72.4375 125.957C70.2611 126.888 68.1821 127.906 66.0742 128.981C65.3594 129.34 64.6446 129.699 63.9082 130.068C62.4323 130.812 60.9634 131.57 59.5019 132.342C54.1684 134.978 50.8201 135.422 45 134C43.5 131.938 43.5 131.938 43 130C55.9983 122.407 69.6903 116.708 83.8804 111.743C85.7751 111.079 87.6634 110.396 89.5508 109.711C94.1269 108.095 98.3444 106.83 103.187 106.375C104.446 106.251 105.704 106.128 107 106C107.33 105.34 107.66 104.68 108 104C109.99 103.611 111.992 103.281 114 103C114.99 102.67 115.98 102.34 117 102C119.35 101.461 121.705 100.942 124.062 100.438C125.312 100.168 126.561 99.8988 127.848 99.6212C131 99.0001 131 99.0001 133 99.0001C135.214 96.4399 137.122 93.8171 139 91.0001C141 88.8126 141 88.8126 143 87.0001C143.66 87.0001 144.32 87.0001 145 87.0001C145.289 86.3814 145.577 85.7626 145.875 85.1251C147 83.0001 147 83.0001 149 81.0001C148.325 81.0117 147.649 81.0233 146.953 81.0353C146.061 81.0443 145.169 81.0533 144.25 81.0626C143.368 81.0742 142.487 81.0858 141.578 81.0978C139 81.0001 139 81.0001 136.879 80.4064C134.115 79.8087 132.338 81.138 129.863 82.2775C126.721 83.4962 124.307 83.49 121 83.0001C118.25 80.6876 118.25 80.6876 116 78.0001C115.402 77.402 114.804 76.8039 114.187 76.1876C113.796 75.7957 113.404 75.4039 113 75.0001C111.186 77.8508 109.778 80.5454 108.5 83.6876C107 87.0001 107 87.0001 104 89.0001C97.8395 89.5501 97.8395 89.5501 95.1875 87.8126C89.4275 79.0211 88.7577 66.0375 88.2109 55.8048C88.0729 53.063 88.0729 53.063 87.4805 50.6837C86.7934 46.8463 86.8951 43.0768 86.9375 39.1876C86.942 38.3993 86.9465 37.6111 86.9512 36.7989C86.9629 34.866 86.9808 32.933 87 31.0001C85.07 36.3531 83.7477 41.3389 83 47.0001C82.3359 49.001 81.6688 51.0008 81 53.0001C80.3315 55.5387 79.6846 58.0754 79.0625 60.6251C78.887 61.3295 78.7115 62.0339 78.5308 62.7596C77.7512 65.8952 76.9931 69.031 76.2851 72.1837C74.9543 77.9874 73.2016 83.5137 71.0625 89.0626C70.7011 90.0286 70.7011 90.0286 70.3325 91.014C68.8501 94.7131 67.5458 97.0686 64 99.0001C61.5 99.0626 61.5 99.0626 59 98.0001C56.0555 94.4013 54.7761 91.5274 54 87.0001C53.01 86.5051 53.01 86.5051 52 86.0001C51.1484 84.1525 51.1484 84.1525 50.375 81.9376C49.9844 80.8374 49.9844 80.8374 49.5859 79.715C49.3926 79.1491 49.1992 78.5832 49 78.0001C48.7576 78.7619 48.5153 79.5238 48.2656 80.3087C46.3858 86.0999 44.3891 91.6772 41.7344 97.1603C40.8146 99.1343 40.8146 99.1343 41 102C37.9167 103.542 35.3912 103.298 32 103C30.0625 101.125 30.0625 101.125 29 99.0001C29 98.3401 29 97.6801 29 97.0001C28.34 96.6701 27.68 96.3401 27 96.0001C27.33 95.3401 27.66 94.6801 28 94.0001C27.34 93.6701 26.68 93.3401 26 93.0001C24.9648 91.2579 24.9648 91.2579 23.9375 89.1251C23.4251 88.0771 23.4251 88.0771 22.9023 87.0079C21.8426 84.6498 21.0746 82.243 20.3164 79.7735C19.9432 78.5863 19.9432 78.5863 19.5625 77.3751C19.3163 76.5785 19.0701 75.7818 18.8164 74.961C18.1734 72.8144 18.1734 72.8144 16 72.0001C14.9528 69.6876 13.9565 67.3516 13 65.0001C12.6803 64.3659 12.3606 63.7317 12.0312 63.0782C10.891 60.7806 9.94112 58.4485 8.99999 56.0626C8.50499 54.8116 8.50499 54.8116 7.99999 53.5353C7.30837 51.7819 6.64332 50.0179 5.99999 48.2462C5.21493 45.8429 5.21493 45.8429 2.99999 45.0001C1.28372 40.9001 0.605892 37.4337 0.999993 33.0001C1.98999 31.5151 1.98999 31.5151 2.99999 30.0001C6.31249 30.1876 6.31249 30.1876 9.99999 31.0001C11.4922 33.0821 11.4922 33.0821 13 36.0001C13.6046 37.1654 14.2091 38.3307 14.832 39.5314C15.495 40.8529 16.1551 42.1758 16.8125 43.5001C17.1593 44.1977 17.506 44.8954 17.8633 45.6141C27 64.0828 27 64.0828 27 68.0001C27.66 68.0001 28.32 68.0001 29 68.0001C31.475 74.4351 31.475 74.4351 34 81.0001C37.6327 73.5696 39.6192 65.3063 39 57.0001C37.837 53.9152 37.837 53.9152 36.1875 50.9376C35.4044 49.4352 35.4044 49.4352 34.6055 47.9025C33.5632 46.0183 32.4879 44.152 31.375 42.3087C28.357 37.2416 27.7661 32.8464 28 27.0001C28.8044 26.8764 29.6087 26.7526 30.4375 26.6251C31.2831 26.4189 32.1287 26.2126 33 26.0001C33.33 25.3401 33.66 24.6801 34 24.0001C39.3989 27.3937 41.6515 32.2639 44 38.0001C44 38.6601 44 39.3201 44 40.0001C44.66 40.0001 45.32 40.0001 46 40.0001C45.9381 39.1545 45.8762 38.3089 45.8125 37.4376C46.0331 33.3931 47.3077 30.6554 49 27.0001C49.1237 26.237 49.2475 25.4739 49.375 24.6876C49.5812 24.1307 49.7875 23.5739 50 23.0001C52.5 21.8751 52.5 21.8751 55 21.0001C55.33 20.3401 55.66 19.6801 56 19.0001C56 19.6601 56 20.3201 56 21.0001C58.475 21.4951 58.475 21.4951 61 22.0001C62.0004 25.1131 61.9742 26.9981 61.0391 30.1173C60.7026 31.2755 60.7026 31.2755 60.3594 32.4571C60.117 33.2551 59.8747 34.053 59.625 34.8751C58.1298 39.9111 56.777 44.7926 56 50.0001C55.459 52.3233 54.8879 54.6364 54.3047 56.9493C53.8133 59.1936 53.8133 59.1936 55 62.0001C55.1444 62.7014 55.2887 63.4026 55.4375 64.1251C55.6231 64.7439 55.8087 65.3626 56 66.0001C56.99 66.4951 56.99 66.4951 58 67.0001C59.0703 69.0665 59.0703 69.0665 60.125 71.5626C60.6548 72.802 60.6548 72.802 61.1953 74.0665C61.4609 74.7046 61.7264 75.3427 62 76.0001C63.8867 70.9403 65.2028 66.2295 65.9375 60.8751C67.3173 51.0558 70.0167 41.5535 73.2773 32.1993C74.4585 28.6046 75.3942 24.9449 76.3516 21.2853C77 19.0001 77 19.0001 78 17.0001C84.1414 15.4937 84.1414 15.4937 87.4375 17.4376C87.9531 17.9532 88.4687 18.4689 89 19.0001C89.3919 17.907 89.7837 16.8139 90.1875 15.6876C91.3333 13.0549 92.0117 11.99 94.25 10.0626C98.9042 8.26439 102.526 8.54652 107.25 10.0001ZM100 19.0001C98.9961 25.5255 98.9961 25.5255 100 32.0001C102.615 29.385 102.657 27.4865 103.047 23.9103C103.176 21.8483 103.176 21.8483 101.562 20.0001C101.047 19.6701 100.531 19.3401 100 19.0001ZM88 23.0001C89 26.0001 89 26.0001 89 26.0001L88 23.0001ZM149 95.0001C149.33 95.6601 149.66 96.3201 150 97.0001C150.33 96.3401 150.66 95.6801 151 95.0001C150.34 95.0001 149.68 95.0001 149 95.0001ZM141 106C138.622 109.171 138.825 112.141 139 116C139.99 116.495 139.99 116.495 141 117C145.728 115.134 147.241 112.213 149.301 107.84C150.118 106.017 150.118 106.017 150 104C146.153 104 144.332 104.246 141 106Z" fill="white"/>
<path d="M189 3.00011C189 3.66011 189 4.32011 189 5.00011C189.66 5.00011 190.32 5.00011 191 5.00011C192.691 7.48449 192.691 7.48449 194.562 10.7501C195.492 12.3511 195.492 12.3511 196.441 13.9845C198.73 18.4137 199.381 20.8052 198 25.6251C196.142 31.4332 193.033 36.4325 189 41.0001C188.34 41.0001 187.68 41.0001 187 41.0001C186.67 41.9901 186.34 42.9801 186 44.0001C185.34 44.0001 184.68 44.0001 184 44.0001C183.939 44.6266 183.879 45.2531 183.816 45.8986C183.691 47.1245 183.691 47.1245 183.562 48.3751C183.481 49.1872 183.4 49.9993 183.316 50.8361C183 53.0001 183 53.0001 182 55.0001C181.34 55.0001 180.68 55.0001 180 55.0001C180 55.6601 180 56.3201 180 57.0001C177.75 57.7501 177.75 57.7501 175 58.0001C172.687 56.1876 172.687 56.1876 171 54.0001C171 53.3401 171 52.6801 171 52.0001C170.34 51.6701 169.68 51.3401 169 51.0001C169.33 47.7001 169.66 44.4001 170 41.0001C170.66 41.0001 171.32 41.0001 172 41.0001C172.237 40.4213 172.474 39.8425 172.719 39.2462C174.721 35.7368 177.808 33.6275 180.906 31.0978C183.198 28.8017 184.091 27.093 185 24.0001C184.916 19.9966 184.22 18.296 181.812 15.0626C179.134 12.6403 179.134 12.6403 175.687 13.1876C174.8 13.4557 173.914 13.7239 173 14.0001C173 14.6601 173 15.3201 173 16.0001C172.34 16.0001 171.68 16.0001 171 16.0001C171.33 16.9901 171.66 17.9801 172 19.0001C170.29 21.6595 168.899 23.5361 166.062 25.0001C162.937 25.0001 161.399 23.9457 159 22.0001C157.426 17.9533 158.132 14.1805 159 10.0001C161 8.00011 161 8.00011 163 7.00011C163 6.34011 163 5.68011 163 5.00011C171.427 -1.95239 179.189 0.106043 189 3.00011Z" fill="white"/>
<path d="M183 60.9999C183 61.6599 183 62.3199 183 62.9999C183.66 62.9999 184.32 62.9999 185 62.9999C186.187 66.7101 186.346 70.1278 186 73.9999C184.5 76.4999 184.5 76.4999 182 77.9999C179.149 78.2252 176.709 77.9148 174 76.9999C172.563 75.4374 172.563 75.4374 172 72.9999C171.847 72.3721 171.693 71.7443 171.535 71.0975C171.123 68.9884 170.881 67.147 171 64.9999C174.678 60.0536 177.197 59.8644 183 60.9999Z" fill="white"/>
<path d="M44 127C46 128 46 128 46 128L44 127Z" fill="white"/>
<path d="M144 126C146 127 146 127 146 127L144 126Z" fill="white"/>
<path d="M125 110C127 111 127 111 127 111L125 110Z" fill="white"/>
<path d="M104 89C106 90 106 90 106 90L104 89Z" fill="white"/>
<path d="M167 71C169 72 169 72 169 72L167 71Z" fill="white"/>
</svg>
