<svg width="329" height="329" viewBox="0 0 329 329" fill="none" xmlns="http://www.w3.org/2000/svg">
<path d="M165.13 0C255.503 0 328.879 73.3757 328.879 163.749C328.879 254.121 255.503 327.497 165.13 327.497C74.7575 327.497 1.38184 254.121 1.38184 163.749C1.38184 73.3757 74.7575 0 165.13 0Z" fill="#C8C8C8"/>
<mask id="mask0_259_3204" style="mask-type:alpha" maskUnits="userSpaceOnUse" x="1" y="0" width="328" height="328">
<path d="M165.13 0C255.503 0 328.879 73.3757 328.879 163.749C328.879 254.121 255.503 327.497 165.13 327.497C74.7575 327.497 1.38184 254.121 1.38184 163.749C1.38184 73.3757 74.7575 0 165.13 0Z" fill="#375A64"/>
</mask>
<g mask="url(#mask0_259_3204)">
<mask id="mask1_259_3204" style="mask-type:luminance" maskUnits="userSpaceOnUse" x="-194" y="-100" width="703" height="528">
<path d="M-193.578 -99.4032H508.422V427.097H-193.578V-99.4032Z" fill="white"/>
</mask>
<g mask="url(#mask1_259_3204)">
<path d="M23.631 163.566C21.2416 161.572 18.9473 159.739 16.7481 157.797C14.7296 156.014 12.745 154.18 10.8786 152.242C9.43738 150.746 8.04369 150.04 6.17186 151.447C5.72766 151.781 5.19111 152.187 4.68172 152.211C-3.55544 152.572 -7.82072 158.092 -11.2615 164.555C-13.4457 168.658 -22.7356 171.954 -27.3052 166.875C-27.9056 166.21 -28.2628 165.066 -28.2424 164.155C-28.1854 161.678 -27.7942 159.212 -27.6665 156.735C-27.4953 153.411 -25.595 152.603 -22.6378 152.884C-20.6315 153.076 -18.5736 153.19 -16.5849 152.955C-14.3409 152.69 -12.0928 151.58 -12.1797 149.069C-12.2449 147.17 -13.4647 145.288 -14.2838 143.45C-14.4781 143.014 -15.1247 142.779 -15.9302 142.179C-9.27282 138.26 -2.95503 134.383 3.52303 130.796C6.60654 129.087 8.98097 127.265 8.44576 123.318C8.38871 122.896 8.56531 122.424 8.70929 122.002C8.76498 121.835 9.02986 121.738 9.38304 121.471C9.89379 122.317 10.3882 123.136 10.9737 124.104C11.8756 124.027 12.8482 123.943 14.5584 123.795C13.1349 125.116 12.1962 125.987 11.2589 126.858C11.3242 127.164 11.3894 127.469 11.4559 127.773C14.985 127.773 18.514 127.797 22.0417 127.757C22.9328 127.748 23.8198 127.439 24.7082 127.439C29.9637 127.442 30.9268 126.609 31.6386 121.074C33.0635 120.869 34.5659 120.654 36.2991 120.406C36.0288 119.281 35.8006 118.34 35.4719 116.974C38.3829 116.424 41.2477 115.885 44.1125 115.344C44.122 115.082 44.1315 114.819 44.1424 114.556C39.983 113.858 35.8237 113.16 31.049 112.359C32.0651 109.2 32.929 106.689 33.6544 104.138C33.8419 103.475 33.5974 102.69 33.5512 101.96C32.853 102.134 31.9809 102.102 31.4878 102.517C29.0713 104.558 26.7919 106.757 24.3944 108.82C22.9192 110.09 22.7059 111.449 23.8768 112.94C25.3317 114.793 24.9581 116.393 23.54 118.071C22.3772 119.447 21.4766 121.05 20.2907 122.404C18.1242 124.88 16.7373 124.74 15.0366 122.014C14.5598 121.249 14.1727 120.427 13.7502 119.629C12.7192 117.685 11.6719 116.527 8.98504 117.491C7.2178 118.125 4.52279 118.3 3.61811 115.54C2.69851 112.735 4.11393 110.284 6.40414 108.812C9.79327 106.634 13.503 104.54 16.0363 101.534C21.9874 94.4771 29.3565 91.2333 38.2389 92.6677C45.9544 93.9147 53.4866 96.3 61.1003 98.1827C61.0514 98.779 61.0011 99.3753 60.9509 99.9717C58.8671 100.103 56.7806 100.371 54.701 100.328C52.6512 100.284 50.6096 99.9241 48.5652 99.7027C48.4226 100.011 48.2813 100.318 48.1401 100.626C49.8815 102.285 51.5265 104.066 53.3929 105.572C55.5214 107.289 57.1039 105.927 58.9065 104.518C61.6558 102.371 64.7258 100.633 67.3542 98.9203C69.6566 98.7437 72.0392 98.6473 74.3987 98.362C78.3081 97.8879 82.2012 97.2862 86.1038 96.7523C86.9976 96.6301 88.2174 96.9126 88.7472 96.4236C92.6674 92.8049 96.5836 95.7091 100.485 96.2715C102.167 96.5133 103.825 96.9113 106.113 97.3609C104.086 94.7718 102.566 92.8307 101.021 90.8597C106.6 86.9789 110.124 90.4359 112.127 101.599C113.468 100.746 115.613 99.7353 115.511 99.3903C114.706 96.679 113.471 94.094 112.212 91.0988C112.585 90.9752 113.73 90.6886 114.794 90.2213C118.781 88.4663 122.659 86.426 126.739 84.9332C129.971 83.7514 133.486 83.3642 136.786 82.34C139.046 81.6378 141.16 80.4628 143.325 79.4698C143.996 79.1614 144.715 78.3383 145.253 78.4578C151.262 79.8053 157.239 81.2927 163.707 82.8576C162.024 84.3477 160.667 85.5499 158.586 87.3918C165.381 87.3918 171.302 87.5317 177.215 87.3538C183.579 87.1622 189.616 87.6716 195.77 90.0175C200.212 91.7114 205.503 91.1912 210.42 91.6096C210.82 91.6435 211.423 91.4167 211.643 91.107C214.364 87.2736 218.103 88.8167 221.547 89.2827C235.204 91.1341 248.842 93.1418 262.506 94.9389C264.542 95.2065 266.683 94.545 268.777 94.5178C271.474 94.4825 274.268 94.2285 276.853 94.8099C286.884 97.0675 296.854 99.6008 306.832 102.088C307.909 102.356 308.896 102.993 309.819 103.774C304.801 105.241 299.492 99.1553 294.383 104.996C296.826 106.211 298.986 107.284 301.302 108.436C296.847 113.981 290.063 113.603 283.448 115.655C288.946 120.728 293.435 125.891 291.015 134.852C286.541 130.084 282.309 126.103 278.851 121.537C277.94 120.334 279.187 117.254 279.849 115.164C280.678 112.545 279.934 110.837 277.521 109.391C276.796 110.336 276.136 111.196 275.304 112.277C274.466 112.018 273.521 111.76 272.6 111.434C269.768 110.431 267.627 110.401 266.758 114.144C266.517 115.176 264.522 116.373 263.247 116.477C260.46 116.707 257.618 116.316 254.802 116.123C248.656 115.702 246.901 116.836 245.011 122.534C244.624 123.698 244.237 124.86 243.668 126.567C246.722 127.321 249.607 128.116 252.529 128.741C261.085 130.568 266.513 143.852 261.516 151.049C260.804 152.073 259.477 153.172 258.327 153.304C253.528 153.855 254.273 158.053 252.918 160.895C251.632 163.592 253.967 164.452 255.282 165.815C257.08 167.678 258.948 169.475 260.79 171.305C257.219 174.484 257.091 174.466 254.184 171.115C252.185 168.81 250.266 166.415 248.066 164.316C247.003 163.3 245.351 162.249 244.014 162.307C241.348 162.424 239.49 161.773 238.368 158.766C236.519 160.323 234.632 161.441 233.4 163.058C231.626 165.384 233.992 166.362 235.523 166.816C237.732 167.47 240.125 167.5 242.909 167.856C242.117 168.811 241.554 169.44 241.045 170.11C239.597 172.017 239.219 173.949 240.938 175.934C242.119 177.301 243.24 178.72 244.422 180.086C251.124 187.832 248.403 199.199 238.881 203.004C235.946 204.178 232.945 205.199 229.933 206.162C229.181 206.404 228.089 206.456 227.463 206.078C224.605 204.364 222.726 206.013 220.948 207.83C218.946 209.877 219.754 211.948 221.173 213.94C223.465 217.157 225.948 220.261 227.986 223.631C230.314 227.479 229.643 229.691 226.039 232.263C224.763 233.173 223.54 234.158 222.101 235.254C218.122 231.924 214.156 228.603 210.19 225.281C206.503 229.803 207.288 236.147 211.983 240.795C216.84 245.605 217.997 247.694 218.025 253.622C216.41 252.176 214.445 250.968 213.257 249.231C211.036 245.98 209.127 242.489 207.37 238.957C206.597 237.406 206.147 235.506 206.184 233.777C206.311 227.517 205.325 223.312 201.77 217.221C200.492 217.808 199.189 218.405 197.724 219.079C197.384 218.699 196.759 218.328 196.712 217.893C196.098 212.341 192.274 208.878 188.476 205.517C187.395 204.561 185.516 204.16 183.997 204.144C182.619 204.13 180.945 204.641 179.892 205.513C172.817 211.377 165.901 217.404 164.095 227.154C163.644 229.591 163.122 232.049 162.27 234.365C161.866 235.466 160.613 236.256 159.745 237.186C158.912 236.345 157.731 235.654 157.303 234.642C153.437 225.523 148.465 216.793 147.184 206.734C147.115 206.192 146.838 205.679 146.566 204.885C145.807 205.415 145.217 205.843 144.611 206.246C142.771 207.474 141.449 206.938 140.521 205.04C137.469 198.789 133.116 196.237 126.253 196.656C117.386 197.2 109.468 193.596 101.371 190.851C100.433 190.533 99.879 189.207 99.0287 188.488C97.544 187.232 95.9669 186.084 94.292 184.784C92.7109 188.802 93.5286 192.439 96.2739 194.795C97.2098 195.6 98.2789 196.268 99.3438 196.901C102.703 198.902 106.088 200.779 109.113 196.114C111.7 198.308 114.054 200.21 116.298 202.235C118.155 203.911 117.619 205.923 116.167 207.337C111.989 211.404 107.945 215.752 103.196 219.049C98.8942 222.036 93.75 223.82 88.9441 226.065C86.5113 227.202 85.1353 226.323 83.9372 223.858C80.548 216.882 76.962 209.993 73.2101 203.205C70.8085 198.861 67.9858 194.749 65.3234 190.55C64.6551 189.498 64.3508 187.937 62.3024 188.953C61.8053 189.199 60.4618 187.74 59.2882 186.911C59.2447 187.44 59.0559 187.904 59.2026 188.201C66.1887 202.25 72.5079 216.657 82.8763 228.783C85.6406 232.016 88.3342 233.165 92.2885 232.015C94.8789 231.262 97.5345 230.731 100.823 229.942C100.678 231.605 100.883 233.087 100.388 234.278C97.2547 241.822 93.6685 249.023 87.2095 254.519C83.7103 257.496 80.8618 261.244 77.7552 264.675C74.2547 268.541 73.528 272.994 74.9326 277.943C75.8277 281.093 76.4458 284.321 77.364 287.463C78.7265 292.128 77.1413 295.533 73.3976 298.385C70.8941 300.293 68.3852 302.346 66.4455 304.785C65.3737 306.131 64.8236 308.541 65.1767 310.235C65.8437 313.433 65.136 315.586 62.6556 317.674C61.084 318.995 59.6441 320.858 58.954 322.769C56.6122 329.256 51.6609 333.568 46.7722 337.889C45.3581 339.137 43.1711 339.765 41.2382 340.112C38.3992 340.625 35.4665 340.606 32.5772 340.855C30.1783 341.063 29.2248 339.656 28.4994 337.639C24.2844 325.905 20.0164 314.191 15.7103 302.49C14.4403 299.034 13.954 295.448 15.9643 292.341C20.5611 285.242 18.4678 278.501 15.4835 271.71C14.8967 270.376 14.136 269.077 13.2449 267.923C10.0772 263.824 8.45663 259.664 9.68324 254.145C10.8827 248.753 8.96331 247.018 3.69419 246.264C2.57217 246.104 1.13231 245.526 0.556351 244.663C-1.55184 241.503 -4.32428 241.565 -7.53002 242.264C-13.4905 243.562 -19.4878 244.69 -25.4687 245.899C-30.3004 246.874 -34.188 245.243 -37.1425 241.453C-40.2681 237.446 -43.6301 233.536 -46.1159 229.147C-47.5598 226.595 -47.9021 223.196 -47.9959 220.156C-48.1331 215.676 -47.6807 211.169 -47.314 206.687C-47.2189 205.528 -46.7108 204.278 -46.0452 203.308C-40.423 195.106 -34.8047 186.899 -28.9814 178.841C-27.4193 176.679 -25.235 174.932 -23.1757 173.184C-22.5522 172.657 -21.3949 172.677 -20.4712 172.602C-17.5168 172.365 -14.2784 172.908 -11.6554 171.87C-4.93147 169.212 2.04648 169.216 9.019 168.788C11.2576 168.651 11.7548 170.244 11.5116 171.92C10.9954 175.462 12.9651 176.999 15.8217 178.256C19.5382 179.891 23.146 181.774 26.7838 183.585C30.1077 185.239 31.3221 184.873 32.2308 181.437C32.9997 178.533 34.5835 178.13 37.0123 179.305C43.8272 182.604 51.176 182.929 58.5384 183.166C61.3149 183.256 63.0115 181.989 63.51 179.163C64.071 175.986 64.7271 172.825 65.4375 169.163C60.4999 169.163 56.1273 169.062 51.7615 169.193C47.9621 169.306 46.2411 166.977 45.3228 163.88C45.0932 163.103 45.7711 161.469 46.4869 161.094C53.075 157.634 59.8085 155.419 67.1681 159.126C69.7898 160.448 71.8993 158.884 74.4069 156.648C72.7361 155.013 71.4347 153.043 69.6037 152.102C66.4536 150.48 65.2487 148.484 66.5202 145.114C66.6506 144.768 66.4115 144.283 66.2797 143.465C64.0303 144.389 61.9954 145.224 59.7935 146.129C60.1616 147.119 60.4482 147.89 60.7335 148.658C58.8019 150.041 57.6242 149.764 56.5416 147.762C54.8192 144.575 53.0954 144.424 50.543 147.07C47.5315 150.193 46.491 153.998 47.1593 158.447C44.6504 158.94 42.3629 159.591 40.036 159.797C36.9539 160.069 35.7721 161.067 37.0069 164.314C37.4769 165.547 36.8221 167.207 36.2326 168.656C32.3341 160.338 27.247 153.515 18.9039 149.645C17.8117 149.138 16.49 149.127 15.2756 148.887C15.8434 150.086 16.1735 151.501 17.0307 152.436C18.6254 154.176 20.3858 155.841 22.331 157.167C25.3181 159.205 25.7147 161.34 23.631 163.566Z" fill="#676767"/>
<path d="M451.747 -118.29C452.243 -115.357 452.831 -112.93 453.028 -110.471C453.317 -106.859 453.778 -103.573 459.035 -103.916C459.007 -103.558 458.979 -103.201 458.95 -102.844C457.413 -101.778 456.012 -100.215 454.31 -99.7413C449.974 -98.5351 445.459 -97.9849 441.1 -96.8493C437.29 -95.8564 433.594 -94.426 429.847 -93.1885C429.988 -92.7077 430.131 -92.2268 430.272 -91.7446C432.868 -92.3708 435.464 -92.997 438.186 -93.6531C436.611 -87.2104 436.611 -87.2104 441.521 -84.9093C438.698 -83.771 436.15 -82.7427 433.602 -81.7157C433.49 -81.8665 433.38 -82.0173 433.269 -82.1681C433.826 -82.816 434.384 -83.464 435.361 -84.5996C430.257 -84.3605 426.298 -82.9383 422.762 -80.1495C419.233 -77.3649 415.775 -74.4457 412.001 -72.0278C408.112 -69.5352 405.073 -66.4871 402.505 -62.6374C400.826 -60.1217 398.345 -57.9062 395.771 -56.2694C390.313 -52.8001 388.721 -49.8742 389.388 -43.4165C389.595 -41.4211 389.142 -39.3591 388.993 -37.3269C388.511 -37.2753 388.028 -37.2223 387.546 -37.1707C387.01 -39.067 386.388 -40.9443 385.954 -42.865C384.699 -48.4221 377.873 -51.1891 372.8 -48.3936C371.316 -47.5758 369.214 -47.1507 367.574 -47.4685C361.065 -48.7277 354.6 -45.3631 352.34 -39.1539C351.608 -37.1422 350.88 -35.1277 350.207 -33.0956C348.591 -28.2041 350.745 -24.4441 354.164 -21.3416C357.343 -18.4578 361.931 -19.5241 364.525 -23.7025C366.314 -26.5849 368.48 -27.8102 372.107 -26.6107C370.537 -22.4962 369.021 -18.5257 367.194 -13.7429C369.726 -13.7429 371.79 -13.7837 373.853 -13.7334C377.664 -13.6424 378.214 -12.936 377.623 -9.2372C377.357 -7.56641 377.111 -5.88202 377.019 -4.19629C376.746 0.760406 379.753 3.325 384.68 2.59964C386.053 2.39859 387.708 2.30351 388.875 2.88217C391.153 4.01234 392.602 3.33316 394.291 1.78191C396.821 -0.543625 399.588 -2.61514 402.962 -5.37128V1.83488C403.239 1.93132 403.517 2.02776 403.794 2.12421C404.251 1.27115 404.916 0.466995 405.128 -0.443115C405.778 -3.23184 407.416 -3.74937 409.943 -2.97919C413.692 -1.83679 417.633 -1.17662 421.207 0.355621C424.55 1.79005 427.83 3.73524 430.571 6.10966C433.594 8.72861 436.568 10.6846 440.687 10.9373C444.74 11.1873 449.193 15.3887 449.712 19.4298C449.887 20.8059 449.171 22.4332 448.481 23.744C447.793 25.0508 446.626 26.1035 445.023 28.0555C448.318 26.6632 450.629 25.6865 452.941 24.7098C453.108 24.9856 453.274 25.26 453.441 25.5357C452.986 26.5002 452.529 27.4646 451.762 29.0906C453.142 28.6246 454.01 28.3761 454.845 28.0419C457.96 26.7963 460.735 26.3467 462.486 30.2357C462.771 30.8687 464.418 31.3224 465.321 31.1729C472.846 29.9287 477.694 35.191 483.295 38.519C484.113 39.0053 484.595 40.691 484.568 41.8063C484.534 43.2 484.192 44.9034 483.328 45.9113C477.021 53.2628 475.433 62.2022 474.391 71.359C473.824 76.3428 471.811 79.626 466.201 80.5171C463.533 80.9409 461.087 83.2298 458.749 84.9576C458.058 85.4697 457.819 86.9503 457.82 87.9854C457.831 95.2364 453.911 100.84 449.946 106.31C449.154 107.405 446.775 107.516 445.084 107.736C444.058 107.869 442.947 107.339 440.925 106.903C441.904 108.47 442.424 109.336 442.979 110.181C445.67 114.29 445.1 116.284 440.293 117.515C437.158 118.319 435.078 119.472 435.599 123.242C434.149 123.17 432.962 123.11 431.545 123.04C431.545 123.664 431.321 124.388 431.581 124.671C434.079 127.396 433.58 130.019 431.912 133.01C431.373 133.978 431.757 136.168 432.553 137.028C434.254 138.867 434.66 140.584 433.826 142.861C433.247 144.442 432.935 146.122 432.507 147.758C431.688 150.89 429.104 152.028 426.957 149.586C423.482 145.633 420.699 141.072 417.667 136.737C417.453 136.433 417.441 135.803 417.607 135.45C419.594 131.203 417.884 127.938 415.167 124.665C411.856 120.676 411.906 115.574 411.614 110.783C410.936 99.6321 410.594 88.4608 410.158 77.295C409.948 71.9417 407.98 67.5691 403.085 65.029C398.268 62.5309 394.934 58.7003 392.272 54.1185C389.271 48.9567 386.14 43.8669 383.218 38.6603C382.603 37.5627 382.372 36.078 382.452 34.8011C382.577 32.7881 382.873 30.7152 383.535 28.8203C384.626 25.6974 385.498 22.2457 387.482 19.7382C391.268 14.954 390.785 10.0625 389.017 5.02432C388.179 2.63632 386.117 3.32909 384.191 4.12102C383.034 4.59508 381.488 4.96727 380.39 4.591C375.912 3.05197 372.9 -0.123886 370.655 -4.32126C369.765 -5.9839 367.797 -7.18605 366.114 -8.2809C363.49 -9.98566 360.604 -11.2924 357.989 -13.0121C355.93 -14.365 354.094 -15.5088 351.431 -14.524C350.311 -14.1097 348.71 -14.3759 347.535 -14.8473C344.713 -15.9774 341.961 -17.3181 339.272 -18.7471C335.412 -20.7996 331.89 -23.0151 332.349 -28.4174C332.494 -30.1289 331.297 -32.0456 330.444 -33.7313C328.111 -38.3498 325.667 -42.9139 323.192 -47.459C322.415 -48.8839 321.399 -50.1798 320.028 -51.3684C317.574 -44.9175 322.675 -39.6986 321.857 -33.3944C320.081 -38.0251 317.818 -42.5404 316.672 -47.3218C315.544 -52.0218 314.561 -56.4066 311.651 -60.5958C308.379 -65.3053 308.812 -70.9153 311.943 -75.9712C314.323 -79.8127 316.777 -83.608 319.234 -87.3992C320.304 -89.0523 321.064 -90.5465 323.871 -90.2857C326.358 -90.0534 326.803 -93.2497 325.594 -94.5795C321.517 -99.0608 322.086 -103.747 323.409 -109.019C324.301 -112.567 322.114 -115.223 318.784 -116.807C312.109 -119.982 305.181 -121.141 298.051 -118.869C291.929 -116.917 285.944 -114.53 279.895 -112.344C278.009 -111.662 276.112 -111.009 273.982 -110.86C276.703 -112.316 279.424 -113.772 282.884 -115.623C280.708 -116.138 279.432 -116.44 277.964 -116.788C279.428 -125.708 288.058 -124.69 294.425 -128.448C291.379 -128.907 289.187 -129.237 286.993 -129.568L286.857 -130.375C290.69 -131.139 294.524 -131.903 298.608 -132.718C298.447 -133.846 298.297 -134.888 298.1 -136.257C305.787 -139.194 313.696 -141.144 321.841 -140.886C328.556 -140.673 335.222 -139.167 341.938 -138.534C345.817 -138.167 349.755 -138.295 353.663 -138.38C359.518 -138.508 365.387 -139.154 371.213 -138.864C374.077 -138.72 376.806 -136.779 379.688 -135.984C383.858 -134.833 387.765 -132.92 392.559 -134.57C395.756 -135.67 399.644 -135.159 403.167 -134.814C406.654 -134.475 410.178 -133.237 413.317 -135.533C414.672 -136.523 415.496 -138.238 416.56 -139.622C416.291 -139.897 416.02 -140.173 415.75 -140.449C417.061 -141.044 418.372 -141.639 419.954 -142.357C421.48 -139.633 422.911 -137.073 424.452 -134.319C427.591 -135.719 430.916 -137.202 434.242 -138.686C434.551 -138.327 434.861 -137.969 435.169 -137.61C433.97 -136.258 433.005 -134.475 431.511 -133.667C429.589 -132.629 427.273 -132.206 425.074 -131.822C422.077 -131.296 419.02 -131.235 416.839 -128.529C416.312 -127.875 414.9 -128.013 414.034 -127.535C408.638 -124.553 403.153 -121.699 397.969 -118.38C395.652 -116.896 395.963 -114.398 398.385 -112.788C400.337 -111.493 402.597 -110.644 404.758 -109.681C406.815 -108.764 408.922 -107.955 410.944 -107.124C410.853 -105.184 410.583 -103.398 410.769 -101.659C410.859 -100.818 411.773 -99.4493 412.369 -99.4194C413.312 -99.3732 414.489 -100.055 415.238 -100.771C418.207 -103.614 421.068 -106.571 423.923 -109.531C424.607 -110.24 425.204 -111.07 425.68 -111.933C427.277 -114.826 428.562 -117.924 430.422 -120.632C432.196 -123.217 435.126 -123.631 438.068 -122.993C440.801 -122.402 442.105 -120.581 442.616 -117.782C443.238 -114.371 444.178 -114.078 447.279 -115.72C448.659 -116.451 449.989 -117.274 451.747 -118.29Z" fill="#676767"/>
<path d="M279.412 338.439C277.518 339.349 276.229 339.968 274.764 340.675C274.037 339.676 273.369 338.793 272.737 337.886C270.797 335.095 268.181 333.831 264.829 334.646C256.492 336.672 248.178 338.787 239.855 340.861C238.76 341.134 237.672 341.497 236.56 341.626C234.548 341.859 233.396 341.277 233.602 338.834C234.18 331.981 234.534 325.111 235.042 318.252C235.367 313.851 237.672 310.62 241.864 309.484C249.71 307.359 255.85 302.858 261.225 297.001C263.927 294.057 266.965 292.03 271.391 293.276C272.3 293.531 273.989 292.396 274.779 291.452C278.708 286.746 282.544 285.77 288.066 288.496C287.944 289.732 287.728 291.043 287.702 292.358C287.63 296.022 291.425 300.107 295.035 299.706C296.46 299.549 298.022 298.013 298.951 296.7C299.956 295.279 300.315 293.393 300.923 291.697C301.522 290.028 302.082 288.344 302.851 286.116C305.745 291.38 309.83 295.485 308.563 301.691C308.394 302.517 309.082 303.627 309.598 304.466C311.963 308.312 314.351 312.145 316.842 315.909C318.553 318.495 319.185 321.103 318.453 324.229C317.139 329.828 314.488 334.458 309.979 338.094C308.238 339.497 306.684 341.191 305.273 342.937C300.066 349.382 293.449 352.047 285.227 350.857C282.732 350.496 281.454 349.29 281.103 346.756C280.738 344.113 280.053 341.513 279.412 338.439Z" fill="#676767"/>
<path d="M295.41 276.732C296.943 273.903 295.767 272.095 293.459 270.697C293.073 270.463 292.689 270.226 292.287 270.021C287.926 267.8 282.568 266.782 281.717 260.425C283.555 259.308 284.847 260.365 285.913 262.494C287.853 266.368 287.926 266.381 291.305 263.973C293.78 262.209 296.276 262.113 298.94 263.47C301.452 264.75 303.947 266.081 306.543 267.171C311.012 269.049 314.333 271.706 315.856 276.682C316.598 279.104 318.888 281.053 320.908 283.803C317.71 283.441 315.709 281.909 313.9 280.018C310.299 276.254 310.398 276.454 305.546 278.582C303.906 279.301 301.639 278.883 299.722 278.578C298.338 278.358 297.061 277.468 295.41 276.732Z" fill="#676767"/>
<path d="M247.975 242.039C249.383 243.296 250.378 244.186 251.571 245.252C249.673 248.154 248.888 251.025 250.691 254.384C251.163 255.267 249.707 257.193 249.12 258.633C248.951 259.05 248.722 259.442 248.523 259.845C245.036 266.868 243.783 267.403 236.239 265.096C232.561 263.972 230.302 260.483 231.011 256.709C231.172 255.85 231.894 254.951 232.601 254.367C235.439 252.024 238.388 249.816 241.268 247.522C243.459 245.776 245.608 243.978 247.975 242.039Z" fill="#676767"/>
<path d="M98.1988 289.164C97.7641 292.655 97.7464 295.485 97.0156 298.116C95.478 303.65 93.5966 309.089 91.7818 314.542C91.4341 315.588 90.903 316.664 90.1776 317.477C87.8643 320.062 84.2212 319.276 83.4102 315.943C83.0258 314.362 83.1847 312.604 83.345 310.95C83.4849 309.506 84.1953 308.105 84.2673 306.665C84.7088 297.856 91.229 293.933 98.1988 289.164Z" fill="#676767"/>
<path d="M221.127 271.102C219.421 269.885 217.647 269.159 216.684 267.84C211.493 260.735 206.5 253.482 201.456 246.269C201.296 246.04 201.31 245.689 201.099 244.763C202.756 245.627 204.263 246.014 205.195 246.964C210.627 252.493 215.973 258.11 221.237 263.802C223.057 265.772 222.901 268.1 221.127 271.102Z" fill="#676767"/>
<path d="M266.654 173.409C269.664 172.001 272.823 170.838 275.645 169.124C279.295 166.908 276.774 163.179 277.3 159.121C278.651 160.503 279.662 161.233 280.242 162.215C280.853 163.251 281.092 164.52 281.425 165.706C283.047 171.484 282.656 170.827 277.61 173.754C273.619 176.068 270.383 173.189 266.899 174.417C266.817 174.082 266.736 173.745 266.654 173.409Z" fill="#676767"/>
<path d="M33.0892 77.0777C31.2893 77.3181 29.4895 77.5572 27.0173 77.8873C28.525 79.0555 29.4515 79.774 30.3792 80.4926C26.5147 79.0161 22.9598 78.523 20.9236 83.5028C19.4022 82.1295 16.3934 82.7502 17.6051 79.4779C15.8297 78.9685 14.0638 78.4632 12.2993 77.9565C12.3265 77.6726 12.3537 77.3901 12.3822 77.1062C19.2392 76.7585 26.0976 76.4107 32.9547 76.0643C32.9995 76.4026 33.0443 76.7394 33.0892 77.0777Z" fill="#676767"/>
<path d="M265.031 256.203C261.965 256.827 258.9 257.45 255.13 258.216C257.037 259.94 258.846 260.879 259.48 262.331C260.184 263.943 259.815 266.021 259.952 268.646C258.41 267.028 257.382 265.948 255.975 264.472C255.483 266.699 255.085 268.507 254.592 270.742C254.086 270.131 253.57 269.777 253.455 269.324C252.327 264.913 253.595 260.784 255.509 256.945C255.994 255.972 258.144 255.576 259.588 255.4C261.317 255.19 263.109 255.5 264.875 255.584C264.926 255.79 264.979 255.997 265.031 256.203Z" fill="#676767"/>
<path d="M95.1299 82.7937C85.2736 86.6773 85.2736 86.6773 82.8448 92.2072C82.4387 92.2072 81.9768 92.2942 81.5639 92.1896C80.704 91.9695 79.87 91.6489 79.0713 91.3854C79.4177 83.9755 87.4551 82.1376 95.1299 82.7937Z" fill="#676767"/>
<path d="M223.417 273.684C229.838 274.229 235.877 274.011 241.263 277.765C236.881 278.308 224.726 275.674 223.417 273.684Z" fill="#676767"/>
<path d="M261.543 224.943C253.708 225.321 250.988 220.384 254.756 213.026C255.445 214.838 256.629 216.357 256.365 217.551C255.479 221.534 256.969 223.784 261.543 224.943Z" fill="#676767"/>
<path d="M268.765 240.173C267.69 241.347 266.734 242.39 265.411 243.834C264.03 242.26 262.687 240.733 260.992 238.8C263.07 237.694 264.858 236.743 267.023 235.591C267.713 237.407 268.253 238.824 268.765 240.173Z" fill="#676767"/>
<path d="M274.085 156.53C273.891 154.047 273.746 152.178 273.55 149.668C276.535 151.029 279.022 152.163 281.51 153.296C281.512 153.578 281.513 153.859 281.514 154.141C279.239 154.873 276.965 155.604 274.085 156.53Z" fill="#676767"/>
<path d="M271.414 145.895C267.951 141.068 265.078 137.062 262.204 133.055C267.063 135.672 271.104 138.892 271.414 145.895Z" fill="#676767"/>
<path d="M141.459 78.7919C136.347 77.8574 131.237 76.9242 126.125 75.9896C126.178 75.6772 126.233 75.3634 126.286 75.051C131.395 75.995 136.505 76.9405 141.614 77.8845C141.562 78.1861 141.51 78.489 141.459 78.7919Z" fill="#676767"/>
<path d="M165.775 237.041C169.554 239.722 169.697 240.579 166.466 242.452C166.231 240.612 166.021 238.968 165.775 237.041Z" fill="#676767"/>
<path d="M45.6281 211.161C47.4393 211.161 48.9099 212.631 48.9099 214.443C48.9099 216.254 47.4393 217.725 45.6281 217.725C43.8168 217.725 42.3462 216.254 42.3462 214.443C42.3462 212.631 43.8168 211.161 45.6281 211.161Z" fill="#F3F3F3"/>
<path d="M70.8995 230.816C72.7108 230.816 74.1814 232.287 74.1814 234.098C74.1814 235.909 72.7108 237.38 70.8995 237.38C69.0883 237.38 67.6177 235.909 67.6177 234.098C67.6177 232.287 69.0883 230.816 70.8995 230.816Z" fill="#F3F3F3"/>
<path d="M100.384 156.405C102.196 156.405 103.666 157.875 103.666 159.687C103.666 161.498 102.196 162.968 100.384 162.968C98.5731 162.968 97.1025 161.498 97.1025 159.687C97.1025 157.875 98.5731 156.405 100.384 156.405Z" fill="#F3F3F3"/>
<path d="M68.0919 121.305C69.9032 121.305 71.3738 122.775 71.3738 124.587C71.3738 126.398 69.9032 127.868 68.0919 127.868C66.2807 127.868 64.8101 126.398 64.8101 124.587C64.8101 122.775 66.2807 121.305 68.0919 121.305Z" fill="#F3F3F3"/>
<g opacity="0.187125">
<path d="M9.12367 135.345C10.9349 135.345 12.4055 136.815 12.4055 138.627C12.4055 140.438 10.9349 141.908 9.12367 141.908C7.3124 141.908 5.8418 140.438 5.8418 138.627C5.8418 136.815 7.3124 135.345 9.12367 135.345Z" fill="#F3F3F3"/>
</g>
<path d="M150.928 121.305C152.74 121.305 154.21 122.775 154.21 124.587C154.21 126.398 152.74 127.868 150.928 127.868C149.117 127.868 147.646 126.398 147.646 124.587C147.646 122.775 149.117 121.305 150.928 121.305Z" fill="#F3F3F3"/>
<path d="M136.282 181C138.093 181 139.564 182.471 139.564 184.282C139.564 186.093 138.093 187.564 136.282 187.564C134.471 187.564 133 186.093 133 184.282C133 182.471 134.471 181 136.282 181Z" fill="#F3F3F3"/>
<path d="M157.246 163.425C159.057 163.425 160.528 164.895 160.528 166.707C160.528 168.518 159.057 169.988 157.246 169.988C155.434 169.988 153.964 168.518 153.964 166.707C153.964 164.895 155.434 163.425 157.246 163.425Z" fill="#F3F3F3"/>
<path d="M217.618 185.889C219.43 185.889 220.9 187.36 220.9 189.171C220.9 190.983 219.43 192.453 217.618 192.453C215.807 192.453 214.336 190.983 214.336 189.171C214.336 187.36 215.807 185.889 217.618 185.889Z" fill="#F3F3F3"/>
<path d="M207.791 142.365C209.602 142.365 211.073 143.835 211.073 145.647C211.073 147.458 209.602 148.928 207.791 148.928C205.979 148.928 204.509 147.458 204.509 145.647C204.509 143.835 205.979 142.365 207.791 142.365Z" fill="#F3F3F3"/>
<path d="M242.889 139.557C244.701 139.557 246.171 141.027 246.171 142.839C246.171 144.65 244.701 146.121 242.889 146.121C241.078 146.121 239.607 144.65 239.607 142.839C239.607 141.027 241.078 139.557 242.889 139.557Z" fill="#F3F3F3"/>
<path d="M247.102 100.244C248.913 100.244 250.384 101.715 250.384 103.526C250.384 105.337 248.913 106.808 247.102 106.808C245.291 106.808 243.82 105.337 243.82 103.526C243.82 101.715 245.291 100.244 247.102 100.244Z" fill="#F3F3F3"/>
<path d="M207.791 110.073C209.602 110.073 211.073 111.544 211.073 113.355C211.073 115.167 209.602 116.637 207.791 116.637C205.979 116.637 204.509 115.167 204.509 113.355C204.509 111.544 205.979 110.073 207.791 110.073Z" fill="#F3F3F3"/>
<path d="M256.929 320.673C258.741 320.673 260.211 322.143 260.211 323.955C260.211 325.766 258.741 327.236 256.929 327.236C255.118 327.236 253.647 325.766 253.647 323.955C253.647 322.143 255.118 320.673 256.929 320.673Z" fill="#F3F3F3"/>
<path d="M289.222 313.652C291.034 313.652 292.504 315.123 292.504 316.934C292.504 318.745 291.034 320.216 289.222 320.216C287.411 320.216 285.94 318.745 285.94 316.934C285.94 315.123 287.411 313.652 289.222 313.652Z" fill="#F3F3F3"/>
</g>
</g>
<g opacity="0.15">
<path d="M289.535 268.27C232.585 338.031 129.83 348.473 59.9812 291.524C-9.78004 234.574 -20.2223 131.819 36.7275 61.9697C67.791 24.0617 114.211 2.0365 163.175 2.0365C167.65 2.0365 172.038 2.212 176.425 2.56299C177.654 2.65075 178.882 2.73849 180.023 2.914C97.977 11.8645 38.658 85.5745 47.5207 167.708C56.3835 249.842 130.181 309.074 212.315 300.211C240.571 297.052 267.334 285.995 289.535 268.27Z" fill="#676767"/>
</g>
</svg>
